G04*
G04 #@! TF.GenerationSoftware,Altium Limited,Altium Designer,20.0.10 (225)*
G04*
G04 Layer_Physical_Order=4*
G04 Layer_Color=16711680*
%FSLAX44Y44*%
%MOMM*%
G71*
G01*
G75*
%ADD12C,0.2000*%
%ADD13C,0.1500*%
G04:AMPARAMS|DCode=31|XSize=1.5mm|YSize=1.5mm|CornerRadius=0.375mm|HoleSize=0mm|Usage=FLASHONLY|Rotation=180.000|XOffset=0mm|YOffset=0mm|HoleType=Round|Shape=RoundedRectangle|*
%AMROUNDEDRECTD31*
21,1,1.5000,0.7500,0,0,180.0*
21,1,0.7500,1.5000,0,0,180.0*
1,1,0.7500,-0.3750,0.3750*
1,1,0.7500,0.3750,0.3750*
1,1,0.7500,0.3750,-0.3750*
1,1,0.7500,-0.3750,-0.3750*
%
%ADD31ROUNDEDRECTD31*%
%ADD32C,1.5000*%
%ADD33C,0.5000*%
%ADD35C,1.2000*%
D12*
X227154Y84996D02*
X234450Y77700D01*
X234400Y77782D02*
X234450Y77731D01*
Y77700D02*
Y77731D01*
X192822Y84996D02*
X227154D01*
X127400Y87129D02*
X141475Y101204D01*
X142706D01*
X127400Y87129D02*
Y87129D01*
X118254Y84200D02*
X124471D01*
X127400Y87129D01*
X91950Y135700D02*
X117450D01*
X127206Y145456D02*
X168029D01*
X117450Y135700D02*
X127206Y145456D01*
X168029D02*
X187535Y125950D01*
X223445Y115955D02*
X229711D01*
X68150Y136900D02*
Y137200D01*
X56471Y122950D02*
X64721Y131200D01*
X51200Y122950D02*
X56471D01*
X38450Y135700D02*
X51200Y122950D01*
X64721Y133471D02*
X68150Y136900D01*
X64721Y131200D02*
Y133471D01*
X75921Y137450D02*
X76683D01*
X57921Y119450D02*
X75921Y137450D01*
X39614Y119450D02*
X57921D01*
X187535Y125950D02*
X213450D01*
X223445Y115955D01*
X64453Y86204D02*
Y91943D01*
X64450Y91945D02*
X64453Y91943D01*
X64450Y91945D02*
X64453Y91948D01*
X62450Y93950D02*
X64453Y91948D01*
X32450Y93950D02*
X62450D01*
X28450Y89950D02*
X32450Y93950D01*
X37700Y39700D02*
Y49451D01*
X12700Y89900D02*
X28450D01*
X48200Y59951D02*
Y64200D01*
X37700Y49451D02*
X48200Y59951D01*
X118216Y84238D02*
X118254Y84200D01*
X100489Y84238D02*
X118216D01*
X91454Y75203D02*
X100489Y84238D01*
X35464Y115300D02*
X39614Y119450D01*
X26470Y135700D02*
X38450D01*
X21470Y140700D02*
X26470Y135700D01*
X12700Y140700D02*
X21470D01*
X12700Y115300D02*
X35464D01*
D13*
X75450Y125450D02*
X133450D01*
X63955Y113955D02*
X75450Y125450D01*
X121180Y74203D02*
X175312D01*
X116145Y79238D02*
X121180Y74203D01*
X191008Y89900D02*
X241300D01*
X175312Y74203D02*
X191008Y89900D01*
X232600Y73200D02*
X241300Y64500D01*
X205950Y73200D02*
X232600D01*
X191700Y58950D02*
X205950Y73200D01*
X78997Y142206D02*
X85504Y135700D01*
X59485Y142206D02*
X78997D01*
X55872Y138593D02*
X59485Y142206D01*
X55872Y135126D02*
Y138593D01*
X55202Y134456D02*
X55872Y135126D01*
X85504Y135700D02*
X91950D01*
X123625Y99950D02*
X130001D01*
X138751Y108700D02*
X146667D01*
X130001Y99950D02*
X138751Y108700D01*
X146667D02*
X152668Y114700D01*
X120842Y97168D02*
X123625Y99950D01*
X133714Y137924D02*
X136496Y140707D01*
X139327Y134765D02*
Y135094D01*
X143956Y140707D02*
X144206Y140456D01*
X136496Y140707D02*
X143956D01*
X133714Y133661D02*
X138200Y129175D01*
X133714Y133661D02*
Y137924D01*
X138464Y135957D02*
X139327Y135094D01*
X128410Y109450D02*
X141200Y122240D01*
Y132892D01*
X139327Y134765D02*
X141200Y132892D01*
X138200Y123483D02*
Y129175D01*
X135417Y120700D02*
X138200Y123483D01*
X152668Y114700D02*
X181731D01*
X186131Y110300D01*
X207401D01*
X213145Y104556D01*
X230556D01*
X241300Y115300D01*
X57202Y113955D02*
X63955D01*
X72450Y82918D02*
X86716Y97184D01*
X72558Y72314D02*
Y73700D01*
X72450Y72206D02*
X72558Y72314D01*
Y73700D02*
Y82810D01*
X72450Y82918D02*
X72558Y82810D01*
X72450Y72206D02*
X110706Y33950D01*
X118983Y109450D02*
X128410D01*
X110706Y33950D02*
X221050D01*
X120842Y90758D02*
X122400Y89200D01*
X120842Y90758D02*
Y97168D01*
X80703Y69986D02*
Y73703D01*
X88233Y78700D02*
X118983Y109450D01*
X80703Y73703D02*
X85700Y78700D01*
X88233D01*
X80703Y69986D02*
X110440Y40249D01*
X223938D01*
X93950Y110450D02*
X99982D01*
X86716Y103216D02*
X93950Y110450D01*
X86716Y97184D02*
Y103216D01*
X99982Y110450D02*
X110232Y120700D01*
X135417D01*
X221050Y33950D02*
X241300Y13700D01*
X225087Y39100D02*
X241300D01*
X223938Y40249D02*
X225087Y39100D01*
D31*
X12700Y13700D02*
D03*
Y39100D02*
D03*
Y64500D02*
D03*
Y115300D02*
D03*
Y89900D02*
D03*
X241300Y13700D02*
D03*
Y39100D02*
D03*
Y64500D02*
D03*
Y89900D02*
D03*
Y115300D02*
D03*
Y140700D02*
D03*
D32*
X12700D02*
D03*
D33*
X46630Y81933D02*
D03*
X133450Y125450D02*
D03*
X234400Y77782D02*
D03*
X192822Y84996D02*
D03*
X131045Y83703D02*
D03*
X74953Y146957D02*
D03*
X160648Y130950D02*
D03*
X142706Y101204D02*
D03*
X138464Y135957D02*
D03*
X144206Y140456D02*
D03*
X144700Y113450D02*
D03*
X178950Y100200D02*
D03*
X158450Y100700D02*
D03*
X171200Y109950D02*
D03*
X229711Y115955D02*
D03*
X68150Y137200D02*
D03*
X54400Y127950D02*
D03*
X55202Y134456D02*
D03*
X61452Y137456D02*
D03*
X76683Y137450D02*
D03*
X57202Y113955D02*
D03*
X50627Y145350D02*
D03*
X17200Y128200D02*
D03*
X107700Y140950D02*
D03*
X56950Y56700D02*
D03*
X64453Y86204D02*
D03*
X58789Y81668D02*
D03*
X56150Y88647D02*
D03*
X90454Y68703D02*
D03*
X72558Y73700D02*
D03*
X100200Y36200D02*
D03*
X37700Y39700D02*
D03*
X48200Y64200D02*
D03*
X125592Y95200D02*
D03*
X122450Y104700D02*
D03*
X125955Y78953D02*
D03*
X122400Y89200D02*
D03*
X116145Y79238D02*
D03*
X80703Y73703D02*
D03*
X66453Y62952D02*
D03*
X91454Y75203D02*
D03*
X179450Y90200D02*
D03*
X124956Y115205D02*
D03*
X191700Y58950D02*
D03*
X53700Y12200D02*
D03*
X186450Y143450D02*
D03*
X190200Y70450D02*
D03*
X72700Y25200D02*
D03*
X96454Y100205D02*
D03*
X55900Y99200D02*
D03*
X38900Y127700D02*
D03*
X74650Y8200D02*
D03*
X78900Y99200D02*
D03*
X97900Y117200D02*
D03*
X78900Y117450D02*
D03*
X210950Y119287D02*
D03*
X71700Y40450D02*
D03*
X70453Y57453D02*
D03*
X183512Y53258D02*
D03*
X22700Y102700D02*
D03*
X194700Y120700D02*
D03*
D35*
X165200Y13700D02*
D03*
M02*
