M48
;Layer_Color=9474304
;FILE_FORMAT=4:4
METRIC,LZ
;TYPE=PLATED
T1F00S00C0.2000
T2F00S00C0.6000
T3F00S00C1.0000
%
T01
X00041Y000035
X0006195Y-000005
X0006Y000165
X00059Y0003175
X00057753Y00048752
X000567Y000555
X00062253Y00061253
X00058253Y00066753
X00067753Y00066253
X00077254Y00066503
Y00060003
X00087417Y00065573
X00103445Y00070538
X00113515Y000665
X00119335Y00074116
X001097Y000805
X00132507Y00081754
X0013395Y00101182
X00145962Y00097357
X00166258Y00096755
Y00086504
X00174573Y00107176
X0019825Y00110587
X0017375Y0013475
X00135257Y00129756
X00128756Y0012666
X0012075Y0011675
X00112562Y00106954
X000852Y001085
X00083754Y00091504
X000662Y000905
Y0010875
X00063503Y00128506
X0005545Y001285
X00048752Y00128756
X00041752Y00128506
X000417Y0011925
X000262Y00119
X00044502Y00105255
X000432Y000905
X0004325Y0007975
X00037752Y00071003
X00044058Y00063828
X0005175Y0007275
X00020501Y00067503
X00010908Y00091658
X0001145Y0013725
X00069003Y00137207
X0008256Y00130248
X00089Y00133
X00096505Y00133006
X00080555Y00026805
X00044343Y00042304
X00025526Y00027622
X00170812Y00044558
X001775Y0006175
X00205729Y00071472
X00213575Y00108175
T02
X00096699Y0000307
X00109331Y0001469
X0011041Y0003954
X000965Y0004825
X00193056Y00040074
X00193955Y0001579
X00206796Y00003622
X00206397Y00052186
T03
X0Y00005
Y000304
Y000558
Y000812
Y001066
Y00132
X002286
Y001066
Y000812
Y000558
Y000304
Y00005
M30
