M48
;Layer_Color=9474304
;FILE_FORMAT=4:2
METRIC
;TYPE=PLATED
T1F00S00C0.20
T2F00S00C0.60
T3F00S00C1.00
%
T01
X000410Y-000015
X000620Y-000055
X000600Y000115
X000590Y000267
X000578Y000438
X000538Y000493
X000628Y000555
X000680Y000600
X000743Y000568
X000788Y000615
X001034Y000655
X001135Y000615
X001193Y000691
X001097Y000755
X001129Y000815
X001098Y000910
X001123Y001015
X001207Y001118
X001301Y001202
X001355Y001240
X001423Y001235
X001340Y000962
X001325Y000768
X001463Y000763
X001667Y000765
X001585Y000962
X001746Y001022
X001820Y001070
X001983Y001056
X001738Y001298
X001775Y000568
X001790Y000453
X001708Y000396
X000840Y000225
X000443Y000373
X000463Y000570
X000473Y000640
X000518Y000690
X000432Y000747
X000432Y000855
X000445Y001003
X000417Y001143
X000425Y001208
X000488Y001238
X000555Y001235
X000640Y001238
X000745Y001318
X000930Y001270
X000852Y001035
X000838Y000865
X000662Y000855
Y001038
X000262Y001140
X000242Y001315
X000045Y001145
X000100Y000890
X000205Y000625
X000373Y000660
X000250Y000228
X002053Y000733
X002136Y001032
T02
X000967Y-000019
X001093Y000097
X001104Y000345
X000965Y000432
X001931Y000351
X001940Y000108
X002068Y-000014
X002064Y000472
T03
X000000Y000000
Y000254
Y000508
Y000762
Y001016
Y001270
X002286
Y001016
Y000762
Y000508
Y000254
Y000000
M30
