M48
;Layer_Color=0
;FILE_FORMAT=4:2
METRIC
;TYPE=PLATED
T1F00S00C0.20
T2F00S00C0.25
T3F00S00C0.80
%
T01
X001077Y001410
X002344Y000778
T02
X000537Y000122
X000747Y000082
X000727Y000252
X000717Y000405
X000705Y000575
X000665Y000630
X000570Y000567
X000482Y000642
X000466Y000819
X000588Y000817
X000561Y000886
X000645Y000862
X000726Y000737
X000807Y000737
X000915Y000752
X000905Y000687
X001161Y000792
X001260Y000790
X001310Y000837
X001224Y000892
X001256Y000952
X001224Y001047
X001250Y001152
X001335Y001255
X001385Y001360
X001442Y001405
X001606Y001310
X001712Y001100
X001790Y001002
X001794Y000902
X001928Y000850
X001902Y000705
X001917Y000590
X001835Y000533
X001585Y001007
X001427Y001012
X001447Y001135
X000979Y001172
X000965Y001002
X000789Y000992
Y001175
X000767Y001375
X000682Y001372
X000615Y001375
X000552Y001345
X000544Y001280
X000389Y001277
X000172Y001282
X000227Y001027
X000559Y000992
X000572Y001140
X000506Y001454
X000750Y001470
X001865Y001435
X001947Y001207
X002109Y001193
X001002Y000362
X000377Y000397
X002297Y001160
T03
X000127Y000137
Y000391
Y000645
Y000899
Y001153
Y001407
X001652Y000137
X002413
Y000391
Y000645
Y000899
Y001153
Y001407
M30
