G04*
G04 #@! TF.GenerationSoftware,Altium Limited,Altium Designer,20.0.10 (225)*
G04*
G04 Layer_Color=8388736*
%FSLAX44Y44*%
%MOMM*%
G71*
G01*
G75*
%ADD15R,0.6000X0.6000*%
%ADD16R,0.6000X0.6000*%
G04:AMPARAMS|DCode=17|XSize=3mm|YSize=2mm|CornerRadius=0.5mm|HoleSize=0mm|Usage=FLASHONLY|Rotation=0.000|XOffset=0mm|YOffset=0mm|HoleType=Round|Shape=RoundedRectangle|*
%AMROUNDEDRECTD17*
21,1,3.0000,1.0000,0,0,0.0*
21,1,2.0000,2.0000,0,0,0.0*
1,1,1.0000,1.0000,-0.5000*
1,1,1.0000,-1.0000,-0.5000*
1,1,1.0000,-1.0000,0.5000*
1,1,1.0000,1.0000,0.5000*
%
%ADD17ROUNDEDRECTD17*%
G04:AMPARAMS|DCode=18|XSize=0.5mm|YSize=1.7mm|CornerRadius=0mm|HoleSize=0mm|Usage=FLASHONLY|Rotation=180.000|XOffset=0mm|YOffset=0mm|HoleType=Round|Shape=Octagon|*
%AMOCTAGOND18*
4,1,8,0.1250,-0.8500,-0.1250,-0.8500,-0.2500,-0.7250,-0.2500,0.7250,-0.1250,0.8500,0.1250,0.8500,0.2500,0.7250,0.2500,-0.7250,0.1250,-0.8500,0.0*
%
%ADD18OCTAGOND18*%

G04:AMPARAMS|DCode=19|XSize=0.5mm|YSize=1.7mm|CornerRadius=0.125mm|HoleSize=0mm|Usage=FLASHONLY|Rotation=180.000|XOffset=0mm|YOffset=0mm|HoleType=Round|Shape=RoundedRectangle|*
%AMROUNDEDRECTD19*
21,1,0.5000,1.4500,0,0,180.0*
21,1,0.2500,1.7000,0,0,180.0*
1,1,0.2500,-0.1250,0.7250*
1,1,0.2500,0.1250,0.7250*
1,1,0.2500,0.1250,-0.7250*
1,1,0.2500,-0.1250,-0.7250*
%
%ADD19ROUNDEDRECTD19*%
G04:AMPARAMS|DCode=20|XSize=1mm|YSize=1mm|CornerRadius=0mm|HoleSize=0mm|Usage=FLASHONLY|Rotation=90.000|XOffset=0mm|YOffset=0mm|HoleType=Round|Shape=Octagon|*
%AMOCTAGOND20*
4,1,8,0.2500,0.5000,-0.2500,0.5000,-0.5000,0.2500,-0.5000,-0.2500,-0.2500,-0.5000,0.2500,-0.5000,0.5000,-0.2500,0.5000,0.2500,0.2500,0.5000,0.0*
%
%ADD20OCTAGOND20*%

G04:AMPARAMS|DCode=21|XSize=1mm|YSize=1mm|CornerRadius=0.25mm|HoleSize=0mm|Usage=FLASHONLY|Rotation=90.000|XOffset=0mm|YOffset=0mm|HoleType=Round|Shape=RoundedRectangle|*
%AMROUNDEDRECTD21*
21,1,1.0000,0.5000,0,0,90.0*
21,1,0.5000,1.0000,0,0,90.0*
1,1,0.5000,0.2500,0.2500*
1,1,0.5000,0.2500,-0.2500*
1,1,0.5000,-0.2500,-0.2500*
1,1,0.5000,-0.2500,0.2500*
%
%ADD21ROUNDEDRECTD21*%
G04:AMPARAMS|DCode=22|XSize=0.3mm|YSize=0.9mm|CornerRadius=0.075mm|HoleSize=0mm|Usage=FLASHONLY|Rotation=90.000|XOffset=0mm|YOffset=0mm|HoleType=Round|Shape=RoundedRectangle|*
%AMROUNDEDRECTD22*
21,1,0.3000,0.7500,0,0,90.0*
21,1,0.1500,0.9000,0,0,90.0*
1,1,0.1500,0.3750,0.0750*
1,1,0.1500,0.3750,-0.0750*
1,1,0.1500,-0.3750,-0.0750*
1,1,0.1500,-0.3750,0.0750*
%
%ADD22ROUNDEDRECTD22*%
G04:AMPARAMS|DCode=23|XSize=0.3mm|YSize=0.9mm|CornerRadius=0.075mm|HoleSize=0mm|Usage=FLASHONLY|Rotation=180.000|XOffset=0mm|YOffset=0mm|HoleType=Round|Shape=RoundedRectangle|*
%AMROUNDEDRECTD23*
21,1,0.3000,0.7500,0,0,180.0*
21,1,0.1500,0.9000,0,0,180.0*
1,1,0.1500,-0.0750,0.3750*
1,1,0.1500,0.0750,0.3750*
1,1,0.1500,0.0750,-0.3750*
1,1,0.1500,-0.0750,-0.3750*
%
%ADD23ROUNDEDRECTD23*%
%ADD24R,3.4000X3.4000*%
G04:AMPARAMS|DCode=25|XSize=0.6mm|YSize=0.8mm|CornerRadius=0.15mm|HoleSize=0mm|Usage=FLASHONLY|Rotation=180.000|XOffset=0mm|YOffset=0mm|HoleType=Round|Shape=RoundedRectangle|*
%AMROUNDEDRECTD25*
21,1,0.6000,0.5000,0,0,180.0*
21,1,0.3000,0.8000,0,0,180.0*
1,1,0.3000,-0.1500,0.2500*
1,1,0.3000,0.1500,0.2500*
1,1,0.3000,0.1500,-0.2500*
1,1,0.3000,-0.1500,-0.2500*
%
%ADD25ROUNDEDRECTD25*%
G04:AMPARAMS|DCode=26|XSize=0.7mm|YSize=0.8mm|CornerRadius=0.175mm|HoleSize=0mm|Usage=FLASHONLY|Rotation=270.000|XOffset=0mm|YOffset=0mm|HoleType=Round|Shape=RoundedRectangle|*
%AMROUNDEDRECTD26*
21,1,0.7000,0.4500,0,0,270.0*
21,1,0.3500,0.8000,0,0,270.0*
1,1,0.3500,-0.2250,-0.1750*
1,1,0.3500,-0.2250,0.1750*
1,1,0.3500,0.2250,0.1750*
1,1,0.3500,0.2250,-0.1750*
%
%ADD26ROUNDEDRECTD26*%
G04:AMPARAMS|DCode=27|XSize=1.35mm|YSize=0.8mm|CornerRadius=0.2mm|HoleSize=0mm|Usage=FLASHONLY|Rotation=270.000|XOffset=0mm|YOffset=0mm|HoleType=Round|Shape=RoundedRectangle|*
%AMROUNDEDRECTD27*
21,1,1.3500,0.4000,0,0,270.0*
21,1,0.9500,0.8000,0,0,270.0*
1,1,0.4000,-0.2000,-0.4750*
1,1,0.4000,-0.2000,0.4750*
1,1,0.4000,0.2000,0.4750*
1,1,0.4000,0.2000,-0.4750*
%
%ADD27ROUNDEDRECTD27*%
G04:AMPARAMS|DCode=28|XSize=0.5mm|YSize=0.5mm|CornerRadius=0.125mm|HoleSize=0mm|Usage=FLASHONLY|Rotation=180.000|XOffset=0mm|YOffset=0mm|HoleType=Round|Shape=RoundedRectangle|*
%AMROUNDEDRECTD28*
21,1,0.5000,0.2500,0,0,180.0*
21,1,0.2500,0.5000,0,0,180.0*
1,1,0.2500,-0.1250,0.1250*
1,1,0.2500,0.1250,0.1250*
1,1,0.2500,0.1250,-0.1250*
1,1,0.2500,-0.1250,-0.1250*
%
%ADD28ROUNDEDRECTD28*%
G04:AMPARAMS|DCode=29|XSize=1mm|YSize=0.9mm|CornerRadius=0.225mm|HoleSize=0mm|Usage=FLASHONLY|Rotation=90.000|XOffset=0mm|YOffset=0mm|HoleType=Round|Shape=RoundedRectangle|*
%AMROUNDEDRECTD29*
21,1,1.0000,0.4500,0,0,90.0*
21,1,0.5500,0.9000,0,0,90.0*
1,1,0.4500,0.2250,0.2750*
1,1,0.4500,0.2250,-0.2750*
1,1,0.4500,-0.2250,-0.2750*
1,1,0.4500,-0.2250,0.2750*
%
%ADD29ROUNDEDRECTD29*%
G04:AMPARAMS|DCode=30|XSize=0.6mm|YSize=1mm|CornerRadius=0.15mm|HoleSize=0mm|Usage=FLASHONLY|Rotation=90.000|XOffset=0mm|YOffset=0mm|HoleType=Round|Shape=RoundedRectangle|*
%AMROUNDEDRECTD30*
21,1,0.6000,0.7000,0,0,90.0*
21,1,0.3000,1.0000,0,0,90.0*
1,1,0.3000,0.3500,0.1500*
1,1,0.3000,0.3500,-0.1500*
1,1,0.3000,-0.3500,-0.1500*
1,1,0.3000,-0.3500,0.1500*
%
%ADD30ROUNDEDRECTD30*%
G04:AMPARAMS|DCode=31|XSize=1.5mm|YSize=1.5mm|CornerRadius=0.375mm|HoleSize=0mm|Usage=FLASHONLY|Rotation=180.000|XOffset=0mm|YOffset=0mm|HoleType=Round|Shape=RoundedRectangle|*
%AMROUNDEDRECTD31*
21,1,1.5000,0.7500,0,0,180.0*
21,1,0.7500,1.5000,0,0,180.0*
1,1,0.7500,-0.3750,0.3750*
1,1,0.7500,0.3750,0.3750*
1,1,0.7500,0.3750,-0.3750*
1,1,0.7500,-0.3750,-0.3750*
%
%ADD31ROUNDEDRECTD31*%
%ADD32C,1.5000*%
%ADD33C,0.5000*%
D15*
X33000Y41750D02*
D03*
Y31750D02*
D03*
X79700Y35750D02*
D03*
Y45750D02*
D03*
X158750Y81500D02*
D03*
Y71500D02*
D03*
X124500Y81500D02*
D03*
Y71500D02*
D03*
X150250Y106250D02*
D03*
Y96250D02*
D03*
X140750Y119000D02*
D03*
Y129000D02*
D03*
X135700Y71250D02*
D03*
Y81250D02*
D03*
X147250Y71250D02*
D03*
Y81250D02*
D03*
D16*
X26000Y73500D02*
D03*
X16000D02*
D03*
X18750Y119500D02*
D03*
X28750D02*
D03*
X40000Y61000D02*
D03*
X50000D02*
D03*
X79750Y131750D02*
D03*
X69750D02*
D03*
X28804Y131650D02*
D03*
X18804D02*
D03*
X26000Y52250D02*
D03*
X16000D02*
D03*
X15700Y62750D02*
D03*
X25700D02*
D03*
X200000Y96750D02*
D03*
X210000D02*
D03*
X179750D02*
D03*
X169750D02*
D03*
X199950Y86500D02*
D03*
X209950D02*
D03*
X200000Y76500D02*
D03*
X210000D02*
D03*
X120250Y120250D02*
D03*
X110250D02*
D03*
X120200Y132000D02*
D03*
X110200D02*
D03*
X200000Y66250D02*
D03*
X210000D02*
D03*
X44250Y131750D02*
D03*
X54250D02*
D03*
D17*
X103900Y500D02*
D03*
Y48000D02*
D03*
X198600Y500D02*
D03*
Y48000D02*
D03*
D18*
X135250Y52000D02*
D03*
D19*
X151250D02*
D03*
X143250D02*
D03*
X159250D02*
D03*
X167250D02*
D03*
D20*
X24250Y-2000D02*
D03*
X161000Y112250D02*
D03*
D21*
X24250Y15000D02*
D03*
X76250Y-2000D02*
D03*
Y15000D02*
D03*
X161000Y129250D02*
D03*
X213000Y112250D02*
D03*
Y129250D02*
D03*
D22*
X51950Y80500D02*
D03*
Y75500D02*
D03*
Y85500D02*
D03*
Y95500D02*
D03*
Y90500D02*
D03*
Y105500D02*
D03*
Y110500D02*
D03*
Y100500D02*
D03*
X100950Y75500D02*
D03*
Y80500D02*
D03*
Y85500D02*
D03*
Y95500D02*
D03*
Y90500D02*
D03*
Y110500D02*
D03*
Y100500D02*
D03*
Y105500D02*
D03*
D23*
X63950Y68500D02*
D03*
X58950D02*
D03*
Y117500D02*
D03*
X68950D02*
D03*
X63950D02*
D03*
X83950Y68500D02*
D03*
X88950D02*
D03*
X68950D02*
D03*
X78950D02*
D03*
X73950D02*
D03*
X93950D02*
D03*
X88950Y117500D02*
D03*
X93950D02*
D03*
X73950D02*
D03*
X83950D02*
D03*
X78950D02*
D03*
D24*
X76450Y93000D02*
D03*
D25*
X173391Y66249D02*
D03*
X186853D02*
D03*
X173341Y76499D02*
D03*
X186803D02*
D03*
X173341Y86499D02*
D03*
X186803D02*
D03*
D26*
X15000Y28125D02*
D03*
D27*
Y39875D02*
D03*
D28*
X124900Y92578D02*
D03*
X137854D02*
D03*
X131250Y113660D02*
D03*
D29*
X18250Y87750D02*
D03*
Y106250D02*
D03*
X33750D02*
D03*
Y87750D02*
D03*
D30*
X44750Y50250D02*
D03*
X68750D02*
D03*
Y40750D02*
D03*
Y31250D02*
D03*
X44750D02*
D03*
D31*
X0Y0D02*
D03*
Y25400D02*
D03*
Y50800D02*
D03*
Y101600D02*
D03*
Y76200D02*
D03*
X228600Y0D02*
D03*
Y25400D02*
D03*
Y50800D02*
D03*
Y76200D02*
D03*
Y101600D02*
D03*
Y127000D02*
D03*
D32*
X0D02*
D03*
D33*
X95000Y127250D02*
D03*
M02*
