G04*
G04 #@! TF.GenerationSoftware,Altium Limited,Altium Designer,20.0.10 (225)*
G04*
G04 Layer_Color=16711935*
%FSLAX44Y44*%
%MOMM*%
G71*
G01*
G75*
G04:AMPARAMS|DCode=30|XSize=1.6002mm|YSize=1.6002mm|CornerRadius=0mm|HoleSize=0mm|Usage=FLASHONLY|Rotation=270.000|XOffset=0mm|YOffset=0mm|HoleType=Round|Shape=Octagon|*
%AMOCTAGOND30*
4,1,8,-0.4001,-0.8001,0.4001,-0.8001,0.8001,-0.4001,0.8001,0.4001,0.4001,0.8001,-0.4001,0.8001,-0.8001,0.4001,-0.8001,-0.4001,-0.4001,-0.8001,0.0*
%
%ADD30OCTAGOND30*%

%ADD31C,0.5000*%
D30*
X12700Y168500D02*
D03*
Y143100D02*
D03*
Y117700D02*
D03*
Y92300D02*
D03*
Y66900D02*
D03*
Y41500D02*
D03*
X317500D02*
D03*
Y66900D02*
D03*
Y92300D02*
D03*
Y117700D02*
D03*
Y143100D02*
D03*
Y168500D02*
D03*
D31*
X125000Y167000D02*
D03*
X177107Y157506D02*
D03*
X248850Y154353D02*
D03*
X101022Y141006D02*
D03*
X166554Y115998D02*
D03*
X174428Y126920D02*
D03*
X178746Y148257D02*
D03*
X209988Y65452D02*
D03*
X267646Y112697D02*
D03*
X116770Y94663D02*
D03*
X107118Y88820D02*
D03*
X159188Y107362D02*
D03*
X163760Y165902D02*
D03*
X176870Y138322D02*
D03*
X253930Y113967D02*
D03*
X226752Y132001D02*
D03*
X94418Y173657D02*
D03*
X109658Y41247D02*
D03*
X238944Y123237D02*
D03*
X210623Y188897D02*
D03*
X210242Y159686D02*
D03*
X101022Y116007D02*
D03*
X159000Y84000D02*
D03*
X183000Y87000D02*
D03*
X269000Y45000D02*
D03*
X112000Y198365D02*
D03*
X258000Y171896D02*
D03*
X157800Y57244D02*
D03*
X156800Y19000D02*
D03*
X307800Y19244D02*
D03*
X134000Y133000D02*
D03*
X45000Y129000D02*
D03*
X116304Y19543D02*
D03*
X124000Y96000D02*
D03*
X131604Y72257D02*
D03*
X152000D02*
D03*
X41000Y103000D02*
D03*
X197000Y140000D02*
D03*
X293000Y81000D02*
D03*
X81000Y83000D02*
D03*
X105000Y180000D02*
D03*
X233999Y88000D02*
D03*
X227000Y86000D02*
D03*
X56000Y110357D02*
D03*
Y155000D02*
D03*
X57000Y128251D02*
D03*
M02*
