G04*
G04 #@! TF.GenerationSoftware,Altium Limited,Altium Designer,20.0.10 (225)*
G04*
G04 Layer_Physical_Order=3*
G04 Layer_Color=36540*
%FSLAX44Y44*%
%MOMM*%
G71*
G01*
G75*
%ADD12C,0.2000*%
%ADD13C,0.1500*%
G04:AMPARAMS|DCode=31|XSize=1.5mm|YSize=1.5mm|CornerRadius=0.375mm|HoleSize=0mm|Usage=FLASHONLY|Rotation=180.000|XOffset=0mm|YOffset=0mm|HoleType=Round|Shape=RoundedRectangle|*
%AMROUNDEDRECTD31*
21,1,1.5000,0.7500,0,0,180.0*
21,1,0.7500,1.5000,0,0,180.0*
1,1,0.7500,-0.3750,0.3750*
1,1,0.7500,0.3750,0.3750*
1,1,0.7500,0.3750,-0.3750*
1,1,0.7500,-0.3750,-0.3750*
%
%ADD31ROUNDEDRECTD31*%
%ADD33C,0.5000*%
D12*
X46630Y81933D02*
X47182D01*
X47952Y82704D01*
X52697D01*
X133450Y125200D02*
X136651D01*
X159039Y79111D02*
X186936D01*
X192822Y84996D01*
X176151Y85200D02*
X181521D01*
X200450Y104129D01*
Y123700D01*
X225150Y78400D02*
Y93296D01*
X229200Y54093D02*
Y101450D01*
X211307Y36200D02*
X229200Y54093D01*
X218700Y111950D02*
X229200Y101450D01*
X219850Y73100D02*
X225150Y78400D01*
X212200Y106246D02*
X225150Y93296D01*
X212550Y73100D02*
X219850D01*
X206200Y66750D02*
X212550Y73100D01*
X206200Y44200D02*
Y66750D01*
X212200Y106246D02*
Y118200D01*
X218700Y111950D02*
Y127950D01*
X155200Y130950D02*
X160648D01*
X151700Y127450D02*
X155200Y130950D01*
X138901Y127450D02*
X151700D01*
X144700Y106832D02*
X153206Y98325D01*
X136651Y125200D02*
X138901Y127450D01*
X144700Y106832D02*
Y113450D01*
X160651Y100700D02*
X176151Y85200D01*
X158450Y100700D02*
X160651D01*
X153206Y84944D02*
Y98325D01*
X61452Y132398D02*
Y137456D01*
X63150Y130700D02*
X86950D01*
X97200Y140950D01*
X107700D01*
X153206Y84944D02*
X159039Y79111D01*
X63150Y115321D02*
Y130700D01*
X61452Y132398D02*
X63150Y130700D01*
X58162Y81668D02*
X58789D01*
X55947Y79453D02*
X58162Y81668D01*
X52697Y82704D02*
X55947Y79453D01*
X100200Y36200D02*
X211307D01*
X202740Y40740D02*
X206200Y44200D01*
X108910Y40740D02*
X202740D01*
X108450Y41200D02*
X108910Y40740D01*
X88700Y41200D02*
X108450D01*
X72700Y25200D02*
X88700Y41200D01*
X50200Y8700D02*
X53700Y12200D01*
X12700Y8700D02*
X50200D01*
X63200Y106500D02*
Y115271D01*
X55900Y99200D02*
X63200Y106500D01*
X216950Y129700D02*
X218700Y127950D01*
X206450Y129700D02*
X216950D01*
X63150Y115321D02*
X63200Y115271D01*
X200450Y123700D02*
X206450Y129700D01*
D13*
X133197Y88453D02*
X151200Y70450D01*
X128371Y88453D02*
X133197D01*
X124368Y84450D02*
X128371Y88453D01*
X120433Y84450D02*
X124368D01*
X80700Y142206D02*
X82457Y140450D01*
X51568Y142206D02*
X80700D01*
X94915Y146450D02*
X165714D01*
X146667Y118200D02*
X150236Y114632D01*
X139164D02*
X142732Y118200D01*
X139099Y114632D02*
X139164D01*
X150236D02*
X151315D01*
X123664Y120632D02*
X136679D01*
X135382Y117632D02*
X137922D01*
X152721Y120632D02*
X153801D01*
X149153Y124200D02*
X152721Y120632D01*
X140247Y124200D02*
X149153D01*
X136679Y120632D02*
X140247Y124200D01*
X151478Y117632D02*
X152558D01*
X147910Y121200D02*
X151478Y117632D01*
X141490Y121200D02*
X147910D01*
X137922Y117632D02*
X141490Y121200D01*
X142732Y118200D02*
X146667D01*
X153801Y120632D02*
X169233Y105200D01*
X152558Y117632D02*
X167990Y102200D01*
X151315Y114632D02*
X166747Y99200D01*
X176950Y102200D02*
X178950Y100200D01*
X167990Y102200D02*
X176950D01*
X182200Y113958D02*
Y123700D01*
X173443Y105200D02*
X182200Y113958D01*
X169233Y105200D02*
X173443D01*
X167975Y99200D02*
X176975Y90200D01*
X179450D01*
X166747Y99200D02*
X167975D01*
X171200Y109950D02*
X173950D01*
X143239Y95204D02*
X147174D01*
X142735Y94700D02*
X143239Y95204D01*
X125200Y94700D02*
X142735D01*
X125200D02*
X125592Y95092D01*
Y95200D01*
X147174Y95204D02*
X149957Y92421D01*
X48605Y133745D02*
X54400Y127950D01*
X82457Y140450D02*
X88914D01*
X94915Y146450D01*
X48605Y139243D02*
X51568Y142206D01*
X165714Y146450D02*
X178700Y133464D01*
X48605Y136700D02*
Y139243D01*
Y136700D02*
Y139855D01*
X50627Y141877D01*
Y145350D01*
X54200Y40450D02*
X61950D01*
X12700Y64500D02*
X30150D01*
X54200Y40450D01*
X124417Y99950D02*
X139099Y114632D01*
X132955Y115205D02*
X135382Y117632D01*
X120205Y117173D02*
X123664Y120632D01*
X69674Y79200D02*
Y87950D01*
X56150Y88650D02*
X58703Y91204D01*
X66420D02*
X69674Y87950D01*
X58703Y91204D02*
X66420D01*
X56150Y88647D02*
Y88650D01*
X72447Y63703D02*
X92172D01*
X95204Y66735D01*
X86704Y70703D02*
X88704Y68703D01*
X95204Y67207D02*
X113197Y85200D01*
X95204Y66735D02*
Y67207D01*
X88704Y68703D02*
X90454D01*
X149200Y87730D02*
X149957Y88486D01*
X149200Y76700D02*
Y87730D01*
X149957Y88486D02*
Y92421D01*
X120205Y106945D02*
X122450Y104700D01*
X123625Y99950D02*
X124417D01*
X113412Y89738D02*
X123625Y99950D01*
X119683Y85200D02*
X120433Y84450D01*
X113197Y85200D02*
X119683D01*
X110471Y47968D02*
X125955Y63453D01*
Y78953D01*
X149200Y76700D02*
X150450Y75450D01*
X151200Y70450D02*
X190200D01*
X191700Y58950D02*
X202450Y69700D01*
X94738Y89738D02*
X113412D01*
X86704Y81704D02*
X94738Y89738D01*
X86704Y70703D02*
Y81704D01*
X67700Y77226D02*
X69674Y79200D01*
X67700Y68450D02*
Y77226D01*
Y68450D02*
X72447Y63703D01*
X86218Y47968D02*
X110471D01*
X150450Y75450D02*
X200950D01*
X178700Y114700D02*
Y133464D01*
X173950Y109950D02*
X178700Y114700D01*
X48605Y133745D02*
Y136700D01*
X120205Y106945D02*
Y117173D01*
X124956Y115205D02*
X132955D01*
X200950Y75450D02*
X202450Y73950D01*
Y69700D02*
Y73950D01*
X78700Y40450D02*
X86218Y47968D01*
X61950Y40450D02*
X71700D01*
X78700D01*
X70453Y57453D02*
X70615D01*
X61950Y40450D02*
Y54950D01*
X64452Y57453D01*
X70453D01*
X190040Y125360D02*
X194700Y120700D01*
X183860Y125360D02*
X190040D01*
X182200Y123700D02*
X183860Y125360D01*
D31*
X12700Y13700D02*
D03*
Y64500D02*
D03*
D33*
X46630Y81933D02*
D03*
X133450Y125450D02*
D03*
X192822Y84996D02*
D03*
X160648Y130950D02*
D03*
X144700Y113450D02*
D03*
X178950Y100200D02*
D03*
X158450Y100700D02*
D03*
X171200Y109950D02*
D03*
X54400Y127950D02*
D03*
X61452Y137456D02*
D03*
X50627Y145350D02*
D03*
X107700Y140950D02*
D03*
X58789Y81668D02*
D03*
X56150Y88647D02*
D03*
X90454Y68703D02*
D03*
X100200Y36200D02*
D03*
X125592Y95200D02*
D03*
X122450Y104700D02*
D03*
X125955Y78953D02*
D03*
X179450Y90200D02*
D03*
X124956Y115205D02*
D03*
X191700Y58950D02*
D03*
X53700Y12200D02*
D03*
X190200Y70450D02*
D03*
X72700Y25200D02*
D03*
X55900Y99200D02*
D03*
X210950Y119287D02*
D03*
X71700Y40450D02*
D03*
X70453Y57453D02*
D03*
X194700Y120700D02*
D03*
M02*
