G04 Layer_Color=8421504*
%FSLAX44Y44*%
%MOMM*%
G71*
G01*
G75*
%ADD10R,1.0000X1.0000*%
%ADD11R,0.6000X0.8000*%
%ADD12R,0.8000X0.6000*%
%ADD13R,0.5000X0.5000*%
%ADD14R,3.4000X3.4000*%
G04:AMPARAMS|DCode=15|XSize=0.3mm|YSize=0.7mm|CornerRadius=0.075mm|HoleSize=0mm|Usage=FLASHONLY|Rotation=0.000|XOffset=0mm|YOffset=0mm|HoleType=Round|Shape=RoundedRectangle|*
%AMROUNDEDRECTD15*
21,1,0.3000,0.5500,0,0,0.0*
21,1,0.1500,0.7000,0,0,0.0*
1,1,0.1500,0.0750,-0.2750*
1,1,0.1500,-0.0750,-0.2750*
1,1,0.1500,-0.0750,0.2750*
1,1,0.1500,0.0750,0.2750*
%
%ADD15ROUNDEDRECTD15*%
G04:AMPARAMS|DCode=16|XSize=0.3mm|YSize=0.7mm|CornerRadius=0.075mm|HoleSize=0mm|Usage=FLASHONLY|Rotation=270.000|XOffset=0mm|YOffset=0mm|HoleType=Round|Shape=RoundedRectangle|*
%AMROUNDEDRECTD16*
21,1,0.3000,0.5500,0,0,270.0*
21,1,0.1500,0.7000,0,0,270.0*
1,1,0.1500,-0.2750,-0.0750*
1,1,0.1500,-0.2750,0.0750*
1,1,0.1500,0.2750,0.0750*
1,1,0.1500,0.2750,-0.0750*
%
%ADD16ROUNDEDRECTD16*%
%ADD17R,0.9000X1.0000*%
%ADD18R,1.0000X0.6000*%
%ADD19R,3.0000X3.0000*%
%ADD20R,0.5000X1.7000*%
D10*
X210950Y118500D02*
D03*
Y135500D02*
D03*
X158950Y118500D02*
D03*
Y135500D02*
D03*
X73200Y1500D02*
D03*
Y18500D02*
D03*
X21200Y1500D02*
D03*
Y18500D02*
D03*
D11*
X186804Y91500D02*
D03*
X173342D02*
D03*
X30408Y136650D02*
D03*
X16946D02*
D03*
X76304D02*
D03*
X62842D02*
D03*
X37596Y63000D02*
D03*
X51058D02*
D03*
X17346Y126500D02*
D03*
X30808D02*
D03*
X32304Y78500D02*
D03*
X18842D02*
D03*
X175342Y71500D02*
D03*
X188804D02*
D03*
X52662Y136650D02*
D03*
X39200D02*
D03*
X211962Y71500D02*
D03*
X198500D02*
D03*
X108342Y135000D02*
D03*
X121804D02*
D03*
X108342Y125500D02*
D03*
X121804D02*
D03*
X186804Y81500D02*
D03*
X173342D02*
D03*
X211912Y81500D02*
D03*
X198450D02*
D03*
X211808Y91500D02*
D03*
X198346D02*
D03*
X27558Y67750D02*
D03*
X14096D02*
D03*
X13842Y57250D02*
D03*
X27304D02*
D03*
X167842Y101250D02*
D03*
X181304D02*
D03*
X206308D02*
D03*
X192846D02*
D03*
D12*
X137700Y88108D02*
D03*
Y74646D02*
D03*
X127450Y88104D02*
D03*
Y74642D02*
D03*
X158200Y88104D02*
D03*
Y74642D02*
D03*
X148200Y88108D02*
D03*
Y74646D02*
D03*
X154098Y95529D02*
D03*
Y108991D02*
D03*
X79700Y39146D02*
D03*
Y52608D02*
D03*
X33200Y46104D02*
D03*
Y32642D02*
D03*
X17450Y45354D02*
D03*
Y31892D02*
D03*
D13*
X132450Y117160D02*
D03*
X126100Y96078D02*
D03*
X139054D02*
D03*
D14*
X76450Y98000D02*
D03*
D15*
X58950Y122500D02*
D03*
X63950D02*
D03*
X68950D02*
D03*
X73950D02*
D03*
X78950D02*
D03*
X83950D02*
D03*
X88950D02*
D03*
X93950D02*
D03*
Y73500D02*
D03*
X88950D02*
D03*
X83950D02*
D03*
X78950D02*
D03*
X73950D02*
D03*
X68950D02*
D03*
X63950D02*
D03*
X58950D02*
D03*
D16*
X100950Y115500D02*
D03*
Y110500D02*
D03*
Y105500D02*
D03*
Y100500D02*
D03*
Y95500D02*
D03*
Y90500D02*
D03*
Y85500D02*
D03*
Y80500D02*
D03*
X51950D02*
D03*
Y85500D02*
D03*
Y90500D02*
D03*
Y95500D02*
D03*
Y100500D02*
D03*
Y105500D02*
D03*
Y110500D02*
D03*
Y115500D02*
D03*
D17*
X18700Y91800D02*
D03*
Y110300D02*
D03*
X34200D02*
D03*
Y91800D02*
D03*
D18*
X44700Y34500D02*
D03*
X68700D02*
D03*
Y44000D02*
D03*
Y53500D02*
D03*
X44700D02*
D03*
D19*
X105250Y12000D02*
D03*
X200000D02*
D03*
Y47500D02*
D03*
X105500D02*
D03*
D20*
X136000Y59250D02*
D03*
X144000D02*
D03*
X152000D02*
D03*
X160000D02*
D03*
X168000D02*
D03*
M02*
