G04 Layer_Physical_Order=2*
G04 Layer_Color=32768*
%FSLAX44Y44*%
%MOMM*%
G71*
G01*
G75*
%ADD26C,1.0160*%
%ADD27C,1.6000*%
%ADD28C,0.8000*%
D26*
X0Y-7700D02*
Y144750D01*
X228600D01*
Y-7700D02*
Y144750D01*
X0Y-7700D02*
X228600D01*
D27*
Y132000D02*
D03*
Y106600D02*
D03*
Y81200D02*
D03*
Y55800D02*
D03*
Y30400D02*
D03*
Y5000D02*
D03*
X0D02*
D03*
Y30400D02*
D03*
Y55800D02*
D03*
Y81200D02*
D03*
Y106600D02*
D03*
Y132000D02*
D03*
D28*
X87417Y65573D02*
D03*
X62253Y61253D02*
D03*
X67753Y66253D02*
D03*
X58253Y66753D02*
D03*
X51750Y72750D02*
D03*
X43250Y79750D02*
D03*
X77254Y66503D02*
D03*
X103445Y70538D02*
D03*
X109700Y80500D02*
D03*
X77254Y60003D02*
D03*
X57753Y48752D02*
D03*
X59000Y31750D02*
D03*
X37752Y71003D02*
D03*
X113515Y66500D02*
D03*
X44058Y63828D02*
D03*
X145962Y97357D02*
D03*
X25526Y27622D02*
D03*
X80555Y26805D02*
D03*
X205729Y71472D02*
D03*
X213575Y108175D02*
D03*
X198250Y110587D02*
D03*
X174573Y107176D02*
D03*
X128756Y126660D02*
D03*
X82560Y130248D02*
D03*
X120750Y116750D02*
D03*
X48752Y128756D02*
D03*
X41700Y119250D02*
D03*
X41752Y128506D02*
D03*
X55450Y128500D02*
D03*
X63503Y128506D02*
D03*
X89000Y133000D02*
D03*
X96505Y133006D02*
D03*
X44502Y105255D02*
D03*
X132507Y81754D02*
D03*
X43200Y90500D02*
D03*
X133950Y101182D02*
D03*
X20501Y67503D02*
D03*
X135257Y129756D02*
D03*
X112562Y106954D02*
D03*
X60000Y16500D02*
D03*
X166258Y96755D02*
D03*
Y86504D02*
D03*
X177500Y61750D02*
D03*
M02*
