G04 Layer_Color=9279142*
%FSLAX44Y44*%
%MOMM*%
G71*
G01*
G75*
%ADD22C,0.1500*%
%ADD29C,0.2500*%
G36*
X117781Y74012D02*
X107383D01*
Y104288D01*
X117781D01*
Y74012D01*
D02*
G37*
G36*
X55876Y118574D02*
X48773D01*
X48774Y125677D01*
X55876Y125950D01*
Y118574D01*
D02*
G37*
%LPC*%
G36*
X112776Y89834D02*
X112647D01*
X112323Y89825D01*
X112037Y89797D01*
X111898Y89788D01*
X111778Y89769D01*
X111657Y89751D01*
X111556Y89733D01*
X111463Y89705D01*
X111380Y89686D01*
X111306Y89668D01*
X111251Y89658D01*
X111204Y89640D01*
X111167Y89631D01*
X111149Y89621D01*
X111140D01*
X110918Y89538D01*
X110714Y89437D01*
X110539Y89335D01*
X110391Y89233D01*
X110271Y89150D01*
X110178Y89076D01*
X110123Y89030D01*
X110104Y89021D01*
Y89011D01*
X109956Y88854D01*
X109836Y88697D01*
X109734Y88531D01*
X109651Y88383D01*
X109586Y88253D01*
X109540Y88142D01*
X109531Y88105D01*
X109522Y88077D01*
X109513Y88059D01*
Y88050D01*
X109466Y87874D01*
X109438Y87680D01*
X109411Y87477D01*
X109402Y87282D01*
X109392Y87107D01*
X109383Y87033D01*
Y86959D01*
Y86903D01*
Y86866D01*
Y86839D01*
Y86829D01*
Y84481D01*
X115781D01*
Y86903D01*
X115772Y87153D01*
X115763Y87384D01*
X115744Y87578D01*
X115716Y87735D01*
X115688Y87865D01*
X115670Y87966D01*
X115661Y87994D01*
Y88022D01*
X115652Y88031D01*
Y88041D01*
X115578Y88244D01*
X115494Y88429D01*
X115411Y88577D01*
X115328Y88706D01*
X115254Y88808D01*
X115198Y88882D01*
X115162Y88928D01*
X115143Y88947D01*
X114967Y89104D01*
X114782Y89242D01*
X114588Y89363D01*
X114413Y89455D01*
X114246Y89529D01*
X114181Y89566D01*
X114126Y89585D01*
X114071Y89603D01*
X114034Y89621D01*
X114015Y89631D01*
X114006D01*
X113784Y89696D01*
X113553Y89751D01*
X113331Y89788D01*
X113118Y89806D01*
X113017Y89816D01*
X112924Y89825D01*
X112850D01*
X112776Y89834D01*
D02*
G37*
G36*
X114071Y83760D02*
X112841D01*
Y81347D01*
X114071D01*
Y83760D01*
D02*
G37*
G36*
X115781Y80246D02*
X112711D01*
X112554Y80237D01*
X112406Y80228D01*
X112295Y80210D01*
X112203Y80200D01*
X112138Y80182D01*
X112092Y80173D01*
X112083D01*
X111972Y80145D01*
X111879Y80108D01*
X111787Y80071D01*
X111713Y80025D01*
X111648Y79988D01*
X111602Y79960D01*
X111574Y79941D01*
X111565Y79932D01*
X111482Y79858D01*
X111408Y79775D01*
X111343Y79692D01*
X111288Y79608D01*
X111241Y79535D01*
X111214Y79470D01*
X111195Y79433D01*
X111186Y79414D01*
X111140Y79285D01*
X111103Y79156D01*
X111075Y79035D01*
X111056Y78924D01*
X111047Y78823D01*
X111038Y78739D01*
Y78693D01*
Y78684D01*
Y78675D01*
X111047Y78508D01*
X111075Y78342D01*
X111112Y78194D01*
X111158Y78046D01*
X111223Y77907D01*
X111288Y77787D01*
X111362Y77667D01*
X111426Y77565D01*
X111500Y77473D01*
X111574Y77390D01*
X111639Y77316D01*
X111704Y77260D01*
X111750Y77214D01*
X111787Y77177D01*
X111815Y77158D01*
X111824Y77149D01*
X111140D01*
Y76012D01*
X115781D01*
Y77242D01*
X113423D01*
X113303Y77251D01*
X113202Y77260D01*
X113100D01*
X113017Y77269D01*
X112933Y77279D01*
X112869Y77288D01*
X112758Y77306D01*
X112684Y77316D01*
X112638Y77334D01*
X112628D01*
X112527Y77371D01*
X112425Y77427D01*
X112351Y77482D01*
X112277Y77537D01*
X112231Y77593D01*
X112184Y77639D01*
X112166Y77667D01*
X112157Y77676D01*
X112101Y77778D01*
X112055Y77880D01*
X112027Y77972D01*
X112000Y78064D01*
X111990Y78138D01*
X111981Y78194D01*
Y78240D01*
Y78249D01*
X111990Y78342D01*
X112000Y78425D01*
X112018Y78490D01*
X112046Y78555D01*
X112073Y78610D01*
X112092Y78647D01*
X112101Y78665D01*
X112111Y78675D01*
X112157Y78739D01*
X112212Y78786D01*
X112323Y78869D01*
X112379Y78897D01*
X112416Y78915D01*
X112443Y78934D01*
X112453D01*
X112499Y78952D01*
X112554Y78961D01*
X112693Y78980D01*
X112859Y78998D01*
X113017Y79008D01*
X113174Y79017D01*
X115781D01*
Y80246D01*
D02*
G37*
G36*
X111454Y102288D02*
X111352D01*
X111084Y102269D01*
X110835Y102233D01*
X110631Y102168D01*
X110446Y102103D01*
X110372Y102066D01*
X110308Y102029D01*
X110252Y102001D01*
X110197Y101964D01*
X110160Y101946D01*
X110132Y101927D01*
X110123Y101909D01*
X110113D01*
X109947Y101761D01*
X109808Y101613D01*
X109697Y101456D01*
X109614Y101317D01*
X109559Y101188D01*
X109513Y101086D01*
X109503Y101049D01*
X109494Y101021D01*
X109485Y101003D01*
Y100994D01*
X109466Y100920D01*
X109448Y100827D01*
X109438Y100716D01*
X109429Y100605D01*
X109411Y100346D01*
X109392Y100087D01*
Y99967D01*
Y99847D01*
X109383Y99745D01*
Y99644D01*
Y99570D01*
Y99514D01*
Y99468D01*
Y99459D01*
Y97388D01*
X115781D01*
Y98682D01*
X113368D01*
Y99523D01*
Y99681D01*
Y99829D01*
X113359Y99967D01*
Y100097D01*
X113349Y100217D01*
X113340Y100328D01*
X113331Y100430D01*
X113322Y100513D01*
Y100596D01*
X113312Y100661D01*
X113303Y100725D01*
X113294Y100772D01*
Y100809D01*
X113285Y100836D01*
Y100846D01*
Y100855D01*
X113248Y100984D01*
X113202Y101104D01*
X113155Y101215D01*
X113100Y101317D01*
X113054Y101400D01*
X113017Y101465D01*
X112989Y101502D01*
X112980Y101521D01*
X112887Y101641D01*
X112785Y101742D01*
X112675Y101844D01*
X112582Y101918D01*
X112490Y101983D01*
X112416Y102029D01*
X112369Y102057D01*
X112351Y102066D01*
X112194Y102140D01*
X112027Y102196D01*
X111852Y102233D01*
X111694Y102260D01*
X111565Y102279D01*
X111500D01*
X111454Y102288D01*
D02*
G37*
G36*
X115781Y96694D02*
X109383Y94124D01*
Y92756D01*
X115781Y90278D01*
Y91646D01*
X114329Y92173D01*
Y94744D01*
X115781Y95298D01*
Y96694D01*
D02*
G37*
%LPD*%
G36*
X111482Y100947D02*
X111574Y100938D01*
X111657Y100910D01*
X111731Y100883D01*
X111796Y100855D01*
X111842Y100836D01*
X111870Y100818D01*
X111879Y100809D01*
X111953Y100753D01*
X112018Y100679D01*
X112073Y100615D01*
X112120Y100550D01*
X112148Y100494D01*
X112175Y100448D01*
X112184Y100411D01*
X112194Y100402D01*
X112212Y100346D01*
X112221Y100282D01*
X112249Y100134D01*
X112268Y99967D01*
X112277Y99801D01*
Y99635D01*
X112286Y99570D01*
Y99505D01*
Y99459D01*
Y99422D01*
Y99394D01*
Y99385D01*
Y98682D01*
X110465D01*
Y99302D01*
Y99431D01*
Y99542D01*
Y99644D01*
X110474Y99736D01*
Y99819D01*
X110483Y99903D01*
Y100023D01*
X110492Y100115D01*
X110502Y100180D01*
X110511Y100217D01*
Y100226D01*
X110539Y100337D01*
X110576Y100439D01*
X110622Y100531D01*
X110677Y100605D01*
X110724Y100661D01*
X110761Y100707D01*
X110788Y100735D01*
X110798Y100744D01*
X110890Y100818D01*
X110983Y100864D01*
X111084Y100901D01*
X111177Y100929D01*
X111260Y100947D01*
X111325Y100957D01*
X111380D01*
X111482Y100947D01*
D02*
G37*
G36*
X112850Y88493D02*
X113090Y88484D01*
X113285Y88457D01*
X113451Y88438D01*
X113590Y88410D01*
X113645Y88401D01*
X113682Y88383D01*
X113719Y88373D01*
X113747D01*
X113756Y88364D01*
X113765D01*
X113913Y88309D01*
X114043Y88262D01*
X114144Y88198D01*
X114228Y88152D01*
X114292Y88105D01*
X114339Y88068D01*
X114366Y88041D01*
X114376Y88031D01*
X114440Y87948D01*
X114496Y87865D01*
X114542Y87782D01*
X114579Y87698D01*
X114607Y87625D01*
X114625Y87569D01*
X114644Y87532D01*
Y87514D01*
X114662Y87412D01*
X114671Y87292D01*
X114690Y87162D01*
Y87033D01*
X114699Y86913D01*
Y86820D01*
Y86783D01*
Y86755D01*
Y86737D01*
Y86728D01*
Y85775D01*
X110465D01*
Y86349D01*
Y86487D01*
Y86617D01*
X110474Y86737D01*
Y86848D01*
X110483Y86940D01*
Y87023D01*
X110492Y87107D01*
Y87171D01*
X110511Y87273D01*
X110520Y87347D01*
X110529Y87393D01*
Y87403D01*
X110567Y87532D01*
X110613Y87643D01*
X110659Y87745D01*
X110714Y87837D01*
X110761Y87902D01*
X110798Y87957D01*
X110825Y87985D01*
X110835Y87994D01*
X110927Y88077D01*
X111029Y88152D01*
X111131Y88216D01*
X111223Y88272D01*
X111315Y88309D01*
X111389Y88336D01*
X111436Y88355D01*
X111445Y88364D01*
X111454D01*
X111621Y88410D01*
X111796Y88447D01*
X111990Y88466D01*
X112175Y88484D01*
X112332Y88493D01*
X112406Y88503D01*
X112591D01*
X112850Y88493D01*
D02*
G37*
G36*
X113248Y92562D02*
X110872Y93431D01*
X113248Y94327D01*
Y92562D01*
D02*
G37*
D22*
X11200Y37000D02*
X23900D01*
X11100Y50688D02*
X23950D01*
X11100Y26558D02*
Y50688D01*
Y26558D02*
X23950D01*
Y50688D01*
X145148Y124332D02*
X144148Y123332D01*
Y121333D01*
X145148Y120333D01*
X146147D01*
X147147Y121333D01*
Y123332D01*
X148147Y124332D01*
X149146D01*
X150146Y123332D01*
Y121333D01*
X149146Y120333D01*
X144148Y126331D02*
X150146D01*
X148147Y128330D01*
X150146Y130330D01*
X144148D01*
X150146Y135328D02*
X144148D01*
X147147Y132329D01*
Y136328D01*
D29*
X59982Y34622D02*
G03*
X59982Y34622I-1250J0D01*
G01*
X178700Y87500D02*
Y95500D01*
X180700Y67500D02*
Y75500D01*
X178700Y77500D02*
Y85500D01*
M02*
