G04*
G04 #@! TF.GenerationSoftware,Altium Limited,Altium Designer,20.0.10 (225)*
G04*
G04 Layer_Color=15790320*
%FSLAX44Y44*%
%MOMM*%
G71*
G01*
G75*
%ADD10C,0.2540*%
%ADD11C,0.2500*%
%ADD12C,0.2000*%
%ADD13C,0.1500*%
%ADD14R,0.8000X0.2750*%
G36*
X68576Y134650D02*
Y127274D01*
X61473D01*
X61474Y134377D01*
X68576Y134650D01*
D02*
G37*
G36*
X134950Y58200D02*
Y73200D01*
X142950Y65200D01*
Y65200D01*
X134950Y58200D01*
D02*
G37*
G36*
X180700Y75700D02*
X177950D01*
Y84200D01*
X180700D01*
Y75700D01*
D02*
G37*
G36*
X180650Y85950D02*
X177900D01*
Y94450D01*
X180650D01*
Y85950D01*
D02*
G37*
G36*
Y95950D02*
X177900D01*
Y104450D01*
X180650D01*
Y95950D01*
D02*
G37*
G36*
X131950Y80200D02*
X119353D01*
Y122614D01*
X131950D01*
Y80200D01*
D02*
G37*
%LPC*%
G36*
X123960Y121114D02*
X123807D01*
X123405Y121086D01*
X123030Y121031D01*
X122725Y120934D01*
X122448Y120837D01*
X122337Y120781D01*
X122240Y120726D01*
X122157Y120684D01*
X122073Y120629D01*
X122018Y120601D01*
X121976Y120573D01*
X121962Y120546D01*
X121949D01*
X121699Y120324D01*
X121491Y120102D01*
X121325Y119866D01*
X121200Y119658D01*
X121117Y119464D01*
X121047Y119311D01*
X121033Y119256D01*
X121019Y119214D01*
X121006Y119186D01*
Y119172D01*
X120978Y119062D01*
X120950Y118923D01*
X120936Y118757D01*
X120922Y118590D01*
X120895Y118202D01*
X120867Y117813D01*
Y117453D01*
X120853Y117300D01*
Y121114D01*
D01*
Y113764D01*
X130450D01*
Y115705D01*
X126830D01*
Y117425D01*
X126817Y117633D01*
Y117827D01*
X126803Y118008D01*
X126789Y118174D01*
X126775Y118327D01*
X126761Y118451D01*
Y118576D01*
X126747Y118673D01*
X126733Y118770D01*
X126719Y118840D01*
Y118895D01*
X126706Y118937D01*
Y118965D01*
X126650Y119159D01*
X126581Y119339D01*
X126511Y119505D01*
X126428Y119658D01*
X126359Y119783D01*
X126303Y119880D01*
X126262Y119935D01*
X126248Y119963D01*
X126109Y120143D01*
X125957Y120296D01*
X125790Y120448D01*
X125652Y120559D01*
X125513Y120656D01*
X125402Y120726D01*
X125333Y120767D01*
X125305Y120781D01*
X125069Y120892D01*
X124819Y120975D01*
X124556Y121031D01*
X124320Y121073D01*
X124126Y121100D01*
X124029D01*
X123960Y121114D01*
D02*
G37*
G36*
X130450Y112724D02*
X120853Y108868D01*
Y103099D01*
Y106816D01*
X130450Y103099D01*
Y105152D01*
X128273Y105942D01*
Y109797D01*
X130450Y110630D01*
Y112724D01*
D02*
G37*
G36*
Y102433D02*
X120853D01*
Y94403D01*
X130450D01*
Y98037D01*
X130436Y98412D01*
X130422Y98758D01*
X130394Y99050D01*
X130353Y99285D01*
X130311Y99479D01*
X130284Y99632D01*
X130270Y99674D01*
Y99715D01*
X130256Y99729D01*
Y99743D01*
X130145Y100048D01*
X130020Y100325D01*
X129895Y100547D01*
X129770Y100741D01*
X129660Y100894D01*
X129576Y101005D01*
X129521Y101074D01*
X129493Y101102D01*
X129230Y101338D01*
X128952Y101546D01*
X128661Y101726D01*
X128398Y101865D01*
X128148Y101976D01*
X128051Y102031D01*
X127968Y102059D01*
X127884Y102087D01*
X127829Y102114D01*
X127801Y102128D01*
X127787D01*
X127454Y102225D01*
X127108Y102309D01*
X126775Y102364D01*
X126456Y102392D01*
X126303Y102406D01*
X126165Y102420D01*
X126054D01*
X125943Y102433D01*
X130450D01*
D02*
G37*
G36*
X127884Y93322D02*
X126040D01*
Y89702D01*
X127884D01*
Y93322D01*
D02*
G37*
G36*
X130450Y88052D02*
X125846D01*
X125610Y88038D01*
X125388Y88024D01*
X125222Y87996D01*
X125083Y87983D01*
X124986Y87955D01*
X124916Y87941D01*
X124903D01*
X124736Y87899D01*
X124598Y87844D01*
X124459Y87788D01*
X124348Y87719D01*
X124251Y87663D01*
X124181Y87622D01*
X124140Y87594D01*
X124126Y87580D01*
X124001Y87469D01*
X123890Y87345D01*
X123793Y87220D01*
X123710Y87095D01*
X123641Y86984D01*
X123599Y86887D01*
X123571Y86831D01*
X123557Y86804D01*
X123488Y86609D01*
X123433Y86415D01*
X123391Y86235D01*
X123363Y86069D01*
X123349Y85916D01*
X123336Y85791D01*
Y88052D01*
D01*
Y81700D01*
D01*
Y85694D01*
X123349Y85445D01*
X123391Y85195D01*
X123447Y84973D01*
X123516Y84751D01*
X123613Y84543D01*
X123710Y84363D01*
X123821Y84183D01*
X123918Y84030D01*
X124029Y83891D01*
X124140Y83766D01*
X124237Y83656D01*
X124334Y83572D01*
X124403Y83503D01*
X124459Y83448D01*
X124501Y83420D01*
X124514Y83406D01*
X123488D01*
Y81700D01*
X123336D01*
X130450D01*
Y83545D01*
X127316D01*
X127108D01*
X126914D01*
X126733Y83559D01*
X126581Y83572D01*
X126428D01*
X126303Y83586D01*
X126179Y83600D01*
X126081Y83614D01*
X125915Y83642D01*
X125804Y83656D01*
X125735Y83683D01*
X125721D01*
X125568Y83739D01*
X125416Y83822D01*
X125305Y83905D01*
X125194Y83988D01*
X125125Y84072D01*
X125055Y84141D01*
X125028Y84183D01*
X125014Y84196D01*
X124930Y84349D01*
X124861Y84501D01*
X124819Y84640D01*
X124778Y84779D01*
X124764Y84890D01*
X124750Y84973D01*
Y85056D01*
X124764Y85195D01*
X124778Y85320D01*
X124806Y85417D01*
X124847Y85514D01*
X124889Y85597D01*
X124916Y85653D01*
X124930Y85680D01*
X124944Y85694D01*
X125014Y85791D01*
X125097Y85861D01*
X125263Y85985D01*
X125346Y86027D01*
X125402Y86055D01*
X125443Y86082D01*
X125457D01*
X125527Y86110D01*
X125610Y86124D01*
X125818Y86152D01*
X126068Y86180D01*
X126303Y86194D01*
X126539Y86207D01*
X126636D01*
X126733D01*
X126803D01*
X126858D01*
X126900D01*
X126914D01*
X130450D01*
Y88052D01*
D02*
G37*
%LPD*%
G36*
X124001Y119103D02*
X124140Y119089D01*
X124265Y119048D01*
X124376Y119006D01*
X124473Y118965D01*
X124542Y118937D01*
X124584Y118909D01*
X124598Y118895D01*
X124708Y118812D01*
X124806Y118701D01*
X124889Y118604D01*
X124958Y118507D01*
X125000Y118424D01*
X125041Y118354D01*
X125055Y118299D01*
X125069Y118285D01*
X125097Y118202D01*
X125111Y118105D01*
X125152Y117883D01*
X125180Y117633D01*
X125194Y117383D01*
Y117134D01*
X125208Y117037D01*
Y115705D01*
X122476D01*
Y117148D01*
X122490Y117286D01*
Y117411D01*
X122503Y117536D01*
Y117716D01*
X122517Y117855D01*
X122531Y117952D01*
X122545Y118008D01*
Y118021D01*
X122587Y118188D01*
X122642Y118340D01*
X122711Y118479D01*
X122795Y118590D01*
X122864Y118673D01*
X122920Y118743D01*
X122961Y118784D01*
X122975Y118798D01*
X123114Y118909D01*
X123252Y118978D01*
X123405Y119034D01*
X123544Y119075D01*
X123668Y119103D01*
X123765Y119117D01*
X123821D01*
X123849D01*
X124001Y119103D01*
D02*
G37*
G36*
X126650Y106524D02*
X123086Y107828D01*
X126650Y109173D01*
Y106524D01*
D02*
G37*
G36*
X125263Y102420D02*
X124833Y102378D01*
X124625Y102364D01*
X124445Y102336D01*
X124265Y102309D01*
X124112Y102281D01*
X123974Y102239D01*
X123849Y102212D01*
X123738Y102184D01*
X123654Y102170D01*
X123585Y102142D01*
X123530Y102128D01*
X123502Y102114D01*
X123488D01*
X123155Y101990D01*
X122850Y101837D01*
X122587Y101685D01*
X122365Y101532D01*
X122184Y101407D01*
X122046Y101296D01*
X121962Y101227D01*
X121935Y101213D01*
Y101199D01*
X121713Y100963D01*
X121533Y100728D01*
X121380Y100478D01*
X121255Y100256D01*
X121158Y100062D01*
X121089Y99895D01*
X121075Y99840D01*
X121061Y99798D01*
X121047Y99771D01*
Y99757D01*
X120978Y99493D01*
X120936Y99202D01*
X120895Y98897D01*
X120881Y98606D01*
X120867Y98342D01*
X120853Y98231D01*
Y102433D01*
X125749D01*
X125263Y102420D01*
D02*
G37*
G36*
X126054Y100422D02*
X126414Y100409D01*
X126706Y100367D01*
X126955Y100339D01*
X127163Y100298D01*
X127246Y100284D01*
X127302Y100256D01*
X127357Y100242D01*
X127399D01*
X127413Y100228D01*
X127427D01*
X127649Y100145D01*
X127843Y100076D01*
X127995Y99979D01*
X128120Y99909D01*
X128217Y99840D01*
X128287Y99784D01*
X128328Y99743D01*
X128342Y99729D01*
X128439Y99604D01*
X128522Y99479D01*
X128592Y99355D01*
X128647Y99230D01*
X128689Y99119D01*
X128716Y99036D01*
X128744Y98980D01*
Y98952D01*
X128772Y98800D01*
X128786Y98619D01*
X128813Y98425D01*
Y98231D01*
X128827Y98051D01*
Y96345D01*
X122476D01*
Y97607D01*
X122490Y97787D01*
Y97954D01*
X122503Y98092D01*
Y98217D01*
X122517Y98342D01*
Y98439D01*
X122545Y98592D01*
X122559Y98703D01*
X122573Y98772D01*
Y98786D01*
X122628Y98980D01*
X122698Y99146D01*
X122767Y99299D01*
X122850Y99438D01*
X122920Y99535D01*
X122975Y99618D01*
X123017Y99660D01*
X123030Y99674D01*
X123169Y99798D01*
X123322Y99909D01*
X123474Y100006D01*
X123613Y100090D01*
X123752Y100145D01*
X123862Y100187D01*
X123932Y100214D01*
X123946Y100228D01*
X123960D01*
X124209Y100298D01*
X124473Y100353D01*
X124764Y100381D01*
X125041Y100409D01*
X125277Y100422D01*
X125388Y100436D01*
X125485D01*
X125555D01*
X125610D01*
X125652D01*
X125665D01*
X126054Y100422D01*
D02*
G37*
D10*
X52459Y11700D02*
G03*
X52459Y11700I-3509J0D01*
G01*
X189209Y125950D02*
G03*
X189209Y125950I-3509J0D01*
G01*
D11*
X72732Y45072D02*
G03*
X72732Y45072I-1250J0D01*
G01*
X0Y1250D02*
Y153700D01*
X20450D01*
X115200Y-18550D02*
X214200D01*
X115200D02*
Y450D01*
X214200Y-18550D02*
Y700D01*
X254000Y1250D02*
Y153700D01*
X229200D02*
X254000D01*
D12*
X0Y1000D02*
X254000D01*
D13*
X39200Y97450D02*
Y109450D01*
X49950D01*
D14*
X27700Y35325D02*
D03*
M02*
