G04*
G04 #@! TF.GenerationSoftware,Altium Limited,Altium Designer,20.0.10 (225)*
G04*
G04 Layer_Physical_Order=1*
G04 Layer_Color=255*
%FSLAX44Y44*%
%MOMM*%
G71*
G01*
G75*
%ADD11C,0.2500*%
%ADD12C,0.2000*%
%ADD13C,0.1500*%
G04:AMPARAMS|DCode=15|XSize=3mm|YSize=2mm|CornerRadius=0.5mm|HoleSize=0mm|Usage=FLASHONLY|Rotation=0.000|XOffset=0mm|YOffset=0mm|HoleType=Round|Shape=RoundedRectangle|*
%AMROUNDEDRECTD15*
21,1,3.0000,1.0000,0,0,0.0*
21,1,2.0000,2.0000,0,0,0.0*
1,1,1.0000,1.0000,-0.5000*
1,1,1.0000,-1.0000,-0.5000*
1,1,1.0000,-1.0000,0.5000*
1,1,1.0000,1.0000,0.5000*
%
%ADD15ROUNDEDRECTD15*%
G04:AMPARAMS|DCode=16|XSize=0.5mm|YSize=1.7mm|CornerRadius=0mm|HoleSize=0mm|Usage=FLASHONLY|Rotation=180.000|XOffset=0mm|YOffset=0mm|HoleType=Round|Shape=Octagon|*
%AMOCTAGOND16*
4,1,8,0.1250,-0.8500,-0.1250,-0.8500,-0.2500,-0.7250,-0.2500,0.7250,-0.1250,0.8500,0.1250,0.8500,0.2500,0.7250,0.2500,-0.7250,0.1250,-0.8500,0.0*
%
%ADD16OCTAGOND16*%

G04:AMPARAMS|DCode=17|XSize=0.5mm|YSize=1.7mm|CornerRadius=0.125mm|HoleSize=0mm|Usage=FLASHONLY|Rotation=180.000|XOffset=0mm|YOffset=0mm|HoleType=Round|Shape=RoundedRectangle|*
%AMROUNDEDRECTD17*
21,1,0.5000,1.4500,0,0,180.0*
21,1,0.2500,1.7000,0,0,180.0*
1,1,0.2500,-0.1250,0.7250*
1,1,0.2500,0.1250,0.7250*
1,1,0.2500,0.1250,-0.7250*
1,1,0.2500,-0.1250,-0.7250*
%
%ADD17ROUNDEDRECTD17*%
%ADD18R,0.6000X0.6000*%
%ADD19R,0.6000X0.6000*%
G04:AMPARAMS|DCode=20|XSize=1mm|YSize=1mm|CornerRadius=0mm|HoleSize=0mm|Usage=FLASHONLY|Rotation=90.000|XOffset=0mm|YOffset=0mm|HoleType=Round|Shape=Octagon|*
%AMOCTAGOND20*
4,1,8,0.2500,0.5000,-0.2500,0.5000,-0.5000,0.2500,-0.5000,-0.2500,-0.2500,-0.5000,0.2500,-0.5000,0.5000,-0.2500,0.5000,0.2500,0.2500,0.5000,0.0*
%
%ADD20OCTAGOND20*%

G04:AMPARAMS|DCode=21|XSize=1mm|YSize=1mm|CornerRadius=0.25mm|HoleSize=0mm|Usage=FLASHONLY|Rotation=90.000|XOffset=0mm|YOffset=0mm|HoleType=Round|Shape=RoundedRectangle|*
%AMROUNDEDRECTD21*
21,1,1.0000,0.5000,0,0,90.0*
21,1,0.5000,1.0000,0,0,90.0*
1,1,0.5000,0.2500,0.2500*
1,1,0.5000,0.2500,-0.2500*
1,1,0.5000,-0.2500,-0.2500*
1,1,0.5000,-0.2500,0.2500*
%
%ADD21ROUNDEDRECTD21*%
G04:AMPARAMS|DCode=22|XSize=0.3mm|YSize=0.9mm|CornerRadius=0.075mm|HoleSize=0mm|Usage=FLASHONLY|Rotation=90.000|XOffset=0mm|YOffset=0mm|HoleType=Round|Shape=RoundedRectangle|*
%AMROUNDEDRECTD22*
21,1,0.3000,0.7500,0,0,90.0*
21,1,0.1500,0.9000,0,0,90.0*
1,1,0.1500,0.3750,0.0750*
1,1,0.1500,0.3750,-0.0750*
1,1,0.1500,-0.3750,-0.0750*
1,1,0.1500,-0.3750,0.0750*
%
%ADD22ROUNDEDRECTD22*%
G04:AMPARAMS|DCode=23|XSize=0.3mm|YSize=0.9mm|CornerRadius=0.075mm|HoleSize=0mm|Usage=FLASHONLY|Rotation=180.000|XOffset=0mm|YOffset=0mm|HoleType=Round|Shape=RoundedRectangle|*
%AMROUNDEDRECTD23*
21,1,0.3000,0.7500,0,0,180.0*
21,1,0.1500,0.9000,0,0,180.0*
1,1,0.1500,-0.0750,0.3750*
1,1,0.1500,0.0750,0.3750*
1,1,0.1500,0.0750,-0.3750*
1,1,0.1500,-0.0750,-0.3750*
%
%ADD23ROUNDEDRECTD23*%
%ADD24R,3.4000X3.4000*%
G04:AMPARAMS|DCode=25|XSize=0.6mm|YSize=0.8mm|CornerRadius=0.15mm|HoleSize=0mm|Usage=FLASHONLY|Rotation=180.000|XOffset=0mm|YOffset=0mm|HoleType=Round|Shape=RoundedRectangle|*
%AMROUNDEDRECTD25*
21,1,0.6000,0.5000,0,0,180.0*
21,1,0.3000,0.8000,0,0,180.0*
1,1,0.3000,-0.1500,0.2500*
1,1,0.3000,0.1500,0.2500*
1,1,0.3000,0.1500,-0.2500*
1,1,0.3000,-0.1500,-0.2500*
%
%ADD25ROUNDEDRECTD25*%
G04:AMPARAMS|DCode=26|XSize=0.7mm|YSize=0.8mm|CornerRadius=0.175mm|HoleSize=0mm|Usage=FLASHONLY|Rotation=270.000|XOffset=0mm|YOffset=0mm|HoleType=Round|Shape=RoundedRectangle|*
%AMROUNDEDRECTD26*
21,1,0.7000,0.4500,0,0,270.0*
21,1,0.3500,0.8000,0,0,270.0*
1,1,0.3500,-0.2250,-0.1750*
1,1,0.3500,-0.2250,0.1750*
1,1,0.3500,0.2250,0.1750*
1,1,0.3500,0.2250,-0.1750*
%
%ADD26ROUNDEDRECTD26*%
G04:AMPARAMS|DCode=27|XSize=1.35mm|YSize=0.8mm|CornerRadius=0.2mm|HoleSize=0mm|Usage=FLASHONLY|Rotation=270.000|XOffset=0mm|YOffset=0mm|HoleType=Round|Shape=RoundedRectangle|*
%AMROUNDEDRECTD27*
21,1,1.3500,0.4000,0,0,270.0*
21,1,0.9500,0.8000,0,0,270.0*
1,1,0.4000,-0.2000,-0.4750*
1,1,0.4000,-0.2000,0.4750*
1,1,0.4000,0.2000,0.4750*
1,1,0.4000,0.2000,-0.4750*
%
%ADD27ROUNDEDRECTD27*%
G04:AMPARAMS|DCode=28|XSize=0.5mm|YSize=0.5mm|CornerRadius=0.125mm|HoleSize=0mm|Usage=FLASHONLY|Rotation=180.000|XOffset=0mm|YOffset=0mm|HoleType=Round|Shape=RoundedRectangle|*
%AMROUNDEDRECTD28*
21,1,0.5000,0.2500,0,0,180.0*
21,1,0.2500,0.5000,0,0,180.0*
1,1,0.2500,-0.1250,0.1250*
1,1,0.2500,0.1250,0.1250*
1,1,0.2500,0.1250,-0.1250*
1,1,0.2500,-0.1250,-0.1250*
%
%ADD28ROUNDEDRECTD28*%
G04:AMPARAMS|DCode=29|XSize=1mm|YSize=0.9mm|CornerRadius=0.225mm|HoleSize=0mm|Usage=FLASHONLY|Rotation=90.000|XOffset=0mm|YOffset=0mm|HoleType=Round|Shape=RoundedRectangle|*
%AMROUNDEDRECTD29*
21,1,1.0000,0.4500,0,0,90.0*
21,1,0.5500,0.9000,0,0,90.0*
1,1,0.4500,0.2250,0.2750*
1,1,0.4500,0.2250,-0.2750*
1,1,0.4500,-0.2250,-0.2750*
1,1,0.4500,-0.2250,0.2750*
%
%ADD29ROUNDEDRECTD29*%
G04:AMPARAMS|DCode=30|XSize=0.6mm|YSize=1mm|CornerRadius=0.15mm|HoleSize=0mm|Usage=FLASHONLY|Rotation=90.000|XOffset=0mm|YOffset=0mm|HoleType=Round|Shape=RoundedRectangle|*
%AMROUNDEDRECTD30*
21,1,0.6000,0.7000,0,0,90.0*
21,1,0.3000,1.0000,0,0,90.0*
1,1,0.3000,0.3500,0.1500*
1,1,0.3000,0.3500,-0.1500*
1,1,0.3000,-0.3500,-0.1500*
1,1,0.3000,-0.3500,0.1500*
%
%ADD30ROUNDEDRECTD30*%
G04:AMPARAMS|DCode=31|XSize=1.5mm|YSize=1.5mm|CornerRadius=0.375mm|HoleSize=0mm|Usage=FLASHONLY|Rotation=180.000|XOffset=0mm|YOffset=0mm|HoleType=Round|Shape=RoundedRectangle|*
%AMROUNDEDRECTD31*
21,1,1.5000,0.7500,0,0,180.0*
21,1,0.7500,1.5000,0,0,180.0*
1,1,0.7500,-0.3750,0.3750*
1,1,0.7500,0.3750,0.3750*
1,1,0.7500,0.3750,-0.3750*
1,1,0.7500,-0.3750,-0.3750*
%
%ADD31ROUNDEDRECTD31*%
%ADD32C,1.5000*%
%ADD33C,0.5000*%
%ADD34C,0.4000*%
%ADD35C,1.2000*%
D11*
X45700Y55450D02*
X46472Y56222D01*
X56472D01*
D12*
X50950Y84450D02*
Y91515D01*
X53700Y77304D02*
Y81700D01*
X40400Y76592D02*
Y78450D01*
X43309Y81359D01*
X46056D02*
X46630Y81933D01*
X43309Y81359D02*
X46056D01*
X40258Y76450D02*
X40400Y76592D01*
X50950Y84450D02*
X53700Y81700D01*
X51898Y75502D02*
X53700Y77304D01*
X48200Y70200D02*
X52700Y74700D01*
X48200Y64200D02*
Y70200D01*
X38400Y67950D02*
X40146Y66204D01*
X38400Y67950D02*
Y76450D01*
X40146Y66204D02*
X40258D01*
X12700Y34100D02*
X15200Y36600D01*
X15425Y41825D02*
X27700D01*
X12700Y39100D02*
X15425Y41825D01*
X27700D02*
X34763D01*
X36888Y39700D01*
X37700D01*
X35738Y53554D02*
X44771Y44521D01*
X45700Y45450D02*
X46200Y44950D01*
X57450D01*
X56472Y56222D02*
X57428D01*
X81400Y52701D02*
X87546D01*
X57428Y56222D02*
X63200Y50450D01*
X70700D01*
X80200Y53200D02*
X81450Y54450D01*
X73450Y53200D02*
X80200D01*
X70700Y50450D02*
X73450Y53200D01*
X37596Y57054D02*
X45700D01*
X202950Y110450D02*
X212700D01*
X192450D02*
X202950D01*
X205450Y118950D02*
X210613D01*
X202950Y110450D02*
Y116450D01*
X210613Y118950D02*
X210950Y119287D01*
X202950Y116450D02*
X205450Y118950D01*
X171450Y96804D02*
Y99893D01*
X162950Y104450D02*
Y109950D01*
X164950Y102450D02*
X168893D01*
X171450Y99893D01*
X162950Y104450D02*
X164950Y102450D01*
X144700Y112700D02*
Y113450D01*
X137700Y120450D02*
X144700Y113450D01*
X131379Y120450D02*
X137700D01*
X86650Y137046D02*
X95054Y145450D01*
X107700D02*
X120792D01*
X121042Y125786D02*
Y143700D01*
X234231Y77950D02*
X234400Y77782D01*
X135703Y83703D02*
X137200Y85200D01*
X131045Y83703D02*
X135703D01*
X131045D02*
X131406Y83342D01*
X142985Y94950D02*
X148400D01*
X137450D02*
X142985D01*
X142706Y101204D02*
X142985Y100925D01*
Y94950D02*
Y100925D01*
X137200Y95200D02*
X137450Y94950D01*
X74953Y146957D02*
X75257Y146653D01*
X81247D01*
X82450Y145450D01*
X153596Y130950D02*
X167700D01*
X153450Y131096D02*
X153596Y130950D01*
X142706Y99706D02*
Y101204D01*
X144700Y112700D02*
X149208Y108192D01*
Y107624D02*
X150554Y106278D01*
X149208Y107624D02*
Y108192D01*
X120042Y144700D02*
X121042Y143700D01*
X66453Y62952D02*
X67200Y63700D01*
X65879Y64022D02*
X66450Y63450D01*
X62700Y74700D02*
X64700Y72700D01*
Y69517D02*
Y72700D01*
Y69517D02*
X65879Y68338D01*
Y64022D02*
Y68338D01*
X158450Y99244D02*
Y100700D01*
Y99244D02*
X158950Y98744D01*
X158957Y98751D01*
X229450Y115955D02*
X229711D01*
X209951Y79949D02*
X210200Y79700D01*
X199553Y79949D02*
X209951D01*
X62026Y138030D02*
Y140527D01*
X61452Y137456D02*
X62026Y138030D01*
X68150Y131400D02*
Y137200D01*
X57202Y134456D02*
X64650Y127008D01*
X55202Y134456D02*
X57202D01*
X76683Y133769D02*
Y137450D01*
X64650Y124200D02*
Y127008D01*
X31152Y144998D02*
X31950Y144200D01*
X25372Y145350D02*
X31504D01*
X24200Y144179D02*
X25372Y145350D01*
X24200Y139904D02*
Y144179D01*
X23200Y138904D02*
X24200Y139904D01*
X62026Y140527D02*
X66950Y145450D01*
X28700Y65950D02*
X37596Y57054D01*
X170900Y96804D02*
Y96804D01*
X74650Y8200D02*
X78150Y11700D01*
X88950D01*
X72825Y25325D02*
X72825D01*
X72700Y25450D02*
X72825Y25325D01*
X72700Y25200D02*
X76200Y28700D01*
X88950D01*
X17200Y127950D02*
Y128200D01*
X18200Y129200D01*
X22450D01*
X95054Y145450D02*
X107700D01*
Y140950D02*
Y145450D01*
X120792D02*
X121042Y145700D01*
X69450Y81879D02*
Y82200D01*
X59254Y81204D02*
X70654D01*
X71650Y82200D01*
X58789Y81668D02*
X59254Y81204D01*
X34896Y53554D02*
X35738D01*
X34875Y53575D02*
X34896Y53554D01*
X27700Y53575D02*
X34875D01*
X81200Y54450D02*
X81450D01*
X64453Y86204D02*
Y88988D01*
X64450Y88990D02*
X64453Y88988D01*
X64450Y88990D02*
X64453Y88993D01*
X64450Y88995D02*
X64453Y88993D01*
X98900Y44200D02*
Y67486D01*
X98950Y44200D02*
X100200Y42950D01*
Y36200D02*
Y42950D01*
X167700Y130950D02*
X173700Y124950D01*
X224308Y110808D02*
X229450Y115950D01*
X224308Y109950D02*
Y110808D01*
X31542Y99542D02*
Y100358D01*
X29200Y102700D02*
X31542Y100358D01*
Y99542D02*
X31950Y99950D01*
X26842Y94842D02*
X31542Y99542D01*
X26842Y87200D02*
Y94842D01*
X64450Y89000D02*
X64453Y88998D01*
X64450Y88995D02*
X64453Y88998D01*
X39879Y135200D02*
X43508D01*
X31950Y143129D02*
X39879Y135200D01*
X31950Y143129D02*
Y144200D01*
X160900Y96808D02*
X170896D01*
X158957Y98751D02*
X160900Y96808D01*
X76203Y131755D02*
X76704Y131254D01*
X96650Y69736D02*
Y82200D01*
Y69736D02*
X98900Y67486D01*
X91454Y75203D02*
Y82004D01*
X87546Y52701D02*
X92400Y47846D01*
X91454Y82004D02*
X91650Y82200D01*
X128624Y123205D02*
X131379Y120450D01*
X123623Y123205D02*
X128624D01*
X121042Y125786D02*
X123623Y123205D01*
X186200Y143200D02*
X186450Y143450D01*
X171650Y143200D02*
X186200D01*
X72700Y25200D02*
Y25450D01*
X170896Y96808D02*
X170900Y96804D01*
X64450Y89000D02*
X64650Y89200D01*
X43322Y122578D02*
Y127700D01*
X38650Y127950D02*
X38900Y127700D01*
X43322D01*
Y122578D02*
X46900Y119000D01*
X199504Y100200D02*
X199504Y100200D01*
X211046D01*
X199504Y89200D02*
X211150D01*
X101650Y131201D02*
X101650Y131200D01*
X55900Y99200D02*
X64650D01*
X43322Y127700D02*
Y135200D01*
X55900Y96465D02*
Y99200D01*
X76650Y131200D02*
X76704Y131254D01*
X68350Y131200D02*
X71650D01*
X68150Y131400D02*
X68350Y131200D01*
X86650D02*
Y137046D01*
X170900Y83342D02*
X177496D01*
X179650Y81188D01*
X50950Y91515D02*
X55900Y96465D01*
X180700Y56070D02*
X183512Y53258D01*
X180700Y56070D02*
Y67950D01*
X179650D02*
Y81188D01*
X22700Y102700D02*
X29200D01*
X22450Y129200D02*
X23200Y129950D01*
Y138904D01*
D13*
X208700Y134700D02*
X233676D01*
X239676Y140700D02*
X241300D01*
X233676Y134700D02*
X239676Y140700D01*
X186091Y74559D02*
X190200Y70450D01*
X186091Y74559D02*
Y79949D01*
X228821Y79950D02*
X231284D01*
X233284Y77950D02*
X234231D01*
X231284Y79950D02*
X233284Y77950D01*
X222700Y79950D02*
X228821D01*
X229700Y80829D02*
Y89900D01*
X228821Y79950D02*
X229700Y80829D01*
Y89900D02*
Y99321D01*
X222700Y90200D02*
X229400D01*
X229700Y89900D01*
X222650Y100200D02*
X228821D01*
X229700Y99321D01*
X145950Y119950D02*
X162950D01*
X143950Y121950D02*
X145950Y119950D01*
X143950Y121950D02*
Y127360D01*
X148200Y135325D02*
Y137450D01*
X141250Y132110D02*
X144985D01*
X148200Y135325D01*
X137700Y120450D02*
X139200Y121950D01*
X133450Y125450D02*
X133610Y125610D01*
X139200Y121950D02*
Y130060D01*
X120895Y80978D02*
X130700Y90783D01*
Y104450D01*
X129265Y78953D02*
X132268Y75950D01*
X125955Y78953D02*
X129265D01*
X132268Y75950D02*
X138960D01*
X141292Y73618D01*
Y68193D02*
Y73618D01*
Y68193D02*
X142535Y66950D01*
X147700D01*
X134504Y135261D02*
X135200Y135957D01*
X139200Y130060D02*
X141250Y132110D01*
X135200Y135957D02*
X138464D01*
X134504Y134200D02*
Y135261D01*
X148200Y137450D02*
X153450Y142700D01*
X142200Y143700D02*
X144206Y141694D01*
X134504Y143700D02*
X142200D01*
X144206Y140456D02*
Y141694D01*
X186950Y101754D02*
X187273Y101431D01*
X178950Y100200D02*
X186040D01*
X178450D02*
X178950D01*
X178200Y99950D02*
X178950D01*
X186040Y100200D02*
X186041Y100199D01*
X178200Y99950D02*
X178450Y100200D01*
X171200Y109950D02*
X178950D01*
X54400Y127950D02*
X56900Y125450D01*
X57202Y113955D02*
X57447Y114200D01*
X41200Y109200D02*
X64650D01*
X50627Y145350D02*
X55246D01*
X41504D02*
X50627D01*
X55246D02*
X55346Y145450D01*
X28400Y76450D02*
X28400Y76450D01*
X13700Y76450D02*
X28400D01*
X31400Y119000D02*
X41200Y109200D01*
X130700Y104450D02*
X132528Y106278D01*
X137600D01*
X163488Y67162D02*
Y75700D01*
X162238Y76950D02*
X163488Y75700D01*
X161700Y76950D02*
X162238D01*
X149450Y77700D02*
X154450D01*
X148400Y78750D02*
Y83346D01*
X155950Y65700D02*
Y76200D01*
X154450Y77700D02*
X155950Y76200D01*
X148400Y78750D02*
X149450Y77700D01*
X159950Y78700D02*
X161700Y76950D01*
X159950Y78700D02*
Y83346D01*
X12700Y64500D02*
Y75450D01*
X13700Y76450D01*
X56900Y120450D02*
Y125450D01*
X79200Y44950D02*
X81450D01*
X74700Y40450D02*
X79200Y44950D01*
X71700Y40450D02*
X74700D01*
X56150Y88647D02*
Y91719D01*
X55950Y91918D02*
X56150Y91719D01*
X76425Y81975D02*
X76650Y82200D01*
X73700Y73700D02*
X76450Y76450D01*
Y81950D01*
X72558Y73700D02*
X73700D01*
X86954Y70453D02*
X88703Y68703D01*
X90454D01*
X45004Y98004D02*
Y98604D01*
X46900Y100500D02*
X50600Y104200D01*
X45004Y98004D02*
X47450Y100450D01*
X40304Y93304D02*
X45004Y98004D01*
X40304Y87200D02*
Y93304D01*
X120895Y77271D02*
Y80978D01*
X118112Y74488D02*
X120895Y77271D01*
X101662Y74488D02*
X118112D01*
X125592Y95200D02*
Y98593D01*
X121950Y104200D02*
X122450Y104700D01*
X113650Y89200D02*
X122400D01*
X113412Y79238D02*
X116145D01*
X110450Y82200D02*
X113412Y79238D01*
X101650Y74500D02*
X101662Y74488D01*
X81650Y73703D02*
Y82200D01*
X178950Y109950D02*
X179200Y109700D01*
X179450Y90200D02*
X185042D01*
X74308Y61308D02*
X92400D01*
X86703Y70703D02*
X86954Y70453D01*
X101650Y74500D02*
Y82200D01*
X86954Y70453D02*
X86956Y70450D01*
X86703Y70703D02*
Y78421D01*
X86579Y78546D02*
X86703Y78421D01*
X86579Y78546D02*
Y82129D01*
X57447Y114200D02*
X64650D01*
X185042Y90200D02*
X185200Y90042D01*
X86579Y82129D02*
X86650Y82200D01*
X130012Y113544D02*
Y117221D01*
X122988Y119955D02*
X127278D01*
X130012Y117221D01*
X113650Y114200D02*
X119272D01*
X120205Y115134D01*
Y117173D01*
X122988Y119955D01*
X127700Y111232D02*
X130012Y113544D01*
X124813Y115205D02*
X124956D01*
X118808Y109200D02*
X124813Y115205D01*
X127700Y100700D02*
Y111232D01*
X125592Y98593D02*
X127700Y100700D01*
X113650Y104200D02*
X121950D01*
X113650Y109200D02*
X118808D01*
X50600Y104200D02*
X64650D01*
X106650Y82200D02*
X106650Y82200D01*
X58150Y119200D02*
X64650D01*
X56900Y120450D02*
X58150Y119200D01*
X30046Y135200D02*
X31400Y133846D01*
Y119000D02*
Y133846D01*
X45004Y98604D02*
X46900Y100500D01*
X55950Y91918D02*
X58232Y94200D01*
X64650D01*
X91293Y60201D02*
X92400Y61308D01*
X185200Y89200D02*
Y90042D01*
X163488Y67162D02*
X163700Y66950D01*
X147650Y67000D02*
X147700Y66950D01*
X186042Y100200D02*
X187273Y101431D01*
X106650Y82200D02*
X110450D01*
X70453Y57453D02*
X74308Y61308D01*
X194700Y120700D02*
X208700Y134700D01*
D15*
X116600Y14200D02*
D03*
Y61700D02*
D03*
X211300Y14200D02*
D03*
Y61700D02*
D03*
D16*
X147950Y65700D02*
D03*
D17*
X163950D02*
D03*
X155950D02*
D03*
X171950D02*
D03*
X179950D02*
D03*
D18*
X45700Y55450D02*
D03*
Y45450D02*
D03*
X92400Y49450D02*
D03*
Y59450D02*
D03*
X171450Y95200D02*
D03*
Y85200D02*
D03*
X137200Y95200D02*
D03*
Y85200D02*
D03*
X162950Y119950D02*
D03*
Y109950D02*
D03*
X153450Y132700D02*
D03*
Y142700D02*
D03*
X148400Y84950D02*
D03*
Y94950D02*
D03*
X159950Y84950D02*
D03*
Y94950D02*
D03*
D19*
X38700Y87200D02*
D03*
X28700D02*
D03*
X31450Y133200D02*
D03*
X41450D02*
D03*
X52700Y74700D02*
D03*
X62700D02*
D03*
X92450Y145450D02*
D03*
X82450D02*
D03*
X41504Y145350D02*
D03*
X31504D02*
D03*
X38700Y65950D02*
D03*
X28700D02*
D03*
X28400Y76450D02*
D03*
X38400D02*
D03*
X212700Y110450D02*
D03*
X222700D02*
D03*
X192450D02*
D03*
X182450D02*
D03*
X212650Y100200D02*
D03*
X222650D02*
D03*
X212700Y90200D02*
D03*
X222700D02*
D03*
X132950Y133950D02*
D03*
X122950D02*
D03*
X132900Y145700D02*
D03*
X122900D02*
D03*
X212700Y79950D02*
D03*
X222700D02*
D03*
X56950Y145450D02*
D03*
X66950D02*
D03*
D20*
X36950Y11700D02*
D03*
X173700Y125950D02*
D03*
D21*
X36950Y28700D02*
D03*
X88950Y11700D02*
D03*
Y28700D02*
D03*
X173700Y142950D02*
D03*
X225700Y125950D02*
D03*
Y142950D02*
D03*
D22*
X64650Y94200D02*
D03*
Y89200D02*
D03*
Y99200D02*
D03*
Y109200D02*
D03*
Y104200D02*
D03*
Y119200D02*
D03*
Y124200D02*
D03*
Y114200D02*
D03*
X113650Y89200D02*
D03*
Y94200D02*
D03*
Y99200D02*
D03*
Y109200D02*
D03*
Y104200D02*
D03*
Y124200D02*
D03*
Y114200D02*
D03*
Y119200D02*
D03*
D23*
X76650Y82200D02*
D03*
X71650D02*
D03*
Y131200D02*
D03*
X81650D02*
D03*
X76650D02*
D03*
X96650Y82200D02*
D03*
X101650D02*
D03*
X81650D02*
D03*
X91650D02*
D03*
X86650D02*
D03*
X106650D02*
D03*
X101650Y131200D02*
D03*
X106650D02*
D03*
X86650D02*
D03*
X96650D02*
D03*
X91650D02*
D03*
D24*
X89150Y106700D02*
D03*
D25*
X186091Y79949D02*
D03*
X199553D02*
D03*
X186041Y90199D02*
D03*
X199503D02*
D03*
X186041Y100199D02*
D03*
X199503D02*
D03*
D26*
X27700Y41825D02*
D03*
D27*
Y53575D02*
D03*
D28*
X137600Y106278D02*
D03*
X150554D02*
D03*
X143950Y127360D02*
D03*
D29*
X30950Y101450D02*
D03*
Y119950D02*
D03*
X46450D02*
D03*
Y101450D02*
D03*
D30*
X57450Y63951D02*
D03*
X81450D02*
D03*
Y54450D02*
D03*
Y44950D02*
D03*
X57450D02*
D03*
D31*
X12700Y13700D02*
D03*
Y39100D02*
D03*
Y64500D02*
D03*
Y115300D02*
D03*
Y89900D02*
D03*
X241300Y13700D02*
D03*
Y39100D02*
D03*
Y64500D02*
D03*
Y89900D02*
D03*
Y115300D02*
D03*
Y140700D02*
D03*
D32*
X12700D02*
D03*
D33*
X46630Y81933D02*
D03*
X133450Y125450D02*
D03*
X234400Y77782D02*
D03*
X192822Y84996D02*
D03*
X131045Y83703D02*
D03*
X74953Y146957D02*
D03*
X160648Y130950D02*
D03*
X142706Y101204D02*
D03*
X138464Y135957D02*
D03*
X144206Y140456D02*
D03*
X144700Y113450D02*
D03*
X178950Y100200D02*
D03*
X158450Y100700D02*
D03*
X171200Y109950D02*
D03*
X229711Y115955D02*
D03*
X68150Y137200D02*
D03*
X54400Y127950D02*
D03*
X55202Y134456D02*
D03*
X61452Y137456D02*
D03*
X76683Y137450D02*
D03*
X57202Y113955D02*
D03*
X50627Y145350D02*
D03*
X17200Y128200D02*
D03*
X107700Y140950D02*
D03*
X56950Y56700D02*
D03*
X64453Y86204D02*
D03*
X58789Y81668D02*
D03*
X56150Y88647D02*
D03*
X90454Y68703D02*
D03*
X72558Y73700D02*
D03*
X100200Y36200D02*
D03*
X37700Y39700D02*
D03*
X48200Y64200D02*
D03*
X125592Y95200D02*
D03*
X122450Y104700D02*
D03*
X125955Y78953D02*
D03*
X122400Y89200D02*
D03*
X116145Y79238D02*
D03*
X80703Y73703D02*
D03*
X66453Y62952D02*
D03*
X91454Y75203D02*
D03*
X179450Y90200D02*
D03*
X124956Y115205D02*
D03*
X191700Y58950D02*
D03*
X53700Y12200D02*
D03*
X186450Y143450D02*
D03*
X190200Y70450D02*
D03*
X72700Y25200D02*
D03*
X96454Y100205D02*
D03*
X55900Y99200D02*
D03*
X38900Y127700D02*
D03*
X74650Y8200D02*
D03*
X78900Y99200D02*
D03*
X97900Y117200D02*
D03*
X78900Y117450D02*
D03*
X210950Y119287D02*
D03*
X71700Y40450D02*
D03*
X70453Y57453D02*
D03*
X183512Y53258D02*
D03*
X22700Y102700D02*
D03*
X194700Y120700D02*
D03*
D34*
X116600Y36200D02*
Y61700D01*
Y36200D02*
X165200D01*
X211300D02*
Y61700D01*
X165200Y36200D02*
X211300D01*
X165200Y13950D02*
X211050D01*
X116850D02*
X165200D01*
Y36200D01*
Y13700D02*
Y13950D01*
X211050D02*
X211300Y14200D01*
X116600D02*
X116850Y13950D01*
D35*
X165200Y13700D02*
D03*
M02*
