G04*
G04 #@! TF.GenerationSoftware,Altium Limited,Altium Designer,20.0.10 (225)*
G04*
G04 Layer_Physical_Order=2*
G04 Layer_Color=32768*
%FSLAX44Y44*%
%MOMM*%
G71*
G01*
G75*
%ADD36C,1.0160*%
%ADD37C,1.4000*%
%ADD38C,0.8500*%
%ADD39C,0.8000*%
D36*
X0Y0D02*
Y154750D01*
X254000D01*
Y0D02*
Y154750D01*
X0Y0D02*
X254000D01*
D37*
X12700Y39100D02*
D03*
Y64500D02*
D03*
Y115300D02*
D03*
Y89900D02*
D03*
Y140700D02*
D03*
X241300Y13700D02*
D03*
Y39100D02*
D03*
Y64500D02*
D03*
Y89900D02*
D03*
Y115300D02*
D03*
Y140700D02*
D03*
D38*
X46630Y81933D02*
D03*
X133450Y125450D02*
D03*
X192822Y84996D02*
D03*
X160648Y130950D02*
D03*
X142706Y101204D02*
D03*
X138464Y135957D02*
D03*
X144206Y140456D02*
D03*
X144700Y113450D02*
D03*
X178950Y100200D02*
D03*
X158450Y100700D02*
D03*
X171200Y109950D02*
D03*
X229711Y115955D02*
D03*
X68150Y137200D02*
D03*
X54400Y127950D02*
D03*
X55202Y134456D02*
D03*
X61452Y137456D02*
D03*
X76683Y137450D02*
D03*
X57202Y113955D02*
D03*
X50627Y145350D02*
D03*
X64453Y86204D02*
D03*
X58789Y81668D02*
D03*
X56150Y88647D02*
D03*
X90454Y68703D02*
D03*
X72558Y73700D02*
D03*
X100200Y36200D02*
D03*
X37700Y39700D02*
D03*
X48200Y64200D02*
D03*
X125592Y95200D02*
D03*
X122450Y104700D02*
D03*
X125955Y78953D02*
D03*
X122400Y89200D02*
D03*
X116145Y79238D02*
D03*
X80703Y73703D02*
D03*
X91454Y75203D02*
D03*
X179450Y90200D02*
D03*
X124956Y115205D02*
D03*
X191700Y58950D02*
D03*
X190200Y70450D02*
D03*
X72700Y25200D02*
D03*
X55900Y99200D02*
D03*
X210950Y119287D02*
D03*
X71700Y40450D02*
D03*
X70453Y57453D02*
D03*
X194700Y120700D02*
D03*
D39*
X234400Y77782D02*
D03*
X107700Y140950D02*
D03*
M02*
