G04*
G04 #@! TF.GenerationSoftware,Altium Limited,Altium Designer,20.0.10 (225)*
G04*
G04 Layer_Color=16776960*
%FSLAX44Y44*%
%MOMM*%
G71*
G01*
G75*
%ADD11C,0.1500*%
%ADD12C,0.2000*%
%ADD32C,0.4000*%
%ADD39C,0.2540*%
%ADD40R,0.8000X0.2750*%
G36*
X242050Y87056D02*
X239300D01*
Y95556D01*
X242050D01*
Y87056D01*
D02*
G37*
G36*
X242200Y101256D02*
X239450D01*
Y109756D01*
X242200D01*
Y101256D01*
D02*
G37*
G36*
Y115256D02*
X239450D01*
Y123756D01*
X242200D01*
Y115256D01*
D02*
G37*
G36*
X250714Y194247D02*
X250797D01*
X250899Y194238D01*
X251010Y194219D01*
X251130Y194210D01*
X251389Y194155D01*
X251648Y194081D01*
X251897Y193988D01*
X252008Y193924D01*
X252110Y193850D01*
X251777Y192916D01*
X251768Y192925D01*
X251749Y192934D01*
X251722Y192953D01*
X251675Y192981D01*
X251620Y193008D01*
X251555Y193045D01*
X251407Y193129D01*
X251222Y193202D01*
X251019Y193267D01*
X250797Y193313D01*
X250677Y193332D01*
X250492D01*
X250427Y193323D01*
X250344Y193304D01*
X250252Y193286D01*
X250150Y193249D01*
X250058Y193193D01*
X249974Y193129D01*
X249965Y193119D01*
X249946Y193092D01*
X249909Y193045D01*
X249873Y192990D01*
X249836Y192916D01*
X249799Y192823D01*
X249780Y192722D01*
X249771Y192611D01*
Y192602D01*
Y192583D01*
X249780Y192555D01*
X249789Y192518D01*
X249808Y192472D01*
X249836Y192417D01*
X249873Y192352D01*
X249919Y192278D01*
X249974Y192195D01*
X250058Y192111D01*
X250150Y192019D01*
X250261Y191927D01*
X250399Y191825D01*
X250548Y191723D01*
X250732Y191621D01*
X250936Y191511D01*
X250945D01*
X250963Y191501D01*
X250991Y191483D01*
X251038Y191455D01*
X251148Y191400D01*
X251278Y191326D01*
X251426Y191242D01*
X251574Y191150D01*
X251712Y191048D01*
X251823Y190956D01*
X251833Y190947D01*
X251870Y190910D01*
X251916Y190863D01*
X251980Y190789D01*
X252045Y190706D01*
X252119Y190604D01*
X252184Y190484D01*
X252239Y190364D01*
X252249Y190346D01*
X252267Y190309D01*
X252286Y190235D01*
X252313Y190142D01*
X252341Y190031D01*
X252369Y189911D01*
X252378Y189763D01*
X252387Y189615D01*
Y189606D01*
Y189578D01*
Y189541D01*
X252378Y189495D01*
X252369Y189430D01*
X252360Y189356D01*
X252313Y189181D01*
X252239Y188986D01*
X252193Y188885D01*
X252138Y188783D01*
X252073Y188681D01*
X251990Y188580D01*
X251897Y188478D01*
X251796Y188386D01*
X251786Y188376D01*
X251768Y188367D01*
X251731Y188339D01*
X251685Y188312D01*
X251629Y188275D01*
X251555Y188238D01*
X251472Y188191D01*
X251380Y188145D01*
X251269Y188099D01*
X251148Y188053D01*
X251019Y188016D01*
X250880Y187979D01*
X250732Y187951D01*
X250566Y187923D01*
X250399Y187914D01*
X250215Y187905D01*
X250131D01*
X250067Y187914D01*
X249993D01*
X249909Y187932D01*
X249808Y187942D01*
X249697Y187960D01*
X249457Y188016D01*
X249198Y188090D01*
X248930Y188201D01*
X248800Y188275D01*
X248671Y188349D01*
X249068Y189329D01*
X249077Y189319D01*
X249096Y189310D01*
X249133Y189292D01*
X249179Y189255D01*
X249235Y189227D01*
X249309Y189190D01*
X249466Y189107D01*
X249660Y189023D01*
X249873Y188950D01*
X250104Y188894D01*
X250215Y188885D01*
X250335Y188876D01*
X250381D01*
X250427Y188885D01*
X250483D01*
X250557Y188894D01*
X250640Y188913D01*
X250816Y188959D01*
X250908Y188996D01*
X250991Y189042D01*
X251075Y189088D01*
X251148Y189153D01*
X251204Y189236D01*
X251259Y189319D01*
X251287Y189421D01*
X251296Y189541D01*
Y189560D01*
Y189597D01*
X251287Y189652D01*
X251269Y189735D01*
X251241Y189828D01*
X251195Y189930D01*
X251139Y190031D01*
X251065Y190142D01*
X251056Y190151D01*
X251019Y190188D01*
X250954Y190253D01*
X250862Y190327D01*
X250742Y190429D01*
X250668Y190475D01*
X250575Y190530D01*
X250483Y190595D01*
X250372Y190651D01*
X250261Y190715D01*
X250131Y190780D01*
X250122D01*
X250104Y190799D01*
X250067Y190817D01*
X250021Y190836D01*
X249965Y190873D01*
X249900Y190900D01*
X249752Y190984D01*
X249586Y191076D01*
X249438Y191178D01*
X249290Y191270D01*
X249235Y191316D01*
X249179Y191363D01*
X249170Y191372D01*
X249142Y191400D01*
X249096Y191455D01*
X249040Y191520D01*
X248985Y191594D01*
X248920Y191686D01*
X248865Y191797D01*
X248809Y191908D01*
X248800Y191927D01*
X248791Y191964D01*
X248772Y192028D01*
X248745Y192111D01*
X248717Y192213D01*
X248698Y192333D01*
X248689Y192463D01*
X248680Y192602D01*
Y192611D01*
Y192629D01*
Y192666D01*
X248689Y192722D01*
X248698Y192777D01*
X248708Y192851D01*
X248745Y193018D01*
X248809Y193202D01*
X248902Y193406D01*
X248957Y193498D01*
X249031Y193600D01*
X249105Y193692D01*
X249198Y193785D01*
X249207Y193794D01*
X249225Y193803D01*
X249253Y193831D01*
X249290Y193859D01*
X249346Y193896D01*
X249410Y193933D01*
X249484Y193979D01*
X249567Y194025D01*
X249660Y194062D01*
X249752Y194109D01*
X249984Y194182D01*
X250252Y194238D01*
X250390Y194247D01*
X250538Y194256D01*
X250640D01*
X250714Y194247D01*
D02*
G37*
G36*
X246322D02*
X246406D01*
X246507Y194238D01*
X246618Y194219D01*
X246738Y194210D01*
X246997Y194155D01*
X247256Y194081D01*
X247506Y193988D01*
X247617Y193924D01*
X247718Y193850D01*
X247386Y192916D01*
X247376Y192925D01*
X247358Y192934D01*
X247330Y192953D01*
X247284Y192981D01*
X247228Y193008D01*
X247164Y193045D01*
X247016Y193129D01*
X246831Y193202D01*
X246627Y193267D01*
X246406Y193313D01*
X246285Y193332D01*
X246100D01*
X246036Y193323D01*
X245952Y193304D01*
X245860Y193286D01*
X245758Y193249D01*
X245666Y193193D01*
X245583Y193129D01*
X245573Y193119D01*
X245555Y193092D01*
X245518Y193045D01*
X245481Y192990D01*
X245444Y192916D01*
X245407Y192823D01*
X245388Y192722D01*
X245379Y192611D01*
Y192602D01*
Y192583D01*
X245388Y192555D01*
X245398Y192518D01*
X245416Y192472D01*
X245444Y192417D01*
X245481Y192352D01*
X245527Y192278D01*
X245583Y192195D01*
X245666Y192111D01*
X245758Y192019D01*
X245869Y191927D01*
X246008Y191825D01*
X246156Y191723D01*
X246341Y191621D01*
X246544Y191511D01*
X246553D01*
X246572Y191501D01*
X246600Y191483D01*
X246646Y191455D01*
X246757Y191400D01*
X246886Y191326D01*
X247034Y191242D01*
X247182Y191150D01*
X247321Y191048D01*
X247432Y190956D01*
X247441Y190947D01*
X247478Y190910D01*
X247524Y190863D01*
X247589Y190789D01*
X247654Y190706D01*
X247728Y190604D01*
X247792Y190484D01*
X247848Y190364D01*
X247857Y190346D01*
X247875Y190309D01*
X247894Y190235D01*
X247922Y190142D01*
X247950Y190031D01*
X247977Y189911D01*
X247986Y189763D01*
X247996Y189615D01*
Y189606D01*
Y189578D01*
Y189541D01*
X247986Y189495D01*
X247977Y189430D01*
X247968Y189356D01*
X247922Y189181D01*
X247848Y188986D01*
X247801Y188885D01*
X247746Y188783D01*
X247681Y188681D01*
X247598Y188580D01*
X247506Y188478D01*
X247404Y188386D01*
X247395Y188376D01*
X247376Y188367D01*
X247339Y188339D01*
X247293Y188312D01*
X247238Y188275D01*
X247164Y188238D01*
X247080Y188191D01*
X246988Y188145D01*
X246877Y188099D01*
X246757Y188053D01*
X246627Y188016D01*
X246489Y187979D01*
X246341Y187951D01*
X246174Y187923D01*
X246008Y187914D01*
X245823Y187905D01*
X245740D01*
X245675Y187914D01*
X245601D01*
X245518Y187932D01*
X245416Y187942D01*
X245305Y187960D01*
X245065Y188016D01*
X244806Y188090D01*
X244538Y188201D01*
X244408Y188275D01*
X244279Y188349D01*
X244676Y189329D01*
X244686Y189319D01*
X244704Y189310D01*
X244741Y189292D01*
X244788Y189255D01*
X244843Y189227D01*
X244917Y189190D01*
X245074Y189107D01*
X245268Y189023D01*
X245481Y188950D01*
X245712Y188894D01*
X245823Y188885D01*
X245943Y188876D01*
X245989D01*
X246036Y188885D01*
X246091D01*
X246165Y188894D01*
X246248Y188913D01*
X246424Y188959D01*
X246516Y188996D01*
X246600Y189042D01*
X246683Y189088D01*
X246757Y189153D01*
X246812Y189236D01*
X246868Y189319D01*
X246896Y189421D01*
X246905Y189541D01*
Y189560D01*
Y189597D01*
X246896Y189652D01*
X246877Y189735D01*
X246849Y189828D01*
X246803Y189930D01*
X246747Y190031D01*
X246674Y190142D01*
X246664Y190151D01*
X246627Y190188D01*
X246563Y190253D01*
X246470Y190327D01*
X246350Y190429D01*
X246276Y190475D01*
X246184Y190530D01*
X246091Y190595D01*
X245980Y190651D01*
X245869Y190715D01*
X245740Y190780D01*
X245730D01*
X245712Y190799D01*
X245675Y190817D01*
X245629Y190836D01*
X245573Y190873D01*
X245509Y190900D01*
X245361Y190984D01*
X245194Y191076D01*
X245046Y191178D01*
X244898Y191270D01*
X244843Y191316D01*
X244788Y191363D01*
X244778Y191372D01*
X244750Y191400D01*
X244704Y191455D01*
X244649Y191520D01*
X244593Y191594D01*
X244529Y191686D01*
X244473Y191797D01*
X244418Y191908D01*
X244408Y191927D01*
X244399Y191964D01*
X244381Y192028D01*
X244353Y192111D01*
X244325Y192213D01*
X244307Y192333D01*
X244298Y192463D01*
X244288Y192602D01*
Y192611D01*
Y192629D01*
Y192666D01*
X244298Y192722D01*
X244307Y192777D01*
X244316Y192851D01*
X244353Y193018D01*
X244418Y193202D01*
X244510Y193406D01*
X244566Y193498D01*
X244639Y193600D01*
X244713Y193692D01*
X244806Y193785D01*
X244815Y193794D01*
X244834Y193803D01*
X244861Y193831D01*
X244898Y193859D01*
X244954Y193896D01*
X245019Y193933D01*
X245093Y193979D01*
X245176Y194025D01*
X245268Y194062D01*
X245361Y194109D01*
X245592Y194182D01*
X245860Y194238D01*
X245999Y194247D01*
X246147Y194256D01*
X246248D01*
X246322Y194247D01*
D02*
G37*
G36*
X219519D02*
X219603D01*
X219704Y194238D01*
X219815Y194219D01*
X219935Y194210D01*
X220194Y194155D01*
X220453Y194081D01*
X220703Y193988D01*
X220814Y193924D01*
X220915Y193850D01*
X220583Y192916D01*
X220573Y192925D01*
X220555Y192934D01*
X220527Y192953D01*
X220481Y192981D01*
X220425Y193008D01*
X220361Y193045D01*
X220213Y193129D01*
X220028Y193202D01*
X219824Y193267D01*
X219603Y193313D01*
X219482Y193332D01*
X219297D01*
X219233Y193323D01*
X219149Y193304D01*
X219057Y193286D01*
X218955Y193249D01*
X218863Y193193D01*
X218780Y193129D01*
X218770Y193119D01*
X218752Y193092D01*
X218715Y193045D01*
X218678Y192990D01*
X218641Y192916D01*
X218604Y192823D01*
X218585Y192722D01*
X218576Y192611D01*
Y192602D01*
Y192583D01*
X218585Y192555D01*
X218595Y192518D01*
X218613Y192472D01*
X218641Y192417D01*
X218678Y192352D01*
X218724Y192278D01*
X218780Y192195D01*
X218863Y192111D01*
X218955Y192019D01*
X219066Y191927D01*
X219205Y191825D01*
X219353Y191723D01*
X219538Y191621D01*
X219741Y191511D01*
X219750D01*
X219769Y191501D01*
X219797Y191483D01*
X219843Y191455D01*
X219954Y191400D01*
X220083Y191326D01*
X220231Y191242D01*
X220379Y191150D01*
X220518Y191048D01*
X220629Y190956D01*
X220638Y190947D01*
X220675Y190910D01*
X220721Y190863D01*
X220786Y190789D01*
X220851Y190706D01*
X220925Y190604D01*
X220989Y190484D01*
X221045Y190364D01*
X221054Y190346D01*
X221073Y190309D01*
X221091Y190235D01*
X221119Y190142D01*
X221147Y190031D01*
X221174Y189911D01*
X221183Y189763D01*
X221193Y189615D01*
Y189606D01*
Y189578D01*
Y189541D01*
X221183Y189495D01*
X221174Y189430D01*
X221165Y189356D01*
X221119Y189181D01*
X221045Y188986D01*
X220998Y188885D01*
X220943Y188783D01*
X220878Y188681D01*
X220795Y188580D01*
X220703Y188478D01*
X220601Y188386D01*
X220592Y188376D01*
X220573Y188367D01*
X220536Y188339D01*
X220490Y188312D01*
X220435Y188275D01*
X220361Y188238D01*
X220277Y188191D01*
X220185Y188145D01*
X220074Y188099D01*
X219954Y188053D01*
X219824Y188016D01*
X219686Y187979D01*
X219538Y187951D01*
X219371Y187923D01*
X219205Y187914D01*
X219020Y187905D01*
X218937D01*
X218872Y187914D01*
X218798D01*
X218715Y187932D01*
X218613Y187942D01*
X218502Y187960D01*
X218262Y188016D01*
X218003Y188090D01*
X217735Y188201D01*
X217605Y188275D01*
X217476Y188349D01*
X217873Y189329D01*
X217883Y189319D01*
X217901Y189310D01*
X217938Y189292D01*
X217985Y189255D01*
X218040Y189227D01*
X218114Y189190D01*
X218271Y189107D01*
X218465Y189023D01*
X218678Y188950D01*
X218909Y188894D01*
X219020Y188885D01*
X219140Y188876D01*
X219186D01*
X219233Y188885D01*
X219288D01*
X219362Y188894D01*
X219445Y188913D01*
X219621Y188959D01*
X219713Y188996D01*
X219797Y189042D01*
X219880Y189088D01*
X219954Y189153D01*
X220009Y189236D01*
X220065Y189319D01*
X220093Y189421D01*
X220102Y189541D01*
Y189560D01*
Y189597D01*
X220093Y189652D01*
X220074Y189735D01*
X220046Y189828D01*
X220000Y189930D01*
X219944Y190031D01*
X219871Y190142D01*
X219861Y190151D01*
X219824Y190188D01*
X219760Y190253D01*
X219667Y190327D01*
X219547Y190429D01*
X219473Y190475D01*
X219381Y190530D01*
X219288Y190595D01*
X219177Y190651D01*
X219066Y190715D01*
X218937Y190780D01*
X218927D01*
X218909Y190799D01*
X218872Y190817D01*
X218826Y190836D01*
X218770Y190873D01*
X218706Y190900D01*
X218558Y190984D01*
X218391Y191076D01*
X218243Y191178D01*
X218095Y191270D01*
X218040Y191316D01*
X217985Y191363D01*
X217975Y191372D01*
X217948Y191400D01*
X217901Y191455D01*
X217846Y191520D01*
X217790Y191594D01*
X217726Y191686D01*
X217670Y191797D01*
X217615Y191908D01*
X217605Y191927D01*
X217596Y191964D01*
X217578Y192028D01*
X217550Y192111D01*
X217522Y192213D01*
X217504Y192333D01*
X217495Y192463D01*
X217485Y192602D01*
Y192611D01*
Y192629D01*
Y192666D01*
X217495Y192722D01*
X217504Y192777D01*
X217513Y192851D01*
X217550Y193018D01*
X217615Y193202D01*
X217707Y193406D01*
X217763Y193498D01*
X217836Y193600D01*
X217910Y193692D01*
X218003Y193785D01*
X218012Y193794D01*
X218031Y193803D01*
X218058Y193831D01*
X218095Y193859D01*
X218151Y193896D01*
X218216Y193933D01*
X218290Y193979D01*
X218373Y194025D01*
X218465Y194062D01*
X218558Y194109D01*
X218789Y194182D01*
X219057Y194238D01*
X219196Y194247D01*
X219344Y194256D01*
X219445D01*
X219519Y194247D01*
D02*
G37*
G36*
X277082Y190521D02*
Y188006D01*
X275991D01*
Y190521D01*
X273920Y194155D01*
X275076D01*
X276528Y191529D01*
X277988Y194155D01*
X279144D01*
X277082Y190521D01*
D02*
G37*
G36*
X229227Y187923D02*
X228783D01*
X225797Y191816D01*
Y188006D01*
X224743D01*
Y194155D01*
X225270D01*
X228173Y190447D01*
Y194155D01*
X229227D01*
Y187923D01*
D02*
G37*
G36*
X263972Y188006D02*
X262918D01*
X262271Y191316D01*
X261041Y187923D01*
X260653D01*
X259414Y191316D01*
X258748Y188006D01*
X257694D01*
X258933Y194155D01*
X259516D01*
X260847Y190013D01*
X262141Y194155D01*
X262715D01*
X263972Y188006D01*
D02*
G37*
G36*
X209488Y194256D02*
X209571D01*
X209654Y194247D01*
X209756Y194229D01*
X209867Y194210D01*
X210089Y194164D01*
X210329Y194090D01*
X210560Y193979D01*
X210671Y193914D01*
X210773Y193840D01*
X210782D01*
X210791Y193822D01*
X210819Y193794D01*
X210856Y193766D01*
X210893Y193720D01*
X210939Y193665D01*
X211032Y193535D01*
X211124Y193369D01*
X211208Y193165D01*
X211272Y192934D01*
X211281Y192805D01*
X211291Y192666D01*
Y192657D01*
Y192629D01*
X211281Y192583D01*
Y192518D01*
X211263Y192444D01*
X211254Y192361D01*
X211226Y192259D01*
X211198Y192158D01*
X211152Y192047D01*
X211106Y191936D01*
X211041Y191825D01*
X210967Y191714D01*
X210875Y191603D01*
X210773Y191492D01*
X210653Y191390D01*
X210514Y191298D01*
X210523Y191289D01*
X210560Y191279D01*
X210606Y191252D01*
X210671Y191205D01*
X210745Y191159D01*
X210828Y191094D01*
X210912Y191021D01*
X211004Y190928D01*
X211096Y190826D01*
X211180Y190715D01*
X211263Y190586D01*
X211337Y190447D01*
X211402Y190299D01*
X211448Y190133D01*
X211485Y189957D01*
X211494Y189763D01*
Y189754D01*
Y189726D01*
Y189680D01*
X211485Y189615D01*
X211476Y189541D01*
X211466Y189458D01*
X211448Y189366D01*
X211420Y189264D01*
X211355Y189042D01*
X211309Y188931D01*
X211244Y188820D01*
X211180Y188709D01*
X211106Y188598D01*
X211013Y188496D01*
X210912Y188404D01*
X210902Y188395D01*
X210884Y188386D01*
X210847Y188358D01*
X210801Y188330D01*
X210745Y188293D01*
X210671Y188256D01*
X210588Y188210D01*
X210495Y188164D01*
X210385Y188117D01*
X210264Y188071D01*
X210135Y188034D01*
X209987Y187997D01*
X209830Y187969D01*
X209663Y187942D01*
X209488Y187932D01*
X209303Y187923D01*
X209210D01*
X209146Y187932D01*
X209072Y187942D01*
X208979Y187951D01*
X208868Y187969D01*
X208757Y187997D01*
X208508Y188071D01*
X208378Y188117D01*
X208249Y188173D01*
X208110Y188247D01*
X207981Y188330D01*
X207851Y188423D01*
X207722Y188524D01*
X208267Y189366D01*
X208277Y189356D01*
X208286Y189347D01*
X208314Y189319D01*
X208351Y189282D01*
X208452Y189199D01*
X208582Y189107D01*
X208730Y189014D01*
X208915Y188931D01*
X209109Y188866D01*
X209210Y188857D01*
X209312Y188848D01*
X209358D01*
X209405Y188857D01*
X209478Y188866D01*
X209552Y188876D01*
X209645Y188903D01*
X209737Y188931D01*
X209839Y188968D01*
X209932Y189023D01*
X210024Y189088D01*
X210117Y189162D01*
X210190Y189264D01*
X210264Y189375D01*
X210311Y189504D01*
X210348Y189652D01*
X210357Y189828D01*
Y189837D01*
Y189846D01*
Y189902D01*
X210338Y189985D01*
X210320Y190087D01*
X210283Y190198D01*
X210227Y190318D01*
X210154Y190438D01*
X210052Y190549D01*
X210042Y190558D01*
X209996Y190595D01*
X209932Y190641D01*
X209839Y190697D01*
X209719Y190743D01*
X209580Y190789D01*
X209423Y190826D01*
X209238Y190836D01*
X209053D01*
Y191732D01*
X209247D01*
X209294Y191742D01*
X209358D01*
X209432Y191760D01*
X209506Y191769D01*
X209682Y191834D01*
X209774Y191871D01*
X209858Y191927D01*
X209932Y191982D01*
X210005Y192056D01*
X210070Y192148D01*
X210117Y192250D01*
X210144Y192370D01*
X210154Y192509D01*
Y192518D01*
Y192546D01*
X210144Y192583D01*
Y192638D01*
X210126Y192703D01*
X210107Y192777D01*
X210079Y192851D01*
X210042Y192925D01*
X209996Y192999D01*
X209941Y193082D01*
X209867Y193147D01*
X209784Y193212D01*
X209682Y193267D01*
X209562Y193304D01*
X209432Y193332D01*
X209275Y193341D01*
X209257D01*
X209201Y193332D01*
X209109Y193323D01*
X208998Y193286D01*
X208859Y193239D01*
X208711Y193165D01*
X208554Y193055D01*
X208480Y192990D01*
X208397Y192916D01*
X207888Y193665D01*
X207897Y193674D01*
X207925Y193702D01*
X207971Y193748D01*
X208036Y193803D01*
X208119Y193868D01*
X208230Y193942D01*
X208351Y194016D01*
X208498Y194081D01*
X208508D01*
X208517Y194090D01*
X208573Y194109D01*
X208656Y194136D01*
X208767Y194173D01*
X208887Y194210D01*
X209035Y194238D01*
X209183Y194256D01*
X209340Y194266D01*
X209432D01*
X209488Y194256D01*
D02*
G37*
G36*
X270860Y188977D02*
X273643D01*
Y188006D01*
X269769D01*
Y194155D01*
X270860D01*
Y188977D01*
D02*
G37*
G36*
X266542Y194201D02*
X266626D01*
X266718Y194192D01*
X266820Y194173D01*
X266931Y194155D01*
X267171Y194109D01*
X267421Y194035D01*
X267661Y193933D01*
X267781Y193868D01*
X267883Y193794D01*
X267892D01*
X267911Y193776D01*
X267929Y193748D01*
X267966Y193720D01*
X268059Y193628D01*
X268160Y193498D01*
X268253Y193332D01*
X268345Y193129D01*
X268382Y193018D01*
X268401Y192897D01*
X268419Y192768D01*
X268428Y192629D01*
Y192620D01*
Y192602D01*
X268419Y192555D01*
Y192509D01*
X268401Y192444D01*
X268391Y192380D01*
X268336Y192213D01*
X268290Y192121D01*
X268244Y192028D01*
X268179Y191927D01*
X268105Y191834D01*
X268012Y191742D01*
X267911Y191649D01*
X267791Y191557D01*
X267652Y191474D01*
X267661D01*
X267698Y191455D01*
X267754Y191427D01*
X267827Y191390D01*
X267920Y191344D01*
X268012Y191279D01*
X268114Y191205D01*
X268225Y191122D01*
X268336Y191011D01*
X268438Y190900D01*
X268530Y190762D01*
X268623Y190614D01*
X268697Y190447D01*
X268752Y190253D01*
X268789Y190050D01*
X268798Y189828D01*
Y189819D01*
Y189791D01*
Y189745D01*
X268789Y189689D01*
X268780Y189615D01*
X268761Y189532D01*
X268715Y189347D01*
X268687Y189245D01*
X268641Y189134D01*
X268595Y189023D01*
X268530Y188913D01*
X268456Y188802D01*
X268373Y188691D01*
X268271Y188589D01*
X268160Y188496D01*
X268151Y188487D01*
X268133Y188478D01*
X268096Y188450D01*
X268049Y188423D01*
X267985Y188386D01*
X267911Y188339D01*
X267818Y188293D01*
X267717Y188256D01*
X267606Y188210D01*
X267476Y188164D01*
X267347Y188117D01*
X267199Y188080D01*
X267042Y188053D01*
X266884Y188025D01*
X266709Y188016D01*
X266524Y188006D01*
X264647D01*
Y194146D01*
X264702D01*
X264767Y194155D01*
X264850D01*
X264952Y194164D01*
X265063D01*
X265193Y194173D01*
X265331Y194182D01*
X265618Y194192D01*
X265904Y194201D01*
X266043D01*
X266163Y194210D01*
X266478D01*
X266542Y194201D01*
D02*
G37*
G36*
X257232Y193184D02*
X254440D01*
Y191742D01*
X256428D01*
Y190817D01*
X254440D01*
Y188977D01*
X257232D01*
Y188006D01*
X253349D01*
Y194155D01*
X257232D01*
Y193184D01*
D02*
G37*
G36*
X243909Y188006D02*
X242707D01*
X242254Y189255D01*
X240137D01*
X239712Y188006D01*
X238500D01*
X240960Y194238D01*
X241441D01*
X243909Y188006D01*
D02*
G37*
G36*
X216477D02*
X215387D01*
Y194155D01*
X216477D01*
Y188006D01*
D02*
G37*
G36*
X205549D02*
X204458D01*
Y192435D01*
X203210Y191686D01*
Y192740D01*
X203228Y192749D01*
X203265Y192768D01*
X203330Y192796D01*
X203413Y192842D01*
X203515Y192897D01*
X203626Y192971D01*
X203755Y193045D01*
X203903Y193138D01*
X204051Y193239D01*
X204199Y193350D01*
X204523Y193591D01*
X204828Y193877D01*
X204976Y194025D01*
X205115Y194182D01*
X205549D01*
Y188006D01*
D02*
G37*
G36*
X199308Y194210D02*
X199364D01*
X199521Y194192D01*
X199697Y194164D01*
X199891Y194127D01*
X200103Y194072D01*
X200325Y193998D01*
X200547Y193896D01*
X200760Y193776D01*
X200954Y193628D01*
X201130Y193452D01*
X201287Y193249D01*
X201342Y193129D01*
X201398Y193008D01*
X201444Y192870D01*
X201472Y192731D01*
X201490Y192574D01*
X201500Y192407D01*
Y192398D01*
Y192380D01*
Y192352D01*
X201490Y192315D01*
X201481Y192213D01*
X201463Y192075D01*
X201416Y191927D01*
X201361Y191760D01*
X201287Y191584D01*
X201176Y191409D01*
Y191400D01*
X201157Y191390D01*
X201120Y191335D01*
X201047Y191252D01*
X200954Y191159D01*
X200834Y191057D01*
X200695Y190947D01*
X200538Y190854D01*
X200362Y190771D01*
X202184Y188006D01*
X200926D01*
X199271Y190549D01*
X199096D01*
X199003Y190558D01*
X198883D01*
X198744Y190567D01*
X198587Y190577D01*
Y188006D01*
X197450D01*
Y194155D01*
X197570D01*
X197663Y194164D01*
X197783D01*
X197866Y194173D01*
X197949D01*
X198042Y194182D01*
X198208D01*
X198254Y194192D01*
X198365D01*
X198513Y194201D01*
X198670Y194210D01*
X198837D01*
X199003Y194219D01*
X199253D01*
X199308Y194210D01*
D02*
G37*
G36*
X232962Y194256D02*
X233055D01*
X233166Y194238D01*
X233295Y194219D01*
X233434Y194201D01*
X233591Y194164D01*
X233748Y194118D01*
X233915Y194062D01*
X234081Y193998D01*
X234257Y193914D01*
X234423Y193822D01*
X234580Y193711D01*
X234728Y193591D01*
X234867Y193443D01*
X234876Y193434D01*
X234895Y193406D01*
X234932Y193360D01*
X234978Y193295D01*
X235033Y193202D01*
X235089Y193101D01*
X235154Y192981D01*
X235218Y192842D01*
X235283Y192694D01*
X235348Y192518D01*
X235403Y192324D01*
X235459Y192121D01*
X235505Y191899D01*
X235542Y191658D01*
X235560Y191400D01*
X235570Y191131D01*
Y191113D01*
Y191067D01*
Y190993D01*
X235560Y190882D01*
X235551Y190762D01*
X235533Y190614D01*
X235505Y190457D01*
X235477Y190281D01*
X235440Y190096D01*
X235394Y189902D01*
X235329Y189708D01*
X235255Y189513D01*
X235172Y189310D01*
X235070Y189125D01*
X234959Y188940D01*
X234830Y188774D01*
X234821Y188765D01*
X234793Y188737D01*
X234756Y188691D01*
X234691Y188635D01*
X234617Y188570D01*
X234525Y188496D01*
X234423Y188423D01*
X234294Y188339D01*
X234155Y188256D01*
X233998Y188182D01*
X233831Y188108D01*
X233647Y188043D01*
X233443Y187988D01*
X233230Y187942D01*
X232999Y187914D01*
X232750Y187905D01*
X232694D01*
X232630Y187914D01*
X232546D01*
X232445Y187932D01*
X232324Y187951D01*
X232186Y187979D01*
X232047Y188016D01*
X231899Y188062D01*
X231742Y188117D01*
X231585Y188182D01*
X231428Y188265D01*
X231270Y188367D01*
X231122Y188478D01*
X230975Y188617D01*
X230845Y188765D01*
X230836Y188774D01*
X230817Y188802D01*
X230780Y188857D01*
X230743Y188922D01*
X230697Y189014D01*
X230642Y189116D01*
X230577Y189245D01*
X230522Y189384D01*
X230457Y189541D01*
X230392Y189717D01*
X230337Y189911D01*
X230290Y190124D01*
X230253Y190355D01*
X230216Y190595D01*
X230198Y190854D01*
X230189Y191131D01*
Y191150D01*
Y191187D01*
X230198Y191261D01*
Y191353D01*
X230207Y191464D01*
X230226Y191594D01*
X230244Y191742D01*
X230281Y191899D01*
X230318Y192075D01*
X230364Y192250D01*
X230420Y192435D01*
X230494Y192620D01*
X230568Y192805D01*
X230669Y192999D01*
X230771Y193175D01*
X230901Y193350D01*
X230910Y193360D01*
X230938Y193387D01*
X230975Y193434D01*
X231030Y193498D01*
X231104Y193563D01*
X231196Y193637D01*
X231298Y193720D01*
X231409Y193813D01*
X231548Y193896D01*
X231686Y193979D01*
X231853Y194053D01*
X232019Y194127D01*
X232204Y194182D01*
X232398Y194229D01*
X232611Y194256D01*
X232833Y194266D01*
X232888D01*
X232962Y194256D01*
D02*
G37*
%LPC*%
G36*
X266357Y193295D02*
X266191D01*
X266099Y193286D01*
X265988D01*
X265867Y193276D01*
X265738Y193267D01*
Y191797D01*
X265895D01*
X265978Y191788D01*
X266311D01*
X266367Y191797D01*
X266431D01*
X266515Y191816D01*
X266607Y191834D01*
X266700Y191853D01*
X266801Y191890D01*
X266903Y191927D01*
X266995Y191982D01*
X267088Y192047D01*
X267171Y192121D01*
X267236Y192213D01*
X267291Y192324D01*
X267328Y192444D01*
X267337Y192583D01*
Y192592D01*
Y192611D01*
X267328Y192648D01*
X267319Y192694D01*
X267282Y192805D01*
X267254Y192870D01*
X267217Y192944D01*
X267162Y193008D01*
X267097Y193073D01*
X267023Y193129D01*
X266921Y193184D01*
X266810Y193230D01*
X266681Y193267D01*
X266533Y193286D01*
X266357Y193295D01*
D02*
G37*
G36*
X266422Y190965D02*
X266080D01*
X265988Y190956D01*
X265877D01*
X265738Y190947D01*
Y188922D01*
X265793D01*
X265849Y188913D01*
X265923D01*
X266015Y188903D01*
X266099D01*
X266191Y188894D01*
X266394D01*
X266450Y188903D01*
X266524D01*
X266681Y188922D01*
X266847Y188950D01*
X267023Y188996D01*
X267190Y189051D01*
X267328Y189134D01*
X267347Y189144D01*
X267384Y189181D01*
X267430Y189245D01*
X267495Y189329D01*
X267559Y189449D01*
X267606Y189587D01*
X267643Y189754D01*
X267661Y189957D01*
Y189967D01*
Y189985D01*
Y190004D01*
Y190040D01*
X267643Y190133D01*
X267624Y190253D01*
X267587Y190373D01*
X267532Y190503D01*
X267448Y190623D01*
X267347Y190725D01*
X267328Y190734D01*
X267291Y190762D01*
X267208Y190799D01*
X267097Y190845D01*
X267032Y190863D01*
X266949Y190891D01*
X266866Y190910D01*
X266773Y190928D01*
X266663Y190947D01*
X266552Y190956D01*
X266422Y190965D01*
D02*
G37*
G36*
X241200Y192361D02*
X240451Y190087D01*
X241931D01*
X241200Y192361D01*
D02*
G37*
G36*
X198948Y193230D02*
X198837D01*
X198726Y193221D01*
X198587Y193202D01*
Y191492D01*
X198633D01*
X198689Y191483D01*
X198754D01*
X198902Y191474D01*
X199151D01*
X199207Y191483D01*
X199271D01*
X199419Y191501D01*
X199586Y191520D01*
X199752Y191548D01*
X199909Y191594D01*
X200039Y191658D01*
X200057Y191668D01*
X200094Y191695D01*
X200140Y191751D01*
X200205Y191825D01*
X200261Y191927D01*
X200316Y192056D01*
X200353Y192222D01*
X200362Y192417D01*
Y192426D01*
Y192435D01*
X200353Y192491D01*
X200344Y192574D01*
X200316Y192666D01*
X200279Y192768D01*
X200214Y192870D01*
X200131Y192971D01*
X200020Y193045D01*
X200002Y193055D01*
X199956Y193073D01*
X199872Y193101D01*
X199761Y193138D01*
X199604Y193175D01*
X199419Y193202D01*
X199207Y193221D01*
X198948Y193230D01*
D02*
G37*
G36*
X232833Y193295D02*
X232759D01*
X232713Y193286D01*
X232648Y193276D01*
X232583Y193267D01*
X232417Y193221D01*
X232241Y193147D01*
X232149Y193101D01*
X232056Y193045D01*
X231964Y192981D01*
X231871Y192897D01*
X231788Y192805D01*
X231714Y192703D01*
Y192694D01*
X231696Y192675D01*
X231677Y192648D01*
X231649Y192602D01*
X231622Y192537D01*
X231594Y192463D01*
X231557Y192380D01*
X231520Y192287D01*
X231483Y192185D01*
X231446Y192065D01*
X231418Y191936D01*
X231391Y191797D01*
X231363Y191640D01*
X231344Y191483D01*
X231335Y191316D01*
X231326Y191131D01*
Y191122D01*
Y191085D01*
Y191030D01*
X231335Y190956D01*
Y190863D01*
X231344Y190762D01*
X231354Y190641D01*
X231372Y190521D01*
X231418Y190244D01*
X231474Y189967D01*
X231566Y189698D01*
X231622Y189578D01*
X231686Y189458D01*
Y189449D01*
X231705Y189430D01*
X231723Y189403D01*
X231751Y189366D01*
X231844Y189273D01*
X231955Y189171D01*
X232112Y189060D01*
X232287Y188968D01*
X232398Y188931D01*
X232509Y188903D01*
X232620Y188885D01*
X232750Y188876D01*
X232824D01*
X232888Y188885D01*
X232953Y188894D01*
X233027Y188903D01*
X233212Y188950D01*
X233415Y189014D01*
X233517Y189060D01*
X233619Y189116D01*
X233720Y189181D01*
X233822Y189264D01*
X233915Y189347D01*
X233998Y189449D01*
X234007Y189458D01*
X234016Y189477D01*
X234035Y189513D01*
X234063Y189560D01*
X234100Y189615D01*
X234137Y189689D01*
X234174Y189782D01*
X234220Y189874D01*
X234257Y189994D01*
X234294Y190114D01*
X234331Y190253D01*
X234368Y190401D01*
X234395Y190567D01*
X234414Y190743D01*
X234432Y190928D01*
Y191131D01*
Y191141D01*
Y191159D01*
Y191187D01*
Y191224D01*
X234423Y191270D01*
Y191335D01*
X234405Y191474D01*
X234386Y191631D01*
X234349Y191816D01*
X234303Y192010D01*
X234229Y192213D01*
X234146Y192417D01*
X234044Y192611D01*
X233915Y192796D01*
X233757Y192953D01*
X233573Y193092D01*
X233471Y193156D01*
X233360Y193202D01*
X233240Y193239D01*
X233110Y193267D01*
X232981Y193286D01*
X232833Y193295D01*
D02*
G37*
%LPD*%
D11*
X108801Y158607D02*
X159001D01*
X108900Y108506D02*
X158900D01*
X108801Y158607D02*
X108900Y108506D01*
X158900D02*
X159001Y158607D01*
X181256Y132496D02*
X201256D01*
X181256D02*
Y153496D01*
X201256D01*
Y132496D02*
Y153496D01*
X40375Y79781D02*
X52875D01*
X40375Y53531D02*
Y79781D01*
Y53531D02*
X52875D01*
Y79781D01*
X40375Y55031D02*
X52875D01*
X40375Y56031D02*
X52875D01*
X40375Y57531D02*
X52875D01*
X40375Y59031D02*
X52875D01*
X245700Y113006D02*
Y125506D01*
X244200Y113006D02*
Y125506D01*
X242700Y113006D02*
Y125506D01*
X241700Y113006D02*
Y125506D01*
X240200Y113006D02*
X266450D01*
X240200D02*
Y125506D01*
X266450D01*
Y113006D02*
Y125506D01*
Y99006D02*
Y111506D01*
X240200D02*
X266450D01*
X240200Y99006D02*
Y111506D01*
Y99006D02*
X266450D01*
X241700D02*
Y111506D01*
X242700Y99006D02*
Y111506D01*
X244200Y99006D02*
Y111506D01*
X245700Y99006D02*
Y111506D01*
X266300Y84806D02*
Y97306D01*
X240050D02*
X266300D01*
X240050Y84806D02*
Y97306D01*
Y84806D02*
X266300D01*
X241550D02*
Y97306D01*
X242550Y84806D02*
Y97306D01*
X244050Y84806D02*
Y97306D01*
X245550Y84806D02*
Y97306D01*
X95399Y57757D02*
X123399D01*
Y86757D01*
X95399D02*
X123399D01*
X95399Y57757D02*
Y86757D01*
X211749Y36248D02*
X209749D01*
X210749D01*
Y31250D01*
X209749Y30250D01*
X208750D01*
X207750Y31250D01*
X213748Y30250D02*
Y36248D01*
X216747D01*
X217747Y35248D01*
Y33249D01*
X216747Y32249D01*
X213748D01*
X223745Y30250D02*
X219746D01*
X223745Y34249D01*
Y35248D01*
X222745Y36248D01*
X220746D01*
X219746Y35248D01*
X71342Y140248D02*
Y139249D01*
X73341Y137249D01*
X75340Y139249D01*
Y140248D01*
X73341Y137249D02*
Y134250D01*
X77340D02*
X79339D01*
X78340D01*
Y140248D01*
X77340Y139249D01*
X201000Y96107D02*
X195002D01*
Y99106D01*
X196002Y100105D01*
X198001D01*
X199001Y99106D01*
Y96107D01*
Y98106D02*
X201000Y100105D01*
X196002Y102105D02*
X195002Y103104D01*
Y105104D01*
X196002Y106103D01*
X197001D01*
X198001Y105104D01*
X199001Y106103D01*
X200000D01*
X201000Y105104D01*
Y103104D01*
X200000Y102105D01*
X199001D01*
X198001Y103104D01*
X197001Y102105D01*
X196002D01*
X198001Y103104D02*
Y105104D01*
X228634Y160816D02*
X227634Y159817D01*
Y157817D01*
X228634Y156818D01*
X229633D01*
X230633Y157817D01*
Y159817D01*
X231633Y160816D01*
X232632D01*
X233632Y159817D01*
Y157817D01*
X232632Y156818D01*
X227634Y162816D02*
X233632D01*
X231633Y164815D01*
X233632Y166814D01*
X227634D01*
X233632Y171813D02*
X227634D01*
X230633Y168814D01*
Y172813D01*
X81200Y95756D02*
Y89757D01*
X78201D01*
X77201Y90757D01*
Y92757D01*
X78201Y93756D01*
X81200D01*
X79201D02*
X77201Y95756D01*
X75202D02*
X73203D01*
X74202D01*
Y89757D01*
X75202Y90757D01*
X66205Y89757D02*
X70204D01*
Y92757D01*
X68204Y91757D01*
X67204D01*
X66205Y92757D01*
Y94756D01*
X67204Y95756D01*
X69204D01*
X70204Y94756D01*
X40450Y89756D02*
Y95754D01*
X43449D01*
X44449Y94754D01*
Y92755D01*
X43449Y91755D01*
X40450D01*
X42449D02*
X44449Y89756D01*
X46448D02*
X48447D01*
X47448D01*
Y95754D01*
X46448Y94754D01*
X54446Y89756D02*
Y95754D01*
X51446Y92755D01*
X55445D01*
X103700Y75004D02*
Y70006D01*
X104700Y69006D01*
X106699D01*
X107699Y70006D01*
Y75004D01*
X113697Y69006D02*
X109698D01*
X113697Y73005D01*
Y74005D01*
X112697Y75004D01*
X110698D01*
X109698Y74005D01*
X74252Y63148D02*
X73252Y62149D01*
Y60149D01*
X74252Y59150D01*
X78250D01*
X79250Y60149D01*
Y62149D01*
X78250Y63148D01*
X79250Y65148D02*
Y67147D01*
Y66147D01*
X73252D01*
X74252Y65148D01*
Y70146D02*
X73252Y71146D01*
Y73145D01*
X74252Y74145D01*
X78250D01*
X79250Y73145D01*
Y71146D01*
X78250Y70146D01*
X74252D01*
X146451Y60308D02*
X147451Y59308D01*
X149450D01*
X150450Y60308D01*
Y64307D01*
X149450Y65306D01*
X147451D01*
X146451Y64307D01*
X144452Y60308D02*
X143452Y59308D01*
X141453D01*
X140453Y60308D01*
Y61308D01*
X141453Y62307D01*
X140453Y63307D01*
Y64307D01*
X141453Y65306D01*
X143452D01*
X144452Y64307D01*
Y63307D01*
X143452Y62307D01*
X144452Y61308D01*
Y60308D01*
X143452Y62307D02*
X141453D01*
X281300Y116006D02*
Y122004D01*
X284299D01*
X285299Y121004D01*
Y119005D01*
X284299Y118005D01*
X281300D01*
X283299D02*
X285299Y116006D01*
X287298Y122004D02*
X291297D01*
Y121004D01*
X287298Y117005D01*
Y116006D01*
X281396Y102006D02*
Y108004D01*
X284395D01*
X285394Y107005D01*
Y105005D01*
X284395Y104006D01*
X281396D01*
X283395D02*
X285394Y102006D01*
X291393Y108004D02*
X287394D01*
Y105005D01*
X289393Y106005D01*
X290393D01*
X291393Y105005D01*
Y103006D01*
X290393Y102006D01*
X288394D01*
X287394Y103006D01*
X249000Y121254D02*
Y115256D01*
X251999D01*
X252999Y116256D01*
Y120255D01*
X251999Y121254D01*
X249000D01*
X254998Y120255D02*
X255998Y121254D01*
X257997D01*
X258997Y120255D01*
Y119255D01*
X257997Y118255D01*
X256997D01*
X257997D01*
X258997Y117256D01*
Y116256D01*
X257997Y115256D01*
X255998D01*
X254998Y116256D01*
X249500Y108254D02*
Y102256D01*
X252499D01*
X253499Y103256D01*
Y107255D01*
X252499Y108254D01*
X249500D01*
X259497Y102256D02*
X255498D01*
X259497Y106255D01*
Y107255D01*
X258497Y108254D01*
X256498D01*
X255498Y107255D01*
X184200Y175706D02*
X190198D01*
Y172707D01*
X189198Y171708D01*
X187199D01*
X186199Y172707D01*
Y175706D01*
Y173707D02*
X184200Y171708D01*
Y166709D02*
X190198D01*
X187199Y169708D01*
Y165710D01*
X168700Y175456D02*
X174698D01*
Y172457D01*
X173698Y171458D01*
X171699D01*
X170699Y172457D01*
Y175456D01*
Y173457D02*
X168700Y171458D01*
X173698Y169458D02*
X174698Y168459D01*
Y166459D01*
X173698Y165460D01*
X172699D01*
X171699Y166459D01*
Y167459D01*
Y166459D01*
X170699Y165460D01*
X169700D01*
X168700Y166459D01*
Y168459D01*
X169700Y169458D01*
X128950Y138254D02*
Y133256D01*
X129950Y132256D01*
X131949D01*
X132949Y133256D01*
Y138254D01*
X134948Y132256D02*
X136947D01*
X135948D01*
Y138254D01*
X134948Y137255D01*
X219500Y135106D02*
X213502D01*
Y138105D01*
X214502Y139105D01*
X216501D01*
X217501Y138105D01*
Y135106D01*
Y137106D02*
X219500Y139105D01*
Y141104D02*
Y143104D01*
Y142104D01*
X213502D01*
X214502Y141104D01*
Y146103D02*
X213502Y147102D01*
Y149102D01*
X214502Y150101D01*
X218500D01*
X219500Y149102D01*
Y147102D01*
X218500Y146103D01*
X214502D01*
X216450Y96107D02*
X210452D01*
Y99106D01*
X211452Y100105D01*
X213451D01*
X214451Y99106D01*
Y96107D01*
Y98106D02*
X216450Y100105D01*
X210452Y106103D02*
X211452Y104104D01*
X213451Y102105D01*
X215450D01*
X216450Y103104D01*
Y105104D01*
X215450Y106103D01*
X214451D01*
X213451Y105104D01*
Y102105D01*
X281346Y88305D02*
Y94303D01*
X284345D01*
X285345Y93304D01*
Y91304D01*
X284345Y90305D01*
X281346D01*
X283345D02*
X285345Y88305D01*
X291343D02*
X287344D01*
X291343Y92304D01*
Y93304D01*
X290343Y94303D01*
X288344D01*
X287344Y93304D01*
X149200Y187452D02*
X143202D01*
Y190452D01*
X144202Y191451D01*
X146201D01*
X147201Y190452D01*
Y187452D01*
Y189452D02*
X149200Y191451D01*
Y193451D02*
Y195450D01*
Y194450D01*
X143202D01*
X144202Y193451D01*
X192645Y142500D02*
Y146498D01*
X191645Y147498D01*
X189646D01*
X188646Y146498D01*
Y142500D01*
X189646Y141500D01*
X191645D01*
X190646Y143499D02*
X192645Y141500D01*
X191645D02*
X192645Y142500D01*
X194644Y141500D02*
X196644D01*
X195644D01*
Y147498D01*
X194644Y146498D01*
X250800Y93554D02*
Y87556D01*
X253799D01*
X254799Y88556D01*
Y92555D01*
X253799Y93554D01*
X250800D01*
X256798Y87556D02*
X258797D01*
X257798D01*
Y93554D01*
X256798Y92555D01*
X74699Y113599D02*
X73699Y114598D01*
X71700D01*
X70700Y113599D01*
Y109600D01*
X71700Y108600D01*
X73699D01*
X74699Y109600D01*
X76698Y114598D02*
X80697D01*
Y113599D01*
X76698Y109600D01*
Y108600D01*
X75451Y159258D02*
X76451Y158258D01*
X78450D01*
X79450Y159258D01*
Y163257D01*
X78450Y164256D01*
X76451D01*
X75451Y163257D01*
X69453Y158258D02*
X71453Y159258D01*
X73452Y161257D01*
Y163257D01*
X72452Y164256D01*
X70453D01*
X69453Y163257D01*
Y162257D01*
X70453Y161257D01*
X73452D01*
X96498Y102751D02*
X97498Y103751D01*
Y105750D01*
X96498Y106750D01*
X92500D01*
X91500Y105750D01*
Y103751D01*
X92500Y102751D01*
X97498Y96753D02*
Y100752D01*
X94499D01*
X95499Y98753D01*
Y97753D01*
X94499Y96753D01*
X92500D01*
X91500Y97753D01*
Y99752D01*
X92500Y100752D01*
X123749Y176498D02*
X122749Y177498D01*
X120750D01*
X119750Y176498D01*
Y172500D01*
X120750Y171500D01*
X122749D01*
X123749Y172500D01*
X128747Y171500D02*
Y177498D01*
X125748Y174499D01*
X129747D01*
X226002Y99855D02*
X225002Y98856D01*
Y96856D01*
X226002Y95857D01*
X230000D01*
X231000Y96856D01*
Y98856D01*
X230000Y99855D01*
X226002Y101855D02*
X225002Y102854D01*
Y104854D01*
X226002Y105853D01*
X227001D01*
X228001Y104854D01*
Y103854D01*
Y104854D01*
X229001Y105853D01*
X230000D01*
X231000Y104854D01*
Y102854D01*
X230000Y101855D01*
X183001Y101277D02*
X182002Y100277D01*
Y98278D01*
X183001Y97278D01*
X187000D01*
X188000Y98278D01*
Y100277D01*
X187000Y101277D01*
X188000Y107275D02*
Y103277D01*
X184001Y107275D01*
X183001D01*
X182002Y106276D01*
Y104276D01*
X183001Y103277D01*
X134648Y190758D02*
X135648Y191757D01*
Y193757D01*
X134648Y194756D01*
X130650D01*
X129650Y193757D01*
Y191757D01*
X130650Y190758D01*
X129650Y188758D02*
Y186759D01*
Y187759D01*
X135648D01*
X134648Y188758D01*
X247500Y130834D02*
Y136832D01*
X250499D01*
X251499Y135832D01*
Y133833D01*
X250499Y132833D01*
X247500D01*
X249499D02*
X251499Y130834D01*
X253498D02*
X255497D01*
X254498D01*
Y136832D01*
X253498Y135832D01*
X262495Y130834D02*
X258496D01*
X262495Y134833D01*
Y135832D01*
X261495Y136832D01*
X259496D01*
X258496Y135832D01*
X279300Y130334D02*
Y136332D01*
X282299D01*
X283299Y135332D01*
Y133333D01*
X282299Y132333D01*
X279300D01*
X281299D02*
X283299Y130334D01*
X285298D02*
X287297D01*
X286298D01*
Y136332D01*
X285298Y135332D01*
X290296D02*
X291296Y136332D01*
X293295D01*
X294295Y135332D01*
Y134333D01*
X293295Y133333D01*
X292296D01*
X293295D01*
X294295Y132333D01*
Y131334D01*
X293295Y130334D01*
X291296D01*
X290296Y131334D01*
X206700Y167756D02*
X200702D01*
Y170755D01*
X201702Y171755D01*
X203701D01*
X204701Y170755D01*
Y167756D01*
Y169756D02*
X206700Y171755D01*
X205700Y173755D02*
X206700Y174754D01*
Y176754D01*
X205700Y177753D01*
X201702D01*
X200702Y176754D01*
Y174754D01*
X201702Y173755D01*
X202701D01*
X203701Y174754D01*
Y177753D01*
X43452Y62756D02*
X49450D01*
Y65755D01*
X48450Y66755D01*
X44452D01*
X43452Y65755D01*
Y62756D01*
Y72753D02*
Y68755D01*
X46451D01*
X45451Y70754D01*
Y71754D01*
X46451Y72753D01*
X48450D01*
X49450Y71754D01*
Y69754D01*
X48450Y68755D01*
D12*
X237754Y142646D02*
Y181146D01*
X295754D01*
Y145146D02*
Y181146D01*
Y142646D02*
Y145146D01*
X237754Y142646D02*
X295754D01*
X45500Y6750D02*
Y45250D01*
X103500D01*
Y9250D02*
Y45250D01*
Y6750D02*
Y9250D01*
X45500Y6750D02*
X103500D01*
X327600Y7500D02*
Y202500D01*
X2600Y7500D02*
X327600D01*
X2600D02*
Y202500D01*
X327600D01*
D32*
X245100Y155000D02*
G03*
X245100Y155000I-5000J0D01*
G01*
X95100D02*
G03*
X95100Y155000I-5000J0D01*
G01*
Y55000D02*
G03*
X95100Y55000I-5000J0D01*
G01*
X245100D02*
G03*
X245100Y55000I-5000J0D01*
G01*
D39*
X256763Y153396D02*
G03*
X256763Y153396I-3509J0D01*
G01*
X64509Y17500D02*
G03*
X64509Y17500I-3509J0D01*
G01*
X184500Y-14750D02*
X283500D01*
X258000Y75250D02*
X283500D01*
X184500D02*
X210000D01*
X283500Y-14750D02*
Y-6750D01*
Y75250D01*
X184500Y-6250D02*
Y75250D01*
Y-14750D02*
Y-6250D01*
X165100Y7500D02*
Y202500D01*
X2600Y105000D02*
X327600D01*
X9950Y204991D02*
Y189756D01*
X17567D01*
X20107Y192296D01*
Y194835D01*
X17567Y197374D01*
X9950D01*
X17567D01*
X20107Y199913D01*
Y202452D01*
X17567Y204991D01*
X9950D01*
X25185Y189756D02*
X30263D01*
X27724D01*
Y204991D01*
X25185Y202452D01*
D40*
X46450Y52882D02*
D03*
M02*
