G04*
G04 #@! TF.GenerationSoftware,Altium Limited,Altium Designer,20.0.10 (225)*
G04*
G04 Layer_Physical_Order=1*
G04 Layer_Color=255*
%FSLAX44Y44*%
%MOMM*%
G71*
G01*
G75*
%ADD10C,0.2500*%
%ADD11C,0.1500*%
%ADD12C,0.2000*%
%ADD13R,3.4000X3.4000*%
G04:AMPARAMS|DCode=14|XSize=0.3mm|YSize=0.9mm|CornerRadius=0.075mm|HoleSize=0mm|Usage=FLASHONLY|Rotation=0.000|XOffset=0mm|YOffset=0mm|HoleType=Round|Shape=RoundedRectangle|*
%AMROUNDEDRECTD14*
21,1,0.3000,0.7500,0,0,0.0*
21,1,0.1500,0.9000,0,0,0.0*
1,1,0.1500,0.0750,-0.3750*
1,1,0.1500,-0.0750,-0.3750*
1,1,0.1500,-0.0750,0.3750*
1,1,0.1500,0.0750,0.3750*
%
%ADD14ROUNDEDRECTD14*%
G04:AMPARAMS|DCode=15|XSize=0.3mm|YSize=0.9mm|CornerRadius=0.075mm|HoleSize=0mm|Usage=FLASHONLY|Rotation=270.000|XOffset=0mm|YOffset=0mm|HoleType=Round|Shape=RoundedRectangle|*
%AMROUNDEDRECTD15*
21,1,0.3000,0.7500,0,0,270.0*
21,1,0.1500,0.9000,0,0,270.0*
1,1,0.1500,-0.3750,-0.0750*
1,1,0.1500,-0.3750,0.0750*
1,1,0.1500,0.3750,0.0750*
1,1,0.1500,0.3750,-0.0750*
%
%ADD15ROUNDEDRECTD15*%
%ADD16R,1.6000X1.0000*%
%ADD17R,0.6000X0.9000*%
%ADD18R,0.9000X0.6000*%
G04:AMPARAMS|DCode=19|XSize=0.5mm|YSize=0.6mm|CornerRadius=0.125mm|HoleSize=0mm|Usage=FLASHONLY|Rotation=180.000|XOffset=0mm|YOffset=0mm|HoleType=Round|Shape=RoundedRectangle|*
%AMROUNDEDRECTD19*
21,1,0.5000,0.3500,0,0,180.0*
21,1,0.2500,0.6000,0,0,180.0*
1,1,0.2500,-0.1250,0.1750*
1,1,0.2500,0.1250,0.1750*
1,1,0.2500,0.1250,-0.1750*
1,1,0.2500,-0.1250,-0.1750*
%
%ADD19ROUNDEDRECTD19*%
%ADD20R,0.5000X1.7000*%
G04:AMPARAMS|DCode=21|XSize=0.5mm|YSize=1.7mm|CornerRadius=0mm|HoleSize=0mm|Usage=FLASHONLY|Rotation=180.000|XOffset=0mm|YOffset=0mm|HoleType=Round|Shape=Octagon|*
%AMOCTAGOND21*
4,1,8,0.1250,-0.8500,-0.1250,-0.8500,-0.2500,-0.7250,-0.2500,0.7250,-0.1250,0.8500,0.1250,0.8500,0.2500,0.7250,0.2500,-0.7250,0.1250,-0.8500,0.0*
%
%ADD21OCTAGOND21*%

%ADD22R,2.0000X2.0000*%
%ADD23R,0.8000X0.6000*%
%ADD24R,0.8000X1.2000*%
%ADD25R,0.6000X0.8000*%
G04:AMPARAMS|DCode=26|XSize=0.6mm|YSize=0.9mm|CornerRadius=0.15mm|HoleSize=0mm|Usage=FLASHONLY|Rotation=270.000|XOffset=0mm|YOffset=0mm|HoleType=Round|Shape=RoundedRectangle|*
%AMROUNDEDRECTD26*
21,1,0.6000,0.6000,0,0,270.0*
21,1,0.3000,0.9000,0,0,270.0*
1,1,0.3000,-0.3000,-0.1500*
1,1,0.3000,-0.3000,0.1500*
1,1,0.3000,0.3000,0.1500*
1,1,0.3000,0.3000,-0.1500*
%
%ADD26ROUNDEDRECTD26*%
%ADD27R,0.9000X1.0000*%
G04:AMPARAMS|DCode=28|XSize=1mm|YSize=0.9mm|CornerRadius=0.225mm|HoleSize=0mm|Usage=FLASHONLY|Rotation=90.000|XOffset=0mm|YOffset=0mm|HoleType=Round|Shape=RoundedRectangle|*
%AMROUNDEDRECTD28*
21,1,1.0000,0.4500,0,0,90.0*
21,1,0.5500,0.9000,0,0,90.0*
1,1,0.4500,0.2250,0.2750*
1,1,0.4500,0.2250,-0.2750*
1,1,0.4500,-0.2250,-0.2750*
1,1,0.4500,-0.2250,0.2750*
%
%ADD28ROUNDEDRECTD28*%
%ADD29R,1.0000X0.6000*%
G04:AMPARAMS|DCode=30|XSize=1.6002mm|YSize=1.6002mm|CornerRadius=0mm|HoleSize=0mm|Usage=FLASHONLY|Rotation=270.000|XOffset=0mm|YOffset=0mm|HoleType=Round|Shape=Octagon|*
%AMOCTAGOND30*
4,1,8,-0.4001,-0.8001,0.4001,-0.8001,0.8001,-0.4001,0.8001,0.4001,0.4001,0.8001,-0.4001,0.8001,-0.8001,0.4001,-0.8001,-0.4001,-0.4001,-0.8001,0.0*
%
%ADD30OCTAGOND30*%

%ADD31C,0.5000*%
%ADD32C,0.4000*%
%ADD33C,0.5000*%
%ADD34C,0.3000*%
%ADD35C,0.1490*%
D10*
X207240Y145320D02*
X210560Y142000D01*
X220275D01*
X198943Y145320D02*
X207240D01*
X197479Y140478D02*
Y143855D01*
X198943Y145320D01*
X197000Y140000D02*
X197479Y140478D01*
X197298Y134048D02*
X197596Y133750D01*
X197298Y134048D02*
Y139702D01*
X197000Y140000D02*
X197298Y139702D01*
X92500Y108500D02*
X94000D01*
X87794Y103607D02*
X90750Y106563D01*
X55325Y103607D02*
X87794D01*
X90750Y106563D02*
Y106750D01*
X92500Y108500D01*
X93828Y103607D02*
Y107432D01*
X94000Y107604D02*
X94022D01*
X95772Y109354D01*
X93828Y107432D02*
X94000Y107604D01*
X136400Y109006D02*
X136650Y108756D01*
X182451Y118000D02*
X211535D01*
X163207Y98756D02*
X182451Y118000D01*
X211535D02*
Y124792D01*
X213450Y126707D01*
X228073Y108088D02*
X228200Y107960D01*
X198398Y108163D02*
X198450Y108215D01*
X136650Y103650D02*
X145544Y94756D01*
X109150Y125757D02*
X109400Y126007D01*
X103348Y125757D02*
X109150D01*
X183450Y107960D02*
X183652Y108163D01*
X182300Y107960D02*
X183450D01*
X198450Y94753D02*
X198533Y94670D01*
X32000Y111600D02*
X47332D01*
X55325Y103607D01*
X95772Y118181D02*
X103348Y125757D01*
X95772Y109354D02*
Y118181D01*
X141650Y104307D02*
X147201Y98756D01*
X141650Y104307D02*
Y108756D01*
X147201Y98756D02*
X163207D01*
X169096Y94756D02*
X182300Y107960D01*
X136650Y103650D02*
Y108756D01*
X145544Y94756D02*
X169096D01*
X141400Y109006D02*
X141650Y108756D01*
X183652Y108163D02*
X198398D01*
X215200Y135249D02*
X216200D01*
X213450Y126707D02*
Y133499D01*
X215200Y135249D01*
X213577Y108088D02*
X228073D01*
X213000Y108665D02*
X213577Y108088D01*
X213000Y108665D02*
Y116536D01*
X211535Y118000D02*
X213000Y116536D01*
D11*
X116650Y167000D02*
X125000D01*
X112400Y162749D02*
X116650Y167000D01*
X112400Y151756D02*
Y162749D01*
X177107Y159132D02*
X181627Y163652D01*
X177107Y157506D02*
Y159132D01*
X249465Y162685D02*
X300676D01*
X303250Y83400D02*
Y147210D01*
X303504Y147464D01*
X300676Y162685D02*
X303504Y159857D01*
Y147464D02*
Y159857D01*
X254725Y125756D02*
X261054Y132084D01*
X238944Y123237D02*
X239055D01*
X241573Y125756D01*
X254725D01*
X286350Y66500D02*
X303250Y83400D01*
X220275Y142000D02*
X226000D01*
X248850Y82978D02*
X250000D01*
X276790Y62650D02*
Y66500D01*
X279330Y62650D02*
Y64480D01*
X184450Y94648D02*
X187864Y98062D01*
X276790Y42339D02*
Y45000D01*
X279330Y44879D02*
Y62650D01*
X250000Y82978D02*
X259872D01*
X152054Y55294D02*
Y62507D01*
X187864Y98062D02*
X190053Y100251D01*
X119975Y53000D02*
X149760D01*
X237318Y84681D02*
X239020Y82978D01*
X114150Y58825D02*
X119975Y53000D01*
X234672Y87326D02*
X237318Y84681D01*
X149760Y53000D02*
X152054Y55294D01*
X276790Y45000D02*
Y62650D01*
X115760Y19000D02*
X149760Y53000D01*
X230308Y92885D02*
Y94498D01*
X235146Y87800D02*
X237792Y85154D01*
X146400Y109006D02*
X147150Y108256D01*
Y104514D02*
Y108256D01*
X215200Y148711D02*
X216200D01*
X211495Y152416D02*
X215200Y148711D01*
X108711Y41247D02*
X109658D01*
X253260Y114636D02*
X253930Y113967D01*
X175923Y138322D02*
X176870D01*
X166550Y116003D02*
X166554Y115998D01*
X99304Y136007D02*
X109400D01*
X93539Y141772D02*
X99304Y136007D01*
X93539Y141772D02*
Y148485D01*
X221508Y100251D02*
X222829Y98930D01*
Y98870D02*
Y98930D01*
X190053Y100251D02*
X190430D01*
X238039Y85154D02*
X240214Y82978D01*
X237792Y85154D02*
X238039D01*
X239020Y82978D02*
X240214D01*
X276350Y66500D02*
X276790D01*
X102800Y146007D02*
X109400D01*
X252995Y59750D02*
Y78834D01*
X233326Y87326D02*
X234672D01*
X64592Y158417D02*
X65682Y159506D01*
X210623Y188897D02*
X220895Y178624D01*
X230308Y92885D02*
X231447Y91745D01*
X222829Y98870D02*
X227200Y94498D01*
X233326Y87326D02*
Y88480D01*
X248850Y82978D02*
X250000Y81829D01*
X230308Y91498D02*
X233326Y88480D01*
X276790Y23560D02*
Y42339D01*
X152054Y66500D02*
X167056D01*
X65682Y159506D02*
X66592D01*
X55015Y152525D02*
X60906Y158417D01*
X55015Y131182D02*
Y152525D01*
X60906Y158417D02*
X63592D01*
X226752Y132001D02*
X246508D01*
X98990Y149817D02*
X102800Y146007D01*
X99000Y149657D02*
X102650Y146007D01*
X152150Y107362D02*
X159188D01*
X286696Y132001D02*
X290774D01*
X111650Y151006D02*
X112400Y151756D01*
X240797Y154353D02*
X248850D01*
X101022Y141006D02*
X109400D01*
X167570Y63039D02*
X171031Y66500D01*
X167570Y19254D02*
Y63039D01*
X158400Y116007D02*
X158404Y116003D01*
X166550D01*
X158400Y131006D02*
X170342D01*
X174428Y126920D01*
X158400Y141006D02*
X171496D01*
X178746Y148257D01*
X181627Y163652D02*
X185200D01*
X290774Y132001D02*
X291858Y133084D01*
X286442Y116507D02*
X286696Y132001D01*
X282632Y112697D02*
X286442Y116507D01*
X267646Y112697D02*
X282632D01*
X109400Y151006D02*
X111650D01*
X185200Y163652D02*
X187450Y165902D01*
X116770Y94663D02*
Y102029D01*
X126146D02*
Y108752D01*
X126400Y109006D01*
X121400Y103102D02*
Y109006D01*
X151400Y108112D02*
X152150Y107362D01*
X151400Y108112D02*
Y109006D01*
X163760Y165902D02*
X171450D01*
X158400Y136007D02*
X173608D01*
X175923Y138322D01*
X251461Y114636D02*
X253260D01*
X247591Y118506D02*
Y119506D01*
Y118506D02*
X251461Y114636D01*
X246508Y132001D02*
X247592Y133084D01*
X94418Y173657D02*
X99000Y169075D01*
Y149657D02*
Y169075D01*
X100000Y36000D02*
X104250Y40250D01*
X107715D01*
X108711Y41247D01*
X261054Y132084D02*
Y133084D01*
X220275Y142000D02*
X223704Y145429D01*
Y175816D01*
X240254Y154896D02*
X240797Y154353D01*
X210242Y159686D02*
Y160110D01*
X204450Y165902D02*
X210242Y160110D01*
X203450Y165902D02*
X204450D01*
X101022Y116007D02*
X109400D01*
X132400Y184903D02*
X146450D01*
X75749Y43250D02*
X100000Y19000D01*
X14450Y43250D02*
X75749D01*
X12700Y41500D02*
X14450Y43250D01*
X77697Y72257D02*
X114230D01*
X76450Y73504D02*
X77697Y72257D01*
X67092Y111249D02*
X67984Y110357D01*
X67092Y111249D02*
Y128251D01*
X114150Y58825D02*
Y72177D01*
X114230Y72257D01*
X121400D01*
X57000Y128251D02*
Y129198D01*
X55015Y131182D02*
X57000Y129198D01*
X186650Y66500D02*
X193400Y59750D01*
X252995D01*
X250000Y81829D02*
X252995Y78834D01*
X240214Y82978D02*
X248850D01*
X183450Y94648D02*
X184450D01*
X187864Y98062D02*
X188241D01*
X190430Y100251D01*
X221508D01*
X227200Y94498D02*
X228200D01*
X259872Y82978D02*
X276350Y66500D01*
X276790Y23560D02*
X281350Y19000D01*
X276790Y42339D02*
X279330Y44879D01*
X281350Y66500D02*
X286350D01*
X240254Y171896D02*
X249465Y162685D01*
X102650Y146007D02*
X102800D01*
X84970Y130628D02*
X109022D01*
X82592Y128251D02*
X84970Y130628D01*
X109022D02*
X109400Y131006D01*
X190450Y152416D02*
X211495D01*
X188700Y154166D02*
X190450Y152416D01*
X149407Y102256D02*
X160800D01*
X180600Y122057D02*
Y131334D01*
X147150Y104514D02*
X149407Y102256D01*
X180600Y131334D02*
X182350Y133084D01*
X160800Y102256D02*
X180600Y122057D01*
X81446Y110357D02*
X82592Y111503D01*
Y128251D01*
X67092Y146750D02*
Y147250D01*
X77098Y157256D01*
X77804D02*
X80054Y159506D01*
Y160506D01*
X77098Y157256D02*
X77804D01*
X80054Y159506D02*
Y160506D01*
X85560Y154000D02*
X88024D01*
X80054Y159506D02*
X85560Y154000D01*
X88024D02*
X93539Y148485D01*
D12*
X229200Y94498D02*
X229754Y93945D01*
X96788Y99857D02*
X103188Y106256D01*
X67846Y93756D02*
X73948Y99857D01*
X96788D01*
X75450Y60042D02*
X76450D01*
X70111Y65381D02*
X75450Y60042D01*
X231200Y91498D02*
X233999Y88699D01*
X105000Y180000D02*
X105812D01*
X106811Y179000D01*
X116142D01*
X118142Y177001D01*
X231200Y91498D02*
Y92499D01*
X228200Y94498D02*
X229200D01*
X64592Y157506D02*
Y158506D01*
X183000Y87000D02*
Y94198D01*
X183450Y94648D01*
X56000Y155000D02*
X62086D01*
X49450Y65381D02*
X70111D01*
X46450Y68382D02*
X49450Y65381D01*
X46450Y68382D02*
Y71132D01*
X95400Y60757D02*
X97400Y62757D01*
X77165Y60757D02*
X95400D01*
X76450Y60042D02*
X77165Y60757D01*
X115900Y106256D02*
X116400Y106756D01*
X293000Y81000D02*
Y90613D01*
X292308Y91305D02*
X293000Y90613D01*
X261054Y133084D02*
X278396D01*
X118142Y176000D02*
Y177001D01*
X233999Y88000D02*
Y88699D01*
X116400Y106756D02*
Y109006D01*
X103188Y106256D02*
X115900D01*
X67846Y92755D02*
Y93756D01*
X54308Y92755D02*
X67846D01*
X56000Y110357D02*
X67984D01*
X62086Y155000D02*
X64592Y157506D01*
Y158506D02*
X66592Y160506D01*
X57000Y128251D02*
X67092D01*
Y128750D01*
X79092Y140751D01*
Y143250D01*
X82592Y146750D01*
D13*
X133900Y133506D02*
D03*
D14*
X116400Y158006D02*
D03*
X121400D02*
D03*
X126400D02*
D03*
X131400D02*
D03*
X136400D02*
D03*
X141400D02*
D03*
X146400D02*
D03*
X151400D02*
D03*
Y109007D02*
D03*
X146400D02*
D03*
X141400D02*
D03*
X136400D02*
D03*
X131400D02*
D03*
X126400D02*
D03*
X121400D02*
D03*
X116400D02*
D03*
D15*
X158400Y151006D02*
D03*
Y146006D02*
D03*
Y141007D02*
D03*
Y136006D02*
D03*
Y131006D02*
D03*
Y126006D02*
D03*
Y121006D02*
D03*
Y116006D02*
D03*
X109400D02*
D03*
Y121006D02*
D03*
Y126006D02*
D03*
Y131006D02*
D03*
Y136006D02*
D03*
Y141007D02*
D03*
Y146006D02*
D03*
Y151006D02*
D03*
D16*
X293254Y153396D02*
D03*
Y170396D02*
D03*
X241254Y153396D02*
D03*
Y170396D02*
D03*
X101000Y17500D02*
D03*
Y34500D02*
D03*
X49000Y17500D02*
D03*
Y34500D02*
D03*
D17*
X81950Y92755D02*
D03*
X66950D02*
D03*
X54950Y92756D02*
D03*
X39950D02*
D03*
X292500Y133084D02*
D03*
X277500D02*
D03*
X246950Y133084D02*
D03*
X261950D02*
D03*
X292500Y119506D02*
D03*
X277500D02*
D03*
X292950Y105506D02*
D03*
X277950D02*
D03*
X292950Y91305D02*
D03*
X277950D02*
D03*
X137950Y62506D02*
D03*
X152950D02*
D03*
X67950Y111600D02*
D03*
X82950D02*
D03*
X65950Y160506D02*
D03*
X80950D02*
D03*
X116500Y175000D02*
D03*
X131500D02*
D03*
D18*
X216200Y134606D02*
D03*
Y149606D02*
D03*
X203450Y180006D02*
D03*
Y165006D02*
D03*
X198450Y108857D02*
D03*
Y93857D02*
D03*
X213450Y108857D02*
D03*
Y93857D02*
D03*
X187450Y180006D02*
D03*
Y165006D02*
D03*
X171450Y180006D02*
D03*
Y165006D02*
D03*
X146450Y199006D02*
D03*
Y184006D02*
D03*
X76450Y59400D02*
D03*
Y74400D02*
D03*
X94000Y93500D02*
D03*
Y108500D02*
D03*
X228200Y93857D02*
D03*
Y108857D02*
D03*
X185200Y94529D02*
D03*
X132400Y199006D02*
D03*
Y184006D02*
D03*
D19*
X191096Y152750D02*
D03*
X184596Y133750D02*
D03*
X197596D02*
D03*
D20*
X250000Y70500D02*
D03*
X242000D02*
D03*
X234000D02*
D03*
X226000D02*
D03*
D21*
X218000D02*
D03*
D22*
X188650Y66500D02*
D03*
X279350D02*
D03*
Y19000D02*
D03*
X188650D02*
D03*
D23*
X46450Y59606D02*
D03*
D24*
Y70606D02*
D03*
D25*
X247591Y119506D02*
D03*
X261053D02*
D03*
X247591Y105506D02*
D03*
X261053D02*
D03*
X260903Y91306D02*
D03*
X247441D02*
D03*
D26*
X185200Y109529D02*
D03*
D27*
X67092Y128251D02*
D03*
Y146750D02*
D03*
X82592D02*
D03*
D28*
Y128251D02*
D03*
D29*
X97400Y81757D02*
D03*
X121400D02*
D03*
Y72257D02*
D03*
Y62757D02*
D03*
X97400D02*
D03*
D30*
X12700Y168500D02*
D03*
Y143100D02*
D03*
Y117700D02*
D03*
Y92300D02*
D03*
Y66900D02*
D03*
Y41500D02*
D03*
X317500D02*
D03*
Y66900D02*
D03*
Y92300D02*
D03*
Y117700D02*
D03*
Y143100D02*
D03*
Y168500D02*
D03*
D31*
X125000Y167000D02*
D03*
X177107Y157506D02*
D03*
X248850Y154353D02*
D03*
X101022Y141006D02*
D03*
X166554Y115998D02*
D03*
X174428Y126920D02*
D03*
X178746Y148257D02*
D03*
X209988Y65452D02*
D03*
X267646Y112697D02*
D03*
X116770Y94663D02*
D03*
X107118Y88820D02*
D03*
X159188Y107362D02*
D03*
X163760Y165902D02*
D03*
X176870Y138322D02*
D03*
X253930Y113967D02*
D03*
X226752Y132001D02*
D03*
X94418Y173657D02*
D03*
X109658Y41247D02*
D03*
X238944Y123237D02*
D03*
X210623Y188897D02*
D03*
X210242Y159686D02*
D03*
X101022Y116007D02*
D03*
X159000Y84000D02*
D03*
X183000Y87000D02*
D03*
X269000Y45000D02*
D03*
X112000Y198365D02*
D03*
X258000Y171896D02*
D03*
X157800Y57244D02*
D03*
X156800Y19000D02*
D03*
X307800Y19244D02*
D03*
X134000Y133000D02*
D03*
X45000Y129000D02*
D03*
X116304Y19543D02*
D03*
X124000Y96000D02*
D03*
X131604Y72257D02*
D03*
X152000D02*
D03*
X41000Y103000D02*
D03*
X197000Y140000D02*
D03*
X293000Y81000D02*
D03*
X81000Y83000D02*
D03*
X105000Y180000D02*
D03*
X233999Y88000D02*
D03*
X227000Y86000D02*
D03*
X56000Y110357D02*
D03*
Y155000D02*
D03*
X57000Y128251D02*
D03*
D32*
X293500Y122148D02*
X296436Y125084D01*
X299000Y127134D02*
Y139034D01*
X171450Y179364D02*
X187450D01*
X224444Y176556D02*
X226000Y175000D01*
X187450Y179364D02*
X203450D01*
X295388Y142646D02*
X299000Y139034D01*
X296950Y125084D02*
X299000Y127134D01*
X203450Y179364D02*
X221636D01*
X293500Y121148D02*
Y122148D01*
X221636Y179364D02*
X224444Y176556D01*
X296436Y125084D02*
X296950D01*
X291858Y119506D02*
X293500Y121148D01*
X227594Y142646D02*
X295388D01*
X277500Y62650D02*
X279330Y64480D01*
X281350Y66500D01*
X277396Y45000D02*
X277500Y45104D01*
Y62650D01*
X155000Y175507D02*
X160657D01*
X155000D02*
Y181164D01*
X156711Y182874D01*
Y188435D01*
X146000Y192152D02*
X153376D01*
X160657Y175507D02*
X163515Y178364D01*
X269000Y45000D02*
X277396D01*
X100000Y19000D02*
X100352Y19352D01*
X159000Y84000D02*
X177514D01*
X180514Y81000D01*
X202099D01*
X218000Y70500D02*
Y75250D01*
X202099Y81000D02*
X207349Y75750D01*
X217500D02*
X218000Y75250D01*
X207349Y75750D02*
X217500D01*
X153376Y192152D02*
X156440Y189088D01*
X145250Y191403D02*
X146000Y192152D01*
X32000Y111600D02*
Y139485D01*
X156440Y188705D02*
X156711Y188435D01*
X156440Y188705D02*
Y189088D01*
X83917Y191403D02*
X145250D01*
X32000Y139485D02*
X83917Y191403D01*
X148004Y175507D02*
X155000D01*
X163515Y178364D02*
X170450D01*
X116112Y19352D02*
X116304Y19543D01*
X100352Y19352D02*
X116112D01*
X32000Y66900D02*
Y111600D01*
X38019Y60881D02*
X44950D01*
X12700Y66900D02*
X32000D01*
X38019Y60881D01*
X44950D02*
X46450Y59381D01*
X170450Y178364D02*
X171450Y179364D01*
D33*
X156800Y19000D02*
X167570D01*
X186650D01*
X171031Y66500D02*
X186650D01*
X167056D02*
X171031D01*
X281350Y19000D02*
X281594Y19244D01*
X240254Y171896D02*
X258000D01*
X157800Y57244D02*
X167056Y66500D01*
X281594Y19244D02*
X307800D01*
D34*
X278846Y91305D02*
X278846Y91305D01*
X278846Y105506D02*
X278846Y105506D01*
X138467Y62632D02*
X138592Y62507D01*
X40923Y102923D02*
X41000Y103000D01*
X81000Y83000D02*
X81154Y83154D01*
X81000Y82459D02*
Y83000D01*
X78950Y80409D02*
X81000Y82459D01*
X292083Y105731D02*
X292308Y105506D01*
X152054Y66500D02*
Y72202D01*
Y62507D02*
Y66500D01*
X131400Y175797D02*
X131604Y176000D01*
X133908Y81757D02*
Y86093D01*
X124000Y96000D02*
X133908Y86093D01*
X121400Y72257D02*
X131604D01*
X152000D02*
X152054Y72202D01*
X121525Y62632D02*
X138467D01*
X121400Y62757D02*
X121525Y62632D01*
X138592Y62507D02*
Y77072D01*
X133908Y81757D02*
X138592Y77072D01*
X121400Y81757D02*
X133908D01*
X40923Y92832D02*
Y102923D01*
X40846Y92755D02*
X40923Y92832D01*
X132098Y175507D02*
X148004D01*
X131400Y158007D02*
Y175797D01*
X77450Y73504D02*
X78950Y75004D01*
X76450Y73504D02*
X77450D01*
X78950Y75004D02*
Y80409D01*
X81154Y83154D02*
Y92601D01*
X82001Y93449D01*
X93306D01*
X292083Y105731D02*
Y119281D01*
X292308Y91305D02*
Y105506D01*
X291858Y119506D02*
X292083Y119281D01*
X261053Y119506D02*
X278396D01*
X261054Y105506D02*
X278846D01*
X261053Y105506D02*
X261054Y105506D01*
X260903Y91305D02*
X278846D01*
X260903Y91306D02*
X260903Y91305D01*
X131604Y176000D02*
X132098Y175507D01*
D35*
X226000Y70500D02*
Y76500D01*
X250000Y81829D02*
Y83000D01*
Y70500D02*
Y81829D01*
X230745Y79755D02*
X234000Y76500D01*
X208827Y85377D02*
X217123D01*
X198533Y94670D02*
X199533D01*
X234000Y70500D02*
Y76500D01*
X230745Y79755D02*
Y82255D01*
X199533Y94670D02*
X208827Y85377D01*
X217123D02*
X226000Y76500D01*
X226329Y86672D02*
X230745Y82255D01*
X213450Y94753D02*
X214450D01*
X222532Y86672D01*
X226329D01*
X146000Y192152D02*
Y197915D01*
X146450Y198365D01*
X112000D02*
X132400D01*
M02*
