G04 Layer_Color=9279142*
%FSLAX44Y44*%
%MOMM*%
G71*
G01*
G75*
%ADD22C,0.2000*%
%ADD30C,0.2500*%
G36*
X171750Y62750D02*
X169000D01*
Y71250D01*
X171750D01*
Y62750D01*
D02*
G37*
G36*
X119250Y74750D02*
X107852D01*
Y106026D01*
X119250D01*
Y74750D01*
D02*
G37*
G36*
X167950Y72250D02*
X165200D01*
Y80750D01*
X167950D01*
Y72250D01*
D02*
G37*
G36*
X55876Y113574D02*
X48773D01*
X48774Y120677D01*
X55876Y120950D01*
Y113574D01*
D02*
G37*
G36*
X167950Y82250D02*
X165200D01*
Y90750D01*
X167950D01*
Y82250D01*
D02*
G37*
%LPC*%
G36*
X115040Y84998D02*
X113810D01*
Y82585D01*
X115040D01*
Y84998D01*
D02*
G37*
G36*
X113745Y91072D02*
X113616D01*
X113292Y91063D01*
X113006Y91035D01*
X112867Y91026D01*
X112747Y91007D01*
X112626Y90989D01*
X112525Y90970D01*
X112432Y90943D01*
X112349Y90924D01*
X112275Y90906D01*
X112220Y90897D01*
X112173Y90878D01*
X112136Y90869D01*
X112118Y90859D01*
X112109D01*
X111887Y90776D01*
X111683Y90675D01*
X111508Y90573D01*
X111360Y90471D01*
X111240Y90388D01*
X111147Y90314D01*
X111092Y90268D01*
X111073Y90259D01*
Y90249D01*
X110925Y90092D01*
X110805Y89935D01*
X110703Y89769D01*
X110620Y89621D01*
X110555Y89491D01*
X110509Y89380D01*
X110500Y89343D01*
X110491Y89316D01*
X110482Y89297D01*
Y89288D01*
X110435Y89112D01*
X110407Y88918D01*
X110380Y88715D01*
X110371Y88520D01*
X110361Y88345D01*
X110352Y88271D01*
Y88197D01*
Y88141D01*
Y88104D01*
Y88077D01*
Y88067D01*
Y85719D01*
X116750D01*
Y88141D01*
X116741Y88391D01*
X116732Y88622D01*
X116713Y88816D01*
X116685Y88973D01*
X116658Y89103D01*
X116639Y89205D01*
X116630Y89232D01*
Y89260D01*
X116621Y89269D01*
Y89278D01*
X116547Y89482D01*
X116463Y89667D01*
X116380Y89815D01*
X116297Y89944D01*
X116223Y90046D01*
X116167Y90120D01*
X116131Y90166D01*
X116112Y90185D01*
X115936Y90342D01*
X115751Y90480D01*
X115557Y90601D01*
X115382Y90693D01*
X115215Y90767D01*
X115150Y90804D01*
X115095Y90823D01*
X115040Y90841D01*
X115003Y90859D01*
X114984Y90869D01*
X114975D01*
X114753Y90934D01*
X114522Y90989D01*
X114300Y91026D01*
X114087Y91044D01*
X113986Y91054D01*
X113893Y91063D01*
X113819D01*
X113745Y91072D01*
D02*
G37*
G36*
X116750Y97932D02*
X110352Y95362D01*
Y93994D01*
X116750Y91516D01*
Y92884D01*
X115298Y93411D01*
Y95982D01*
X116750Y96536D01*
Y97932D01*
D02*
G37*
G36*
X112423Y103526D02*
X112321D01*
X112053Y103507D01*
X111804Y103470D01*
X111600Y103406D01*
X111415Y103341D01*
X111341Y103304D01*
X111277Y103267D01*
X111221Y103239D01*
X111166Y103202D01*
X111129Y103184D01*
X111101Y103165D01*
X111092Y103147D01*
X111082D01*
X110916Y102999D01*
X110777Y102851D01*
X110666Y102694D01*
X110583Y102555D01*
X110528Y102426D01*
X110482Y102324D01*
X110472Y102287D01*
X110463Y102259D01*
X110454Y102241D01*
Y102232D01*
X110435Y102158D01*
X110417Y102065D01*
X110407Y101954D01*
X110398Y101843D01*
X110380Y101584D01*
X110361Y101326D01*
Y101205D01*
Y101085D01*
X110352Y100983D01*
Y100882D01*
Y100808D01*
Y100752D01*
Y100706D01*
Y100697D01*
Y98626D01*
X116750D01*
Y99920D01*
X114337D01*
Y100762D01*
Y100919D01*
Y101067D01*
X114328Y101205D01*
Y101335D01*
X114318Y101455D01*
X114309Y101566D01*
X114300Y101668D01*
X114291Y101751D01*
Y101834D01*
X114281Y101899D01*
X114272Y101964D01*
X114263Y102010D01*
Y102047D01*
X114254Y102074D01*
Y102084D01*
Y102093D01*
X114217Y102222D01*
X114171Y102343D01*
X114124Y102453D01*
X114069Y102555D01*
X114023Y102638D01*
X113986Y102703D01*
X113958Y102740D01*
X113949Y102759D01*
X113856Y102879D01*
X113754Y102980D01*
X113644Y103082D01*
X113551Y103156D01*
X113459Y103221D01*
X113385Y103267D01*
X113338Y103295D01*
X113320Y103304D01*
X113163Y103378D01*
X112996Y103434D01*
X112821Y103470D01*
X112663Y103498D01*
X112534Y103517D01*
X112469D01*
X112423Y103526D01*
D02*
G37*
G36*
X116750Y81484D02*
X113680D01*
X113523Y81475D01*
X113375Y81466D01*
X113264Y81447D01*
X113172Y81438D01*
X113107Y81420D01*
X113061Y81411D01*
X113052D01*
X112941Y81383D01*
X112848Y81346D01*
X112756Y81309D01*
X112682Y81263D01*
X112617Y81226D01*
X112571Y81198D01*
X112543Y81179D01*
X112534Y81170D01*
X112451Y81096D01*
X112377Y81013D01*
X112312Y80930D01*
X112257Y80847D01*
X112210Y80773D01*
X112183Y80708D01*
X112164Y80671D01*
X112155Y80652D01*
X112109Y80523D01*
X112072Y80393D01*
X112044Y80273D01*
X112025Y80162D01*
X112016Y80061D01*
X112007Y79977D01*
Y79931D01*
Y79922D01*
Y79913D01*
X112016Y79746D01*
X112044Y79580D01*
X112081Y79432D01*
X112127Y79284D01*
X112192Y79145D01*
X112257Y79025D01*
X112331Y78905D01*
X112395Y78803D01*
X112469Y78711D01*
X112543Y78628D01*
X112608Y78554D01*
X112673Y78498D01*
X112719Y78452D01*
X112756Y78415D01*
X112784Y78397D01*
X112793Y78387D01*
X112109D01*
Y77250D01*
X116750D01*
Y78480D01*
X114392D01*
X114272Y78489D01*
X114171Y78498D01*
X114069D01*
X113986Y78507D01*
X113902Y78517D01*
X113838Y78526D01*
X113727Y78544D01*
X113653Y78554D01*
X113607Y78572D01*
X113597D01*
X113496Y78609D01*
X113394Y78665D01*
X113320Y78720D01*
X113246Y78776D01*
X113200Y78831D01*
X113153Y78877D01*
X113135Y78905D01*
X113126Y78914D01*
X113070Y79016D01*
X113024Y79118D01*
X112996Y79210D01*
X112969Y79303D01*
X112959Y79377D01*
X112950Y79432D01*
Y79478D01*
Y79487D01*
X112959Y79580D01*
X112969Y79663D01*
X112987Y79728D01*
X113015Y79793D01*
X113042Y79848D01*
X113061Y79885D01*
X113070Y79903D01*
X113080Y79913D01*
X113126Y79977D01*
X113181Y80024D01*
X113292Y80107D01*
X113348Y80135D01*
X113385Y80153D01*
X113412Y80172D01*
X113422D01*
X113468Y80190D01*
X113523Y80199D01*
X113662Y80218D01*
X113828Y80236D01*
X113986Y80246D01*
X114143Y80255D01*
X116750D01*
Y81484D01*
D02*
G37*
%LPD*%
G36*
X113819Y89732D02*
X114059Y89722D01*
X114254Y89695D01*
X114420Y89676D01*
X114559Y89648D01*
X114614Y89639D01*
X114651Y89621D01*
X114688Y89611D01*
X114716D01*
X114725Y89602D01*
X114734D01*
X114882Y89547D01*
X115012Y89500D01*
X115113Y89436D01*
X115197Y89389D01*
X115261Y89343D01*
X115308Y89306D01*
X115335Y89278D01*
X115345Y89269D01*
X115409Y89186D01*
X115465Y89103D01*
X115511Y89020D01*
X115548Y88936D01*
X115576Y88862D01*
X115594Y88807D01*
X115613Y88770D01*
Y88751D01*
X115631Y88650D01*
X115640Y88530D01*
X115659Y88400D01*
Y88271D01*
X115668Y88151D01*
Y88058D01*
Y88021D01*
Y87993D01*
Y87975D01*
Y87966D01*
Y87013D01*
X111434D01*
Y87587D01*
Y87725D01*
Y87855D01*
X111443Y87975D01*
Y88086D01*
X111452Y88178D01*
Y88261D01*
X111461Y88345D01*
Y88409D01*
X111480Y88511D01*
X111489Y88585D01*
X111498Y88631D01*
Y88641D01*
X111536Y88770D01*
X111582Y88881D01*
X111628Y88983D01*
X111683Y89075D01*
X111730Y89140D01*
X111767Y89195D01*
X111794Y89223D01*
X111804Y89232D01*
X111896Y89316D01*
X111998Y89389D01*
X112100Y89454D01*
X112192Y89510D01*
X112284Y89547D01*
X112358Y89574D01*
X112405Y89593D01*
X112414Y89602D01*
X112423D01*
X112590Y89648D01*
X112765Y89685D01*
X112959Y89704D01*
X113144Y89722D01*
X113301Y89732D01*
X113375Y89741D01*
X113560D01*
X113819Y89732D01*
D02*
G37*
G36*
X114217Y93800D02*
X111841Y94669D01*
X114217Y95566D01*
Y93800D01*
D02*
G37*
G36*
X112451Y102185D02*
X112543Y102176D01*
X112626Y102148D01*
X112700Y102121D01*
X112765Y102093D01*
X112811Y102074D01*
X112839Y102056D01*
X112848Y102047D01*
X112922Y101991D01*
X112987Y101917D01*
X113042Y101853D01*
X113089Y101788D01*
X113117Y101732D01*
X113144Y101686D01*
X113153Y101649D01*
X113163Y101640D01*
X113181Y101584D01*
X113190Y101520D01*
X113218Y101372D01*
X113237Y101205D01*
X113246Y101039D01*
Y100872D01*
X113255Y100808D01*
Y100743D01*
Y100697D01*
Y100660D01*
Y100632D01*
Y100623D01*
Y99920D01*
X111434D01*
Y100540D01*
Y100669D01*
Y100780D01*
Y100882D01*
X111443Y100974D01*
Y101057D01*
X111452Y101141D01*
Y101261D01*
X111461Y101353D01*
X111471Y101418D01*
X111480Y101455D01*
Y101464D01*
X111508Y101575D01*
X111545Y101677D01*
X111591Y101769D01*
X111646Y101843D01*
X111693Y101899D01*
X111730Y101945D01*
X111757Y101973D01*
X111767Y101982D01*
X111859Y102056D01*
X111952Y102102D01*
X112053Y102139D01*
X112146Y102167D01*
X112229Y102185D01*
X112294Y102195D01*
X112349D01*
X112451Y102185D01*
D02*
G37*
D22*
X9000Y33750D02*
X21500D01*
Y20500D02*
Y33750D01*
X9000Y20500D02*
X21500D01*
X9000D02*
Y33750D01*
X-12700Y-12700D02*
Y139750D01*
Y-12700D02*
X241300D01*
Y139750D01*
X-12700D02*
X241300D01*
D30*
X59982Y29622D02*
G03*
X59982Y29622I-1250J0D01*
G01*
X19490Y-12583D02*
Y22417D01*
X74491D01*
Y-12583D02*
Y22417D01*
X19490Y-12583D02*
X74491D01*
X102500Y-32500D02*
X201500D01*
Y57500D01*
X102500D02*
X201500D01*
X102500Y-32500D02*
Y57500D01*
M02*
