G04*
G04 #@! TF.GenerationSoftware,Altium Limited,Altium Designer,20.0.10 (225)*
G04*
G04 Layer_Color=32896*
%FSLAX44Y44*%
%MOMM*%
G71*
G01*
G75*
G36*
X167375Y90991D02*
X71162D01*
Y124581D01*
X167375D01*
Y90991D01*
D02*
G37*
%LPC*%
G36*
X160894Y112434D02*
X160190D01*
X159857Y112359D01*
X159523Y112174D01*
X159486D01*
X159449Y112100D01*
X159301Y111915D01*
X159116Y111582D01*
X158968Y111211D01*
X158894Y111248D01*
X158746Y111397D01*
X158413Y111582D01*
X158005Y111841D01*
X157709Y111952D01*
X157413Y112063D01*
X157042Y112137D01*
X156672Y112248D01*
X156228Y112322D01*
X155783Y112396D01*
X155265Y112434D01*
X154487D01*
X154228Y112396D01*
X153894Y112359D01*
X153487Y112248D01*
X153043Y112137D01*
X152598Y111952D01*
X152080Y111730D01*
X151598Y111434D01*
X151154Y111026D01*
X150710Y110582D01*
X150302Y110026D01*
X149969Y109360D01*
X149710Y108619D01*
X149562Y107730D01*
X149487Y106730D01*
Y97879D01*
X149524Y97731D01*
X149562Y97583D01*
X149673Y97176D01*
X149821Y96954D01*
X149969Y96769D01*
X150006Y96731D01*
X150080Y96694D01*
X150191Y96620D01*
X150339Y96509D01*
X150747Y96324D01*
X150969Y96287D01*
X151228Y96250D01*
X151339D01*
X151487Y96287D01*
X151672Y96324D01*
X152080Y96472D01*
X152265Y96583D01*
X152487Y96769D01*
X152524Y96805D01*
X152561Y96880D01*
X152635Y96954D01*
X152709Y97102D01*
X152894Y97509D01*
X152931Y97731D01*
X152969Y97991D01*
Y106360D01*
Y106397D01*
Y106471D01*
Y106619D01*
X153006Y106805D01*
X153117Y107286D01*
X153302Y107804D01*
X153450Y108064D01*
X153598Y108323D01*
X153820Y108582D01*
X154080Y108804D01*
X154376Y108989D01*
X154746Y109138D01*
X155117Y109212D01*
X155598Y109249D01*
X155820D01*
X155968Y109212D01*
X156339Y109175D01*
X156820Y109026D01*
X157338Y108841D01*
X157894Y108545D01*
X158413Y108138D01*
X158635Y107878D01*
X158857Y107582D01*
Y97991D01*
Y97954D01*
Y97879D01*
X158894Y97731D01*
X158931Y97583D01*
X159042Y97176D01*
X159190Y96954D01*
X159338Y96769D01*
X159375Y96731D01*
X159449Y96694D01*
X159560Y96620D01*
X159709Y96509D01*
X160116Y96324D01*
X160375Y96287D01*
X160634Y96250D01*
X160746D01*
X160894Y96287D01*
X161042Y96324D01*
X161449Y96472D01*
X161671Y96583D01*
X161856Y96769D01*
X161894Y96805D01*
X161931Y96880D01*
X162005Y96954D01*
X162116Y97102D01*
X162301Y97509D01*
X162338Y97731D01*
X162375Y97991D01*
Y110693D01*
X162338Y110915D01*
X162264Y111211D01*
X162153Y111545D01*
X161931Y111878D01*
X161597Y112174D01*
X161412Y112285D01*
X161153Y112359D01*
X160894Y112434D01*
D02*
G37*
G36*
X143636Y107138D02*
X135082D01*
X134933Y107101D01*
X134785Y107064D01*
X134378Y106953D01*
X134193Y106805D01*
X134008Y106656D01*
X133970Y106619D01*
X133933Y106582D01*
X133859Y106471D01*
X133785Y106323D01*
X133637Y105953D01*
X133563Y105767D01*
Y105397D01*
X133600Y105286D01*
Y105101D01*
X133748Y104731D01*
X133859Y104545D01*
X134008Y104360D01*
X134045Y104323D01*
X134082Y104286D01*
X134193Y104212D01*
X134341Y104138D01*
X134711Y103953D01*
X134933Y103916D01*
X135193Y103879D01*
X143747D01*
X143858Y103916D01*
X144044Y103953D01*
X144414Y104101D01*
X144599Y104212D01*
X144784Y104360D01*
X144821Y104397D01*
X144858Y104434D01*
X144932Y104545D01*
X145006Y104694D01*
X145192Y105064D01*
X145229Y105286D01*
X145266Y105508D01*
Y105619D01*
X145229Y105730D01*
X145192Y105916D01*
X145043Y106286D01*
X144932Y106471D01*
X144784Y106656D01*
X144747Y106693D01*
X144710Y106730D01*
X144599Y106805D01*
X144451Y106916D01*
X144081Y107064D01*
X143858Y107101D01*
X143636Y107138D01*
D02*
G37*
G36*
X128045Y119581D02*
X124342D01*
X124194Y119544D01*
X124009Y119507D01*
X123749Y119470D01*
X123490Y119433D01*
X123157Y119359D01*
X122824Y119285D01*
X122046Y119062D01*
X121157Y118729D01*
X120231Y118285D01*
X119268Y117766D01*
X118306Y117100D01*
X117824Y116692D01*
X117380Y116285D01*
X116935Y115803D01*
X116528Y115322D01*
X116121Y114767D01*
X115750Y114174D01*
X115417Y113507D01*
X115121Y112841D01*
X114861Y112100D01*
X114639Y111285D01*
X114491Y110471D01*
X114380Y109545D01*
X114306Y108582D01*
Y107138D01*
X114343Y106878D01*
Y106582D01*
X114380Y106249D01*
X114417Y105916D01*
X114565Y105101D01*
X114750Y104175D01*
X115047Y103175D01*
X115454Y102175D01*
X115972Y101138D01*
X116269Y100620D01*
X116639Y100139D01*
X117009Y99620D01*
X117417Y99176D01*
X117898Y98731D01*
X118380Y98287D01*
X118935Y97916D01*
X119565Y97546D01*
X120194Y97213D01*
X120898Y96954D01*
X121676Y96694D01*
X122453Y96509D01*
X123342Y96361D01*
X124268Y96287D01*
X128045Y96250D01*
X128156D01*
X128305Y96287D01*
X128490Y96324D01*
X128675Y96398D01*
X128897Y96472D01*
X129082Y96620D01*
X129304Y96805D01*
X129341Y96842D01*
X129378Y96917D01*
X129489Y97028D01*
X129564Y97176D01*
X129786Y97583D01*
X129823Y97805D01*
X129860Y98102D01*
Y117877D01*
X129823Y117989D01*
X129786Y118174D01*
X129712Y118396D01*
X129638Y118618D01*
X129489Y118840D01*
X129304Y119025D01*
X129267Y119062D01*
X129193Y119100D01*
X129082Y119211D01*
X128934Y119322D01*
X128564Y119507D01*
X128305Y119544D01*
X128045Y119581D01*
D02*
G37*
G36*
X102789Y119507D02*
X102715D01*
X102455Y119470D01*
X102196Y119433D01*
X101715Y119173D01*
X101344Y118877D01*
X101011Y118507D01*
X100752Y118100D01*
X100604Y117803D01*
X100492Y117544D01*
X100456Y117507D01*
Y117470D01*
X99715Y115544D01*
X99011Y113693D01*
X98345Y111878D01*
X97678Y110137D01*
X97048Y108508D01*
X96419Y106916D01*
X95863Y105471D01*
X95345Y104101D01*
X94864Y102842D01*
X94456Y101731D01*
X94234Y101250D01*
X94086Y100768D01*
X93901Y100361D01*
X93752Y99953D01*
X93604Y99620D01*
X93493Y99324D01*
X93382Y99065D01*
X93308Y98842D01*
X93234Y98657D01*
X93197Y98546D01*
X93160Y98472D01*
Y98435D01*
X93123Y98102D01*
Y97768D01*
X93160Y97509D01*
X93271Y97250D01*
X93345Y97065D01*
X93456Y96917D01*
X93493Y96842D01*
X93530Y96805D01*
X93752Y96620D01*
X93975Y96472D01*
X94197Y96361D01*
X94419Y96287D01*
X94604Y96250D01*
X94715Y96213D01*
X94864D01*
X95345Y96287D01*
X95752Y96472D01*
X96049Y96694D01*
X96308Y96991D01*
X96530Y97287D01*
X96641Y97509D01*
X96715Y97694D01*
X96752Y97768D01*
X96937Y98361D01*
X97160Y98953D01*
X97419Y99546D01*
X97641Y100101D01*
X97826Y100583D01*
X98011Y100953D01*
X98085Y101101D01*
X98122Y101212D01*
X98159Y101250D01*
Y101286D01*
X107307D01*
X107603Y100546D01*
X107862Y99879D01*
X108121Y99250D01*
X108344Y98731D01*
X108492Y98324D01*
X108640Y97991D01*
X108714Y97805D01*
X108751Y97731D01*
X108973Y97213D01*
X109269Y96842D01*
X109566Y96583D01*
X109862Y96398D01*
X110158Y96287D01*
X110380Y96250D01*
X110528Y96213D01*
X110603D01*
X110899Y96250D01*
X111158Y96324D01*
X111380Y96398D01*
X111566Y96509D01*
X111714Y96620D01*
X111825Y96731D01*
X111899Y96769D01*
X111936Y96805D01*
X112121Y97065D01*
X112232Y97361D01*
X112306Y97620D01*
X112343Y97879D01*
Y98287D01*
X112306Y98398D01*
Y98435D01*
X110973Y101768D01*
X109677Y105101D01*
X109047Y106730D01*
X108455Y108286D01*
X107862Y109804D01*
X107307Y111248D01*
X106825Y112545D01*
X106344Y113767D01*
X106122Y114285D01*
X105936Y114804D01*
X105751Y115285D01*
X105603Y115730D01*
X105455Y116100D01*
X105307Y116470D01*
X105196Y116766D01*
X105122Y117026D01*
X105048Y117211D01*
X104974Y117359D01*
X104937Y117433D01*
Y117470D01*
X104788Y117840D01*
X104640Y118137D01*
X104455Y118433D01*
X104270Y118655D01*
X103900Y119025D01*
X103529Y119248D01*
X103233Y119396D01*
X102974Y119470D01*
X102789Y119507D01*
D02*
G37*
G36*
X89234Y119322D02*
X82717D01*
X82457Y119285D01*
X82161D01*
X81495Y119173D01*
X80717Y119025D01*
X79902Y118766D01*
X79050Y118396D01*
X78236Y117914D01*
X78198Y117877D01*
X78162Y117840D01*
X78050Y117729D01*
X77902Y117581D01*
X77754Y117359D01*
X77569Y117137D01*
X77384Y116877D01*
X77199Y116544D01*
X76976Y116211D01*
X76791Y115803D01*
X76643Y115396D01*
X76458Y114915D01*
X76347Y114433D01*
X76236Y113915D01*
X76162Y113322D01*
Y112211D01*
X76199Y111989D01*
X76236Y111730D01*
X76273Y111434D01*
X76421Y110730D01*
X76643Y109915D01*
X77014Y109064D01*
X77236Y108619D01*
X77495Y108212D01*
X77791Y107804D01*
X78162Y107397D01*
X78198D01*
X78236Y107323D01*
X78347Y107286D01*
X78495Y107175D01*
X78680Y107101D01*
X78902Y106990D01*
X79458Y106730D01*
X80161Y106508D01*
X80976Y106323D01*
X81902Y106212D01*
X82939Y106175D01*
X87420D01*
Y97768D01*
Y97731D01*
Y97657D01*
X87457Y97509D01*
X87494Y97324D01*
X87642Y96880D01*
X87753Y96694D01*
X87938Y96472D01*
X87975Y96435D01*
X88012Y96398D01*
X88160Y96324D01*
X88309Y96250D01*
X88716Y96065D01*
X88938Y96028D01*
X89234Y95991D01*
X89346D01*
X89494Y96028D01*
X89642Y96065D01*
X90049Y96213D01*
X90271Y96324D01*
X90494Y96472D01*
X90531Y96509D01*
X90568Y96583D01*
X90642Y96694D01*
X90753Y96842D01*
X90938Y97250D01*
X90975Y97472D01*
X91012Y97768D01*
Y117618D01*
X90975Y117766D01*
X90938Y117951D01*
X90790Y118359D01*
X90679Y118581D01*
X90494Y118766D01*
X90456Y118803D01*
X90382Y118840D01*
X90271Y118951D01*
X90123Y119062D01*
X89716Y119248D01*
X89494Y119285D01*
X89234Y119322D01*
D02*
G37*
%LPD*%
G36*
X126157Y99990D02*
X123749D01*
X123564Y100027D01*
X123231Y100064D01*
X122824Y100139D01*
X122379Y100287D01*
X121824Y100472D01*
X121268Y100731D01*
X120713Y101064D01*
X120120Y101472D01*
X119602Y101990D01*
X119083Y102583D01*
X118639Y103323D01*
X118306Y104175D01*
X118046Y105138D01*
X117935Y105694D01*
X117898Y106286D01*
X117861Y106878D01*
X117898Y107545D01*
Y107582D01*
Y107619D01*
Y107730D01*
Y107878D01*
X117935Y108249D01*
X117972Y108767D01*
X118083Y109360D01*
X118194Y110026D01*
X118380Y110730D01*
X118639Y111471D01*
X118935Y112211D01*
X119342Y112952D01*
X119824Y113656D01*
X120379Y114248D01*
X121046Y114804D01*
X121861Y115248D01*
X122305Y115396D01*
X122787Y115544D01*
X123268Y115655D01*
X123823Y115692D01*
X126157D01*
Y99990D01*
D02*
G37*
G36*
X106233Y104545D02*
X99345D01*
X102789Y113767D01*
X106233Y104545D01*
D02*
G37*
G36*
X87420Y110100D02*
X82605D01*
X82124Y110175D01*
X81531Y110360D01*
X81235Y110471D01*
X80976Y110619D01*
X80680Y110841D01*
X80458Y111100D01*
X80235Y111397D01*
X80050Y111730D01*
X79939Y112137D01*
X79865Y112619D01*
Y112841D01*
Y112878D01*
Y112952D01*
X79902Y113100D01*
Y113248D01*
X80050Y113693D01*
X80161Y113915D01*
X80309Y114174D01*
X80495Y114433D01*
X80754Y114692D01*
X81013Y114915D01*
X81383Y115137D01*
X81791Y115322D01*
X82272Y115470D01*
X82828Y115581D01*
X83457Y115655D01*
X87420D01*
Y110100D01*
D02*
G37*
M02*
