G04*
G04 #@! TF.GenerationSoftware,Altium Limited,Altium Designer,20.0.10 (225)*
G04*
G04 Layer_Physical_Order=2*
G04 Layer_Color=32768*
%FSLAX44Y44*%
%MOMM*%
G71*
G01*
G75*
%ADD35C,1.0160*%
%ADD36C,1.6000*%
%ADD37C,0.8000*%
%ADD38C,0.8500*%
D35*
X-12700Y-13700D02*
Y141050D01*
X241300D01*
Y-13700D02*
Y141050D01*
X-12700Y-13700D02*
X241300D01*
D36*
X0Y127000D02*
D03*
Y101600D02*
D03*
Y76200D02*
D03*
Y50800D02*
D03*
Y25400D02*
D03*
X228600Y0D02*
D03*
Y25400D02*
D03*
Y50800D02*
D03*
Y76200D02*
D03*
Y101600D02*
D03*
Y127000D02*
D03*
D37*
X95000Y127250D02*
D03*
D38*
X55450Y123500D02*
D03*
X63983Y123750D02*
D03*
X41700Y114250D02*
D03*
X48752Y123756D02*
D03*
X42502Y120756D02*
D03*
X133950Y96182D02*
D03*
X51753Y72503D02*
D03*
X46089Y67968D02*
D03*
X43450Y74947D02*
D03*
X35252Y69003D02*
D03*
X77754Y55003D02*
D03*
X59858Y60000D02*
D03*
X87500Y22500D02*
D03*
X25000Y26000D02*
D03*
X217011Y102255D02*
D03*
X35500Y50500D02*
D03*
X205750Y72000D02*
D03*
X146250Y77250D02*
D03*
X131506Y126756D02*
D03*
X132507Y76754D02*
D03*
X112892Y81500D02*
D03*
X109750Y91000D02*
D03*
X113256Y65253D02*
D03*
X109700Y75500D02*
D03*
X103445Y65538D02*
D03*
X68003Y60003D02*
D03*
X78754Y61503D02*
D03*
X130148Y120160D02*
D03*
X158500Y96250D02*
D03*
X24250Y131500D02*
D03*
X44502Y100255D02*
D03*
X142250Y123500D02*
D03*
X166750Y76500D02*
D03*
X112255Y101505D02*
D03*
X179000Y45250D02*
D03*
X177500Y56750D02*
D03*
X60000Y11500D02*
D03*
X20501Y62503D02*
D03*
X43200Y85500D02*
D03*
X198250Y105587D02*
D03*
X59000Y26750D02*
D03*
X57753Y43752D02*
D03*
X120750Y111750D02*
D03*
X182000Y107000D02*
D03*
X174250Y104750D02*
D03*
M02*
