G04*
G04 #@! TF.GenerationSoftware,Altium Limited,Altium Designer,20.0.10 (225)*
G04*
G04 Layer_Physical_Order=1*
G04 Layer_Color=255*
%FSLAX44Y44*%
%MOMM*%
G71*
G01*
G75*
%ADD12C,0.2000*%
%ADD13C,0.1500*%
%ADD15R,0.6000X0.6000*%
%ADD16R,0.6000X0.6000*%
G04:AMPARAMS|DCode=17|XSize=3mm|YSize=2mm|CornerRadius=0.5mm|HoleSize=0mm|Usage=FLASHONLY|Rotation=0.000|XOffset=0mm|YOffset=0mm|HoleType=Round|Shape=RoundedRectangle|*
%AMROUNDEDRECTD17*
21,1,3.0000,1.0000,0,0,0.0*
21,1,2.0000,2.0000,0,0,0.0*
1,1,1.0000,1.0000,-0.5000*
1,1,1.0000,-1.0000,-0.5000*
1,1,1.0000,-1.0000,0.5000*
1,1,1.0000,1.0000,0.5000*
%
%ADD17ROUNDEDRECTD17*%
G04:AMPARAMS|DCode=18|XSize=0.5mm|YSize=1.7mm|CornerRadius=0mm|HoleSize=0mm|Usage=FLASHONLY|Rotation=180.000|XOffset=0mm|YOffset=0mm|HoleType=Round|Shape=Octagon|*
%AMOCTAGOND18*
4,1,8,0.1250,-0.8500,-0.1250,-0.8500,-0.2500,-0.7250,-0.2500,0.7250,-0.1250,0.8500,0.1250,0.8500,0.2500,0.7250,0.2500,-0.7250,0.1250,-0.8500,0.0*
%
%ADD18OCTAGOND18*%

G04:AMPARAMS|DCode=19|XSize=0.5mm|YSize=1.7mm|CornerRadius=0.125mm|HoleSize=0mm|Usage=FLASHONLY|Rotation=180.000|XOffset=0mm|YOffset=0mm|HoleType=Round|Shape=RoundedRectangle|*
%AMROUNDEDRECTD19*
21,1,0.5000,1.4500,0,0,180.0*
21,1,0.2500,1.7000,0,0,180.0*
1,1,0.2500,-0.1250,0.7250*
1,1,0.2500,0.1250,0.7250*
1,1,0.2500,0.1250,-0.7250*
1,1,0.2500,-0.1250,-0.7250*
%
%ADD19ROUNDEDRECTD19*%
G04:AMPARAMS|DCode=20|XSize=1mm|YSize=1mm|CornerRadius=0mm|HoleSize=0mm|Usage=FLASHONLY|Rotation=90.000|XOffset=0mm|YOffset=0mm|HoleType=Round|Shape=Octagon|*
%AMOCTAGOND20*
4,1,8,0.2500,0.5000,-0.2500,0.5000,-0.5000,0.2500,-0.5000,-0.2500,-0.2500,-0.5000,0.2500,-0.5000,0.5000,-0.2500,0.5000,0.2500,0.2500,0.5000,0.0*
%
%ADD20OCTAGOND20*%

G04:AMPARAMS|DCode=21|XSize=1mm|YSize=1mm|CornerRadius=0.25mm|HoleSize=0mm|Usage=FLASHONLY|Rotation=90.000|XOffset=0mm|YOffset=0mm|HoleType=Round|Shape=RoundedRectangle|*
%AMROUNDEDRECTD21*
21,1,1.0000,0.5000,0,0,90.0*
21,1,0.5000,1.0000,0,0,90.0*
1,1,0.5000,0.2500,0.2500*
1,1,0.5000,0.2500,-0.2500*
1,1,0.5000,-0.2500,-0.2500*
1,1,0.5000,-0.2500,0.2500*
%
%ADD21ROUNDEDRECTD21*%
G04:AMPARAMS|DCode=22|XSize=0.3mm|YSize=0.9mm|CornerRadius=0.075mm|HoleSize=0mm|Usage=FLASHONLY|Rotation=90.000|XOffset=0mm|YOffset=0mm|HoleType=Round|Shape=RoundedRectangle|*
%AMROUNDEDRECTD22*
21,1,0.3000,0.7500,0,0,90.0*
21,1,0.1500,0.9000,0,0,90.0*
1,1,0.1500,0.3750,0.0750*
1,1,0.1500,0.3750,-0.0750*
1,1,0.1500,-0.3750,-0.0750*
1,1,0.1500,-0.3750,0.0750*
%
%ADD22ROUNDEDRECTD22*%
G04:AMPARAMS|DCode=23|XSize=0.3mm|YSize=0.9mm|CornerRadius=0.075mm|HoleSize=0mm|Usage=FLASHONLY|Rotation=180.000|XOffset=0mm|YOffset=0mm|HoleType=Round|Shape=RoundedRectangle|*
%AMROUNDEDRECTD23*
21,1,0.3000,0.7500,0,0,180.0*
21,1,0.1500,0.9000,0,0,180.0*
1,1,0.1500,-0.0750,0.3750*
1,1,0.1500,0.0750,0.3750*
1,1,0.1500,0.0750,-0.3750*
1,1,0.1500,-0.0750,-0.3750*
%
%ADD23ROUNDEDRECTD23*%
%ADD24R,3.4000X3.4000*%
G04:AMPARAMS|DCode=25|XSize=0.6mm|YSize=0.8mm|CornerRadius=0.15mm|HoleSize=0mm|Usage=FLASHONLY|Rotation=180.000|XOffset=0mm|YOffset=0mm|HoleType=Round|Shape=RoundedRectangle|*
%AMROUNDEDRECTD25*
21,1,0.6000,0.5000,0,0,180.0*
21,1,0.3000,0.8000,0,0,180.0*
1,1,0.3000,-0.1500,0.2500*
1,1,0.3000,0.1500,0.2500*
1,1,0.3000,0.1500,-0.2500*
1,1,0.3000,-0.1500,-0.2500*
%
%ADD25ROUNDEDRECTD25*%
G04:AMPARAMS|DCode=26|XSize=0.7mm|YSize=0.8mm|CornerRadius=0.175mm|HoleSize=0mm|Usage=FLASHONLY|Rotation=270.000|XOffset=0mm|YOffset=0mm|HoleType=Round|Shape=RoundedRectangle|*
%AMROUNDEDRECTD26*
21,1,0.7000,0.4500,0,0,270.0*
21,1,0.3500,0.8000,0,0,270.0*
1,1,0.3500,-0.2250,-0.1750*
1,1,0.3500,-0.2250,0.1750*
1,1,0.3500,0.2250,0.1750*
1,1,0.3500,0.2250,-0.1750*
%
%ADD26ROUNDEDRECTD26*%
G04:AMPARAMS|DCode=27|XSize=1.35mm|YSize=0.8mm|CornerRadius=0.2mm|HoleSize=0mm|Usage=FLASHONLY|Rotation=270.000|XOffset=0mm|YOffset=0mm|HoleType=Round|Shape=RoundedRectangle|*
%AMROUNDEDRECTD27*
21,1,1.3500,0.4000,0,0,270.0*
21,1,0.9500,0.8000,0,0,270.0*
1,1,0.4000,-0.2000,-0.4750*
1,1,0.4000,-0.2000,0.4750*
1,1,0.4000,0.2000,0.4750*
1,1,0.4000,0.2000,-0.4750*
%
%ADD27ROUNDEDRECTD27*%
G04:AMPARAMS|DCode=28|XSize=0.5mm|YSize=0.5mm|CornerRadius=0.125mm|HoleSize=0mm|Usage=FLASHONLY|Rotation=180.000|XOffset=0mm|YOffset=0mm|HoleType=Round|Shape=RoundedRectangle|*
%AMROUNDEDRECTD28*
21,1,0.5000,0.2500,0,0,180.0*
21,1,0.2500,0.5000,0,0,180.0*
1,1,0.2500,-0.1250,0.1250*
1,1,0.2500,0.1250,0.1250*
1,1,0.2500,0.1250,-0.1250*
1,1,0.2500,-0.1250,-0.1250*
%
%ADD28ROUNDEDRECTD28*%
G04:AMPARAMS|DCode=29|XSize=1mm|YSize=0.9mm|CornerRadius=0.225mm|HoleSize=0mm|Usage=FLASHONLY|Rotation=90.000|XOffset=0mm|YOffset=0mm|HoleType=Round|Shape=RoundedRectangle|*
%AMROUNDEDRECTD29*
21,1,1.0000,0.4500,0,0,90.0*
21,1,0.5500,0.9000,0,0,90.0*
1,1,0.4500,0.2250,0.2750*
1,1,0.4500,0.2250,-0.2750*
1,1,0.4500,-0.2250,-0.2750*
1,1,0.4500,-0.2250,0.2750*
%
%ADD29ROUNDEDRECTD29*%
G04:AMPARAMS|DCode=30|XSize=0.6mm|YSize=1mm|CornerRadius=0.15mm|HoleSize=0mm|Usage=FLASHONLY|Rotation=90.000|XOffset=0mm|YOffset=0mm|HoleType=Round|Shape=RoundedRectangle|*
%AMROUNDEDRECTD30*
21,1,0.6000,0.7000,0,0,90.0*
21,1,0.3000,1.0000,0,0,90.0*
1,1,0.3000,0.3500,0.1500*
1,1,0.3000,0.3500,-0.1500*
1,1,0.3000,-0.3500,-0.1500*
1,1,0.3000,-0.3500,0.1500*
%
%ADD30ROUNDEDRECTD30*%
G04:AMPARAMS|DCode=31|XSize=1.5mm|YSize=1.5mm|CornerRadius=0.375mm|HoleSize=0mm|Usage=FLASHONLY|Rotation=180.000|XOffset=0mm|YOffset=0mm|HoleType=Round|Shape=RoundedRectangle|*
%AMROUNDEDRECTD31*
21,1,1.5000,0.7500,0,0,180.0*
21,1,0.7500,1.5000,0,0,180.0*
1,1,0.7500,-0.3750,0.3750*
1,1,0.7500,0.3750,0.3750*
1,1,0.7500,0.3750,-0.3750*
1,1,0.7500,-0.3750,-0.3750*
%
%ADD31ROUNDEDRECTD31*%
%ADD32C,1.5000*%
%ADD33C,0.5000*%
%ADD34C,1.2000*%
D12*
X62253Y133257D02*
X62557Y132953D01*
X68547D01*
X69750Y131750D01*
X211858Y65608D02*
Y76500D01*
X211500Y65250D02*
X211858Y65608D01*
X140896Y117250D02*
X155000D01*
X140750Y117396D02*
X140896Y117250D01*
X137700Y77250D02*
Y83108D01*
X129000Y85000D02*
X130006Y86006D01*
X136750Y77250D02*
X137700D01*
X127454Y83108D02*
X137700D01*
X130006Y86006D02*
Y87504D01*
X127450Y83104D02*
X127454Y83108D01*
X129000Y85000D02*
X136750Y77250D01*
X132000Y99000D02*
Y99750D01*
X73950Y123346D02*
X82354Y131750D01*
X132000Y99000D02*
X136508Y94492D01*
Y93924D02*
X137854Y92578D01*
X108342Y112086D02*
Y130000D01*
X95000Y131750D02*
X108092D01*
X136508Y93924D02*
Y94492D01*
X107342Y131000D02*
X108342Y130000D01*
X127684Y104066D02*
X132000Y99750D01*
X126066Y104066D02*
X127684D01*
X211750Y76500D02*
Y86442D01*
X35500Y58104D02*
X41000Y63604D01*
X6492Y26892D02*
X16108D01*
X0Y20400D02*
X6492Y26892D01*
X53753Y49252D02*
X54500Y50000D01*
X53179Y50321D02*
X53750Y49750D01*
X50000Y61000D02*
X52000Y59000D01*
Y55817D02*
Y59000D01*
Y55817D02*
X53179Y54638D01*
Y50321D02*
Y54638D01*
X145750Y85544D02*
Y87000D01*
Y85544D02*
X146250Y85044D01*
X146257Y85051D01*
X216750Y102255D02*
X217011D01*
X197251Y66249D02*
X197500Y66000D01*
X186853Y66249D02*
X197251D01*
X49326Y124330D02*
Y126826D01*
X48752Y123756D02*
X49326Y124330D01*
X55450Y117700D02*
Y123500D01*
X44502Y120756D02*
X51950Y113308D01*
X42502Y120756D02*
X44502D01*
X63983Y120069D02*
Y123750D01*
X51950Y110500D02*
Y113308D01*
X18452Y131298D02*
X19250Y130500D01*
X12672Y131650D02*
X18804D01*
X11500Y130478D02*
X12672Y131650D01*
X11500Y126204D02*
Y130478D01*
X10500Y125204D02*
X11500Y126204D01*
X49326Y126826D02*
X54250Y131750D01*
X24896Y43354D02*
X33000D01*
X16000Y52250D02*
X24896Y43354D01*
X27558Y52504D02*
Y62750D01*
X33811Y69003D01*
X158200Y83104D02*
Y83104D01*
X150250Y94392D02*
X154105Y90537D01*
X157496D01*
X158750Y89283D01*
Y83104D02*
Y89283D01*
X61950Y-5500D02*
X65450Y-2000D01*
X76250D01*
X60125Y11625D02*
X60125D01*
X60000Y11750D02*
X60125Y11625D01*
X60000Y11500D02*
X63500Y15000D01*
X76250D01*
X4500Y114250D02*
Y114500D01*
X5500Y115500D01*
X9750D01*
X82354Y131750D02*
X95000D01*
Y127250D02*
Y131750D01*
X108092D02*
X108342Y132000D01*
X41000Y63604D02*
Y69750D01*
X35500Y50500D02*
Y58104D01*
X56750Y68179D02*
Y68500D01*
X56075Y67503D02*
X57954D01*
X45935Y67814D02*
X46246Y67503D01*
X46554D02*
X56075D01*
X46246D02*
X46554D01*
X57954D02*
X58950Y68500D01*
X46089Y67968D02*
X46554Y67503D01*
X23038Y39854D02*
X33000Y29892D01*
X22196Y39854D02*
X23038D01*
X22175Y39875D02*
X22196Y39854D01*
X15000Y39875D02*
X22175D01*
X43892Y29892D02*
X44250Y30250D01*
X33000Y29892D02*
X43892D01*
X44250Y37397D02*
X44397Y37250D01*
X44250D02*
X44397D01*
X33000Y38250D02*
Y43354D01*
X34000Y37250D02*
X44250D01*
X33000Y38250D02*
X34000Y37250D01*
X68700Y39000D02*
X74846D01*
X61821Y40750D02*
X68500D01*
Y40750D02*
X68750D01*
X44397Y37250D02*
X58321D01*
X61821Y40750D01*
X44250Y37397D02*
Y43000D01*
X51753Y72503D02*
Y75288D01*
X51750Y75290D02*
X51753Y75288D01*
X51750Y75290D02*
X51753Y75293D01*
X51750Y75295D02*
X51753Y75293D01*
X38250Y73076D02*
Y77815D01*
Y73076D02*
X40252Y71074D01*
Y70677D02*
Y71074D01*
Y70677D02*
X41090Y69840D01*
X33811Y69003D02*
X35252D01*
X16108Y26892D02*
X17000Y26000D01*
X15000Y28000D02*
X16108Y26892D01*
X17000Y26000D02*
X25000D01*
X86200Y30500D02*
Y53786D01*
X86250Y30500D02*
X87500Y29250D01*
Y22500D02*
Y29250D01*
X155000Y117250D02*
X161000Y111250D01*
X198146Y105587D02*
Y105646D01*
Y96250D02*
Y105587D01*
Y105646D02*
X198250Y105750D01*
X181000Y96000D02*
Y96250D01*
X211608Y97108D02*
X216750Y102250D01*
X211608Y96250D02*
Y97108D01*
X18842Y85842D02*
Y86658D01*
X16500Y89000D02*
X18842Y86658D01*
Y85842D02*
X19250Y86250D01*
X14142Y81142D02*
X18842Y85842D01*
X14142Y73500D02*
Y81142D01*
X51750Y75300D02*
X51753Y75298D01*
X51750Y75295D02*
X51753Y75298D01*
X211750Y86442D02*
X211808Y86500D01*
X27179Y121500D02*
X30808D01*
X19250Y129429D02*
X27179Y121500D01*
X19250Y129429D02*
Y130500D01*
X120972Y70753D02*
X121006D01*
X119861Y69642D02*
X120972Y70753D01*
X119861Y69642D02*
X127450D01*
X148200Y83108D02*
X158196D01*
X146257Y85051D02*
X148200Y83108D01*
X63503Y118055D02*
X64004Y117554D01*
X83950Y56036D02*
Y68500D01*
Y56036D02*
X86200Y53786D01*
X78754Y61503D02*
Y68304D01*
X74846Y39000D02*
X79700Y34146D01*
X123382Y106750D02*
X126066Y104066D01*
X78754Y68304D02*
X78950Y68500D01*
X115924Y109505D02*
X118679Y106750D01*
X110923Y109505D02*
X115924D01*
X108342Y112086D02*
X110923Y109505D01*
X118679Y106750D02*
X123382D01*
X173500Y129500D02*
X173750Y129750D01*
X158950Y129500D02*
X173500D01*
X60000Y11500D02*
Y11750D01*
X158196Y83108D02*
X158200Y83104D01*
X51750Y75300D02*
X51950Y75500D01*
X30622Y108878D02*
Y114000D01*
X25950Y114250D02*
X26200Y114000D01*
X30622D01*
Y108878D02*
X34200Y105300D01*
X186804Y86500D02*
X186804Y86500D01*
X198346D01*
X186804Y75500D02*
X198450D01*
X88950Y117500D02*
X88950Y117500D01*
X43200Y85500D02*
X51950D01*
X30622Y114000D02*
Y121500D01*
X43200Y82765D02*
Y85500D01*
X63950Y117500D02*
X64004Y117554D01*
X55650Y117500D02*
X58950D01*
X55450Y117700D02*
X55650Y117500D01*
X73950D02*
Y123346D01*
X158200Y69642D02*
X164796D01*
X166950Y67488D01*
X38250Y77815D02*
X43200Y82765D01*
X168000Y42370D02*
X170812Y39558D01*
X168000Y42370D02*
Y54250D01*
X166950D02*
Y67488D01*
X10000Y89000D02*
X16500D01*
X181000Y96250D02*
X190337Y105587D01*
X198146D01*
X9750Y115500D02*
X10500Y116250D01*
Y125204D01*
D13*
X126500Y110812D02*
Y116360D01*
Y110812D02*
X126882Y110430D01*
Y104882D02*
Y110430D01*
X126066Y104066D02*
X126882Y104882D01*
X121804Y121561D02*
X122500Y122257D01*
X126500Y116360D02*
X128550Y118410D01*
X133950D02*
X134180Y118180D01*
X122500Y122257D02*
X125764D01*
X128550Y118410D02*
X133950D01*
X121804Y120500D02*
Y121561D01*
X134180Y118180D02*
X135500Y119500D01*
Y123750D01*
X140750Y129000D01*
X135500Y109250D02*
X150250D01*
X134250Y110500D02*
X135500Y109250D01*
X132450Y112160D02*
X134180Y110430D01*
X129500Y130000D02*
X131506Y127994D01*
X121804Y130000D02*
X129500D01*
X131506Y126756D02*
Y127994D01*
X174250Y88054D02*
X174573Y87731D01*
X166250Y86500D02*
X173340D01*
X165750D02*
X166250D01*
X165500Y86250D02*
X166250D01*
X173340Y86500D02*
X173341Y86499D01*
X165500Y86250D02*
X165750Y86500D01*
X158500Y96250D02*
X166250D01*
X41700Y114250D02*
X44200Y111750D01*
X44502Y100255D02*
X44747Y100500D01*
X28500Y95500D02*
X51950D01*
X37927Y131650D02*
X42546D01*
X28804D02*
X37927D01*
X42546D02*
X42646Y131750D01*
X15700Y62750D02*
X15700Y62750D01*
X1000Y62750D02*
X15700D01*
X18700Y105300D02*
X28500Y95500D01*
X118000Y90750D02*
X119828Y92578D01*
X124900D01*
X118000Y77083D02*
Y90750D01*
X108195Y67278D02*
X118000Y77083D01*
X150788Y53462D02*
Y62000D01*
X149538Y63250D02*
X150788Y62000D01*
X149000Y63250D02*
X149538D01*
X136750Y64000D02*
X141750D01*
X135700Y65050D02*
Y69646D01*
X143250Y52000D02*
Y62500D01*
X141750Y64000D02*
X143250Y62500D01*
X135700Y65050D02*
X136750Y64000D01*
X147250Y65000D02*
X149000Y63250D01*
X147250Y65000D02*
Y69646D01*
X0Y50800D02*
Y61750D01*
X1000Y62750D01*
X196000Y121000D02*
X222600D01*
X228600Y127000D01*
X44200Y106750D02*
Y111750D01*
X66500Y31250D02*
X68750D01*
X62000Y26750D02*
X66500Y31250D01*
X59000Y26750D02*
X62000D01*
X43450Y74947D02*
Y78018D01*
X43250Y78218D02*
X43450Y78018D01*
X63725Y68275D02*
X63950Y68500D01*
X61000Y60000D02*
X63750Y62750D01*
Y68250D01*
X59858Y60000D02*
X61000D01*
X74254Y56753D02*
X76003Y55003D01*
X77754D01*
X32304Y84304D02*
Y84904D01*
X34200Y86800D02*
X37900Y90500D01*
X32304Y84304D02*
X34750Y86750D01*
X27604Y79604D02*
X32304Y84304D01*
X27604Y73500D02*
Y79604D01*
X108195Y63570D02*
Y67278D01*
X105413Y60788D02*
X108195Y63570D01*
X88962Y60788D02*
X105413D01*
X112892Y81500D02*
Y84892D01*
X109250Y90500D02*
X109750Y91000D01*
X116565Y65253D02*
X119568Y62250D01*
X113256Y65253D02*
X116565D01*
X126260Y62250D02*
X128593Y59917D01*
X119568Y62250D02*
X126260D01*
X100950Y75500D02*
X109700D01*
X100712Y65538D02*
X103445D01*
X97750Y68500D02*
X100712Y65538D01*
X88950Y60800D02*
X88962Y60788D01*
X68950Y60003D02*
Y68500D01*
X166250Y96250D02*
X166500Y96000D01*
X166750Y76500D02*
X172342D01*
X61608Y47608D02*
X79700D01*
X74003Y57003D02*
X74254Y56753D01*
X88950Y60800D02*
Y68500D01*
X74254Y56753D02*
X74256Y56750D01*
X74003Y57003D02*
Y64721D01*
X73879Y64846D02*
X74003Y64721D01*
X73879Y64846D02*
Y68429D01*
X44747Y100500D02*
X51950D01*
X172342Y76500D02*
X172500Y76342D01*
X73879Y68429D02*
X73950Y68500D01*
X117312Y99844D02*
Y103521D01*
X110288Y106255D02*
X114578D01*
X117312Y103521D01*
X100950Y100500D02*
X106572D01*
X107506Y101434D01*
Y103473D01*
X110288Y106255D01*
X115000Y97532D02*
X117312Y99844D01*
X112113Y101505D02*
X112255D01*
X106108Y95500D02*
X112113Y101505D01*
X115000Y87000D02*
Y97532D01*
X112892Y84892D02*
X115000Y87000D01*
X100950Y90500D02*
X109250D01*
X100950Y95500D02*
X106108D01*
X37900Y90500D02*
X51950D01*
X93950Y68500D02*
X93950Y68500D01*
X45450Y105500D02*
X51950D01*
X44200Y106750D02*
X45450Y105500D01*
X17346Y121500D02*
X18700Y120146D01*
Y105300D02*
Y120146D01*
X32304Y84904D02*
X34200Y86800D01*
X43250Y78218D02*
X45532Y80500D01*
X51950D01*
X78593Y46501D02*
X79700Y47608D01*
X172500Y75500D02*
Y76342D01*
X150788Y53462D02*
X151000Y53250D01*
X134950Y53300D02*
X135000Y53250D01*
X129835D02*
X135000D01*
X173342Y86500D02*
X174573Y87731D01*
X93950Y68500D02*
X97750D01*
X57753Y43752D02*
X61608Y47608D01*
X128593Y54493D02*
Y59917D01*
Y54493D02*
X129835Y53250D01*
X175342Y58908D02*
Y66500D01*
Y58908D02*
X177500Y56750D01*
X120750Y111750D02*
X120910Y111910D01*
X182000Y107000D02*
X196000Y121000D01*
D15*
X33000Y41750D02*
D03*
Y31750D02*
D03*
X79700Y35750D02*
D03*
Y45750D02*
D03*
X158750Y81500D02*
D03*
Y71500D02*
D03*
X124500Y81500D02*
D03*
Y71500D02*
D03*
X150250Y106250D02*
D03*
Y96250D02*
D03*
X140750Y119000D02*
D03*
Y129000D02*
D03*
X135700Y71250D02*
D03*
Y81250D02*
D03*
X147250Y71250D02*
D03*
Y81250D02*
D03*
D16*
X26000Y73500D02*
D03*
X16000D02*
D03*
X18750Y119500D02*
D03*
X28750D02*
D03*
X40000Y61000D02*
D03*
X50000D02*
D03*
X79750Y131750D02*
D03*
X69750D02*
D03*
X28804Y131650D02*
D03*
X18804D02*
D03*
X26000Y52250D02*
D03*
X16000D02*
D03*
X15700Y62750D02*
D03*
X25700D02*
D03*
X200000Y96750D02*
D03*
X210000D02*
D03*
X179750D02*
D03*
X169750D02*
D03*
X199950Y86500D02*
D03*
X209950D02*
D03*
X200000Y76500D02*
D03*
X210000D02*
D03*
X120250Y120250D02*
D03*
X110250D02*
D03*
X120200Y132000D02*
D03*
X110200D02*
D03*
X200000Y66250D02*
D03*
X210000D02*
D03*
X44250Y131750D02*
D03*
X54250D02*
D03*
D17*
X103900Y500D02*
D03*
Y48000D02*
D03*
X198600Y500D02*
D03*
Y48000D02*
D03*
D18*
X135250Y52000D02*
D03*
D19*
X151250D02*
D03*
X143250D02*
D03*
X159250D02*
D03*
X167250D02*
D03*
D20*
X24250Y-2000D02*
D03*
X161000Y112250D02*
D03*
D21*
X24250Y15000D02*
D03*
X76250Y-2000D02*
D03*
Y15000D02*
D03*
X161000Y129250D02*
D03*
X213000Y112250D02*
D03*
Y129250D02*
D03*
D22*
X51950Y80500D02*
D03*
Y75500D02*
D03*
Y85500D02*
D03*
Y95500D02*
D03*
Y90500D02*
D03*
Y105500D02*
D03*
Y110500D02*
D03*
Y100500D02*
D03*
X100950Y75500D02*
D03*
Y80500D02*
D03*
Y85500D02*
D03*
Y95500D02*
D03*
Y90500D02*
D03*
Y110500D02*
D03*
Y100500D02*
D03*
Y105500D02*
D03*
D23*
X63950Y68500D02*
D03*
X58950D02*
D03*
Y117500D02*
D03*
X68950D02*
D03*
X63950D02*
D03*
X83950Y68500D02*
D03*
X88950D02*
D03*
X68950D02*
D03*
X78950D02*
D03*
X73950D02*
D03*
X93950D02*
D03*
X88950Y117500D02*
D03*
X93950D02*
D03*
X73950D02*
D03*
X83950D02*
D03*
X78950D02*
D03*
D24*
X76450Y93000D02*
D03*
D25*
X173391Y66249D02*
D03*
X186853D02*
D03*
X173341Y76499D02*
D03*
X186803D02*
D03*
X173341Y86499D02*
D03*
X186803D02*
D03*
D26*
X15000Y28125D02*
D03*
D27*
Y39875D02*
D03*
D28*
X124900Y92578D02*
D03*
X137854D02*
D03*
X131250Y113660D02*
D03*
D29*
X18250Y87750D02*
D03*
Y106250D02*
D03*
X33750D02*
D03*
Y87750D02*
D03*
D30*
X44750Y50250D02*
D03*
X68750D02*
D03*
Y40750D02*
D03*
Y31250D02*
D03*
X44750D02*
D03*
D31*
X0Y0D02*
D03*
Y25400D02*
D03*
Y50800D02*
D03*
Y101600D02*
D03*
Y76200D02*
D03*
X228600Y0D02*
D03*
Y25400D02*
D03*
Y50800D02*
D03*
Y76200D02*
D03*
Y101600D02*
D03*
Y127000D02*
D03*
D32*
X0D02*
D03*
D33*
X62253Y133257D02*
D03*
X206760Y71253D02*
D03*
X147948Y117250D02*
D03*
X130006Y87504D02*
D03*
X125764Y122257D02*
D03*
X131506Y126756D02*
D03*
X132000Y99750D02*
D03*
X166250Y86500D02*
D03*
X145750Y87000D02*
D03*
X158500Y96250D02*
D03*
X217011Y102255D02*
D03*
X55450Y123500D02*
D03*
X41700Y114250D02*
D03*
X42502Y120756D02*
D03*
X48752Y123756D02*
D03*
X63983Y123750D02*
D03*
X44502Y100255D02*
D03*
X37927Y131650D02*
D03*
X4500Y114500D02*
D03*
X95000Y127250D02*
D03*
X44250Y43000D02*
D03*
X51753Y72503D02*
D03*
X46089Y67968D02*
D03*
X43450Y74947D02*
D03*
X35252Y69003D02*
D03*
X77754Y55003D02*
D03*
X59858Y60000D02*
D03*
X87500Y22500D02*
D03*
X25000Y26000D02*
D03*
X35500Y50500D02*
D03*
X121006Y70753D02*
D03*
X112892Y81500D02*
D03*
X109750Y91000D02*
D03*
X113256Y65253D02*
D03*
X109700Y75500D02*
D03*
X103445Y65538D02*
D03*
X68003Y60003D02*
D03*
X53753Y49252D02*
D03*
X78754Y61503D02*
D03*
X166750Y76500D02*
D03*
X112255Y101505D02*
D03*
X179000Y45250D02*
D03*
X41000Y-1500D02*
D03*
X173750Y129750D02*
D03*
X177500Y56750D02*
D03*
X60000Y11500D02*
D03*
X83754Y86504D02*
D03*
X43200Y85500D02*
D03*
X26200Y114000D02*
D03*
X61950Y-5500D02*
D03*
X66200Y85500D02*
D03*
X85200Y103500D02*
D03*
X66200Y103750D02*
D03*
X198250Y105587D02*
D03*
X59000Y26750D02*
D03*
X57753Y43752D02*
D03*
X170812Y39558D02*
D03*
X120750Y111750D02*
D03*
X10000Y89000D02*
D03*
X182000Y107000D02*
D03*
D34*
X207000Y49500D02*
D03*
X95250Y50750D02*
D03*
X206796Y-1378D02*
D03*
X96699Y-1930D02*
D03*
M02*
