M48
;Layer_Color=0
;FILE_FORMAT=4:2
METRIC
;TYPE=PLATED
T1F00S00C0.20
T2F00S00C1.00
%
T01
X001163Y000195
X001097Y000412
X001071Y000888
X001168Y000947
X001240Y000960
X001316Y000723
X001520
X001590Y000840
X001592Y001074
X001666Y001160
X001744Y001269
X001769Y001383
X001787Y001483
X001771Y001575
X001638Y001659
X001250Y001670
X001050Y001800
X000944Y001737
X001010Y001410
Y001160
X001340Y001330
X001970Y001400
X002102Y001597
X002106Y001889
X002580Y001719
X002489Y001544
X002389Y001232
X002268Y001320
X002539Y001140
X002340Y000880
X002270Y000860
X002100Y000655
X001830Y000870
X001578Y000572
X001568Y000190
X000810Y000830
X000560Y001104
X000570Y001283
X000450Y001290
X000410Y001030
X000560Y001550
X001120Y001984
X002676Y001127
X002930Y000810
X002690Y000450
X003078Y000192
T02
X000127Y000415
Y000669
Y000923
Y001177
Y001431
Y001685
X003175
Y001431
Y001177
Y000923
Y000669
Y000415
M30
