G04*
G04 #@! TF.GenerationSoftware,Altium Limited,Altium Designer,20.0.10 (225)*
G04*
G04 Layer_Color=16776960*
%FSLAX44Y44*%
%MOMM*%
G71*
G01*
G75*
%ADD10C,0.2540*%
%ADD12C,0.2000*%
%ADD13C,0.1500*%
%ADD40C,0.0500*%
G36*
X205964Y167441D02*
X206047D01*
X206149Y167432D01*
X206260Y167413D01*
X206380Y167404D01*
X206639Y167348D01*
X206898Y167274D01*
X207147Y167182D01*
X207258Y167117D01*
X207360Y167043D01*
X207027Y166110D01*
X207018Y166119D01*
X206999Y166128D01*
X206972Y166147D01*
X206925Y166174D01*
X206870Y166202D01*
X206805Y166239D01*
X206657Y166322D01*
X206472Y166396D01*
X206269Y166461D01*
X206047Y166507D01*
X205927Y166526D01*
X205742D01*
X205677Y166516D01*
X205594Y166498D01*
X205502Y166479D01*
X205400Y166442D01*
X205308Y166387D01*
X205224Y166322D01*
X205215Y166313D01*
X205196Y166285D01*
X205159Y166239D01*
X205123Y166183D01*
X205086Y166110D01*
X205049Y166017D01*
X205030Y165915D01*
X205021Y165804D01*
Y165795D01*
Y165777D01*
X205030Y165749D01*
X205039Y165712D01*
X205058Y165666D01*
X205086Y165610D01*
X205123Y165546D01*
X205169Y165472D01*
X205224Y165388D01*
X205308Y165305D01*
X205400Y165213D01*
X205511Y165120D01*
X205650Y165019D01*
X205798Y164917D01*
X205982Y164815D01*
X206186Y164704D01*
X206195D01*
X206213Y164695D01*
X206241Y164676D01*
X206287Y164649D01*
X206398Y164593D01*
X206528Y164519D01*
X206676Y164436D01*
X206824Y164344D01*
X206962Y164242D01*
X207073Y164149D01*
X207083Y164140D01*
X207120Y164103D01*
X207166Y164057D01*
X207230Y163983D01*
X207295Y163900D01*
X207369Y163798D01*
X207434Y163678D01*
X207489Y163558D01*
X207499Y163539D01*
X207517Y163502D01*
X207536Y163428D01*
X207563Y163336D01*
X207591Y163225D01*
X207619Y163105D01*
X207628Y162957D01*
X207637Y162809D01*
Y162800D01*
Y162772D01*
Y162735D01*
X207628Y162689D01*
X207619Y162624D01*
X207610Y162550D01*
X207563Y162374D01*
X207489Y162180D01*
X207443Y162078D01*
X207388Y161977D01*
X207323Y161875D01*
X207240Y161773D01*
X207147Y161672D01*
X207046Y161579D01*
X207036Y161570D01*
X207018Y161561D01*
X206981Y161533D01*
X206935Y161505D01*
X206879Y161468D01*
X206805Y161431D01*
X206722Y161385D01*
X206630Y161339D01*
X206519Y161293D01*
X206398Y161246D01*
X206269Y161209D01*
X206130Y161172D01*
X205982Y161145D01*
X205816Y161117D01*
X205650Y161108D01*
X205465Y161098D01*
X205381D01*
X205317Y161108D01*
X205243D01*
X205159Y161126D01*
X205058Y161135D01*
X204947Y161154D01*
X204706Y161209D01*
X204448Y161283D01*
X204179Y161394D01*
X204050Y161468D01*
X203921Y161542D01*
X204318Y162522D01*
X204327Y162513D01*
X204346Y162504D01*
X204383Y162485D01*
X204429Y162448D01*
X204485Y162421D01*
X204559Y162383D01*
X204716Y162300D01*
X204910Y162217D01*
X205123Y162143D01*
X205354Y162088D01*
X205465Y162078D01*
X205585Y162069D01*
X205631D01*
X205677Y162078D01*
X205733D01*
X205807Y162088D01*
X205890Y162106D01*
X206066Y162152D01*
X206158Y162189D01*
X206241Y162236D01*
X206325Y162282D01*
X206398Y162347D01*
X206454Y162430D01*
X206509Y162513D01*
X206537Y162615D01*
X206546Y162735D01*
Y162753D01*
Y162790D01*
X206537Y162846D01*
X206519Y162929D01*
X206491Y163022D01*
X206445Y163123D01*
X206389Y163225D01*
X206315Y163336D01*
X206306Y163345D01*
X206269Y163382D01*
X206204Y163447D01*
X206112Y163521D01*
X205992Y163622D01*
X205918Y163669D01*
X205825Y163724D01*
X205733Y163789D01*
X205622Y163844D01*
X205511Y163909D01*
X205381Y163974D01*
X205372D01*
X205354Y163992D01*
X205317Y164011D01*
X205271Y164029D01*
X205215Y164066D01*
X205150Y164094D01*
X205002Y164177D01*
X204836Y164270D01*
X204688Y164371D01*
X204540Y164464D01*
X204485Y164510D01*
X204429Y164556D01*
X204420Y164566D01*
X204392Y164593D01*
X204346Y164649D01*
X204290Y164713D01*
X204235Y164787D01*
X204170Y164880D01*
X204115Y164991D01*
X204059Y165102D01*
X204050Y165120D01*
X204041Y165157D01*
X204022Y165222D01*
X203995Y165305D01*
X203967Y165407D01*
X203948Y165527D01*
X203939Y165657D01*
X203930Y165795D01*
Y165804D01*
Y165823D01*
Y165860D01*
X203939Y165915D01*
X203948Y165971D01*
X203958Y166045D01*
X203995Y166211D01*
X204059Y166396D01*
X204152Y166600D01*
X204207Y166692D01*
X204281Y166794D01*
X204355Y166886D01*
X204448Y166979D01*
X204457Y166988D01*
X204475Y166997D01*
X204503Y167025D01*
X204540Y167053D01*
X204596Y167090D01*
X204660Y167127D01*
X204734Y167173D01*
X204817Y167219D01*
X204910Y167256D01*
X205002Y167302D01*
X205233Y167376D01*
X205502Y167432D01*
X205640Y167441D01*
X205788Y167450D01*
X205890D01*
X205964Y167441D01*
D02*
G37*
G36*
X201572D02*
X201656D01*
X201757Y167432D01*
X201868Y167413D01*
X201988Y167404D01*
X202247Y167348D01*
X202506Y167274D01*
X202756Y167182D01*
X202867Y167117D01*
X202968Y167043D01*
X202635Y166110D01*
X202626Y166119D01*
X202608Y166128D01*
X202580Y166147D01*
X202534Y166174D01*
X202478Y166202D01*
X202414Y166239D01*
X202266Y166322D01*
X202081Y166396D01*
X201877Y166461D01*
X201656Y166507D01*
X201535Y166526D01*
X201350D01*
X201286Y166516D01*
X201202Y166498D01*
X201110Y166479D01*
X201008Y166442D01*
X200916Y166387D01*
X200833Y166322D01*
X200823Y166313D01*
X200805Y166285D01*
X200768Y166239D01*
X200731Y166183D01*
X200694Y166110D01*
X200657Y166017D01*
X200638Y165915D01*
X200629Y165804D01*
Y165795D01*
Y165777D01*
X200638Y165749D01*
X200648Y165712D01*
X200666Y165666D01*
X200694Y165610D01*
X200731Y165546D01*
X200777Y165472D01*
X200833Y165388D01*
X200916Y165305D01*
X201008Y165213D01*
X201119Y165120D01*
X201258Y165019D01*
X201406Y164917D01*
X201591Y164815D01*
X201794Y164704D01*
X201803D01*
X201822Y164695D01*
X201850Y164676D01*
X201896Y164649D01*
X202007Y164593D01*
X202136Y164519D01*
X202284Y164436D01*
X202432Y164344D01*
X202571Y164242D01*
X202682Y164149D01*
X202691Y164140D01*
X202728Y164103D01*
X202774Y164057D01*
X202839Y163983D01*
X202904Y163900D01*
X202978Y163798D01*
X203042Y163678D01*
X203098Y163558D01*
X203107Y163539D01*
X203125Y163502D01*
X203144Y163428D01*
X203172Y163336D01*
X203200Y163225D01*
X203227Y163105D01*
X203236Y162957D01*
X203246Y162809D01*
Y162800D01*
Y162772D01*
Y162735D01*
X203236Y162689D01*
X203227Y162624D01*
X203218Y162550D01*
X203172Y162374D01*
X203098Y162180D01*
X203051Y162078D01*
X202996Y161977D01*
X202931Y161875D01*
X202848Y161773D01*
X202756Y161672D01*
X202654Y161579D01*
X202645Y161570D01*
X202626Y161561D01*
X202589Y161533D01*
X202543Y161505D01*
X202488Y161468D01*
X202414Y161431D01*
X202330Y161385D01*
X202238Y161339D01*
X202127Y161293D01*
X202007Y161246D01*
X201877Y161209D01*
X201739Y161172D01*
X201591Y161145D01*
X201424Y161117D01*
X201258Y161108D01*
X201073Y161098D01*
X200990D01*
X200925Y161108D01*
X200851D01*
X200768Y161126D01*
X200666Y161135D01*
X200555Y161154D01*
X200315Y161209D01*
X200056Y161283D01*
X199788Y161394D01*
X199658Y161468D01*
X199529Y161542D01*
X199926Y162522D01*
X199936Y162513D01*
X199954Y162504D01*
X199991Y162485D01*
X200037Y162448D01*
X200093Y162421D01*
X200167Y162383D01*
X200324Y162300D01*
X200518Y162217D01*
X200731Y162143D01*
X200962Y162088D01*
X201073Y162078D01*
X201193Y162069D01*
X201239D01*
X201286Y162078D01*
X201341D01*
X201415Y162088D01*
X201498Y162106D01*
X201674Y162152D01*
X201766Y162189D01*
X201850Y162236D01*
X201933Y162282D01*
X202007Y162347D01*
X202062Y162430D01*
X202118Y162513D01*
X202146Y162615D01*
X202155Y162735D01*
Y162753D01*
Y162790D01*
X202146Y162846D01*
X202127Y162929D01*
X202099Y163022D01*
X202053Y163123D01*
X201998Y163225D01*
X201924Y163336D01*
X201914Y163345D01*
X201877Y163382D01*
X201813Y163447D01*
X201720Y163521D01*
X201600Y163622D01*
X201526Y163669D01*
X201434Y163724D01*
X201341Y163789D01*
X201230Y163844D01*
X201119Y163909D01*
X200990Y163974D01*
X200980D01*
X200962Y163992D01*
X200925Y164011D01*
X200879Y164029D01*
X200823Y164066D01*
X200759Y164094D01*
X200611Y164177D01*
X200444Y164270D01*
X200296Y164371D01*
X200148Y164464D01*
X200093Y164510D01*
X200037Y164556D01*
X200028Y164566D01*
X200000Y164593D01*
X199954Y164649D01*
X199899Y164713D01*
X199843Y164787D01*
X199779Y164880D01*
X199723Y164991D01*
X199668Y165102D01*
X199658Y165120D01*
X199649Y165157D01*
X199631Y165222D01*
X199603Y165305D01*
X199575Y165407D01*
X199557Y165527D01*
X199548Y165657D01*
X199538Y165795D01*
Y165804D01*
Y165823D01*
Y165860D01*
X199548Y165915D01*
X199557Y165971D01*
X199566Y166045D01*
X199603Y166211D01*
X199668Y166396D01*
X199760Y166600D01*
X199816Y166692D01*
X199890Y166794D01*
X199963Y166886D01*
X200056Y166979D01*
X200065Y166988D01*
X200084Y166997D01*
X200111Y167025D01*
X200148Y167053D01*
X200204Y167090D01*
X200269Y167127D01*
X200343Y167173D01*
X200426Y167219D01*
X200518Y167256D01*
X200611Y167302D01*
X200842Y167376D01*
X201110Y167432D01*
X201249Y167441D01*
X201397Y167450D01*
X201498D01*
X201572Y167441D01*
D02*
G37*
G36*
X174769D02*
X174853D01*
X174954Y167432D01*
X175065Y167413D01*
X175185Y167404D01*
X175444Y167348D01*
X175703Y167274D01*
X175953Y167182D01*
X176064Y167117D01*
X176165Y167043D01*
X175833Y166110D01*
X175823Y166119D01*
X175805Y166128D01*
X175777Y166147D01*
X175731Y166174D01*
X175675Y166202D01*
X175611Y166239D01*
X175463Y166322D01*
X175278Y166396D01*
X175074Y166461D01*
X174853Y166507D01*
X174732Y166526D01*
X174547D01*
X174483Y166516D01*
X174399Y166498D01*
X174307Y166479D01*
X174205Y166442D01*
X174113Y166387D01*
X174030Y166322D01*
X174020Y166313D01*
X174002Y166285D01*
X173965Y166239D01*
X173928Y166183D01*
X173891Y166110D01*
X173854Y166017D01*
X173835Y165915D01*
X173826Y165804D01*
Y165795D01*
Y165777D01*
X173835Y165749D01*
X173845Y165712D01*
X173863Y165666D01*
X173891Y165610D01*
X173928Y165546D01*
X173974Y165472D01*
X174030Y165388D01*
X174113Y165305D01*
X174205Y165213D01*
X174316Y165120D01*
X174455Y165019D01*
X174603Y164917D01*
X174788Y164815D01*
X174991Y164704D01*
X175000D01*
X175019Y164695D01*
X175047Y164676D01*
X175093Y164649D01*
X175204Y164593D01*
X175333Y164519D01*
X175481Y164436D01*
X175629Y164344D01*
X175768Y164242D01*
X175879Y164149D01*
X175888Y164140D01*
X175925Y164103D01*
X175971Y164057D01*
X176036Y163983D01*
X176101Y163900D01*
X176175Y163798D01*
X176239Y163678D01*
X176295Y163558D01*
X176304Y163539D01*
X176322Y163502D01*
X176341Y163428D01*
X176369Y163336D01*
X176397Y163225D01*
X176424Y163105D01*
X176434Y162957D01*
X176443Y162809D01*
Y162800D01*
Y162772D01*
Y162735D01*
X176434Y162689D01*
X176424Y162624D01*
X176415Y162550D01*
X176369Y162374D01*
X176295Y162180D01*
X176248Y162078D01*
X176193Y161977D01*
X176128Y161875D01*
X176045Y161773D01*
X175953Y161672D01*
X175851Y161579D01*
X175842Y161570D01*
X175823Y161561D01*
X175786Y161533D01*
X175740Y161505D01*
X175685Y161468D01*
X175611Y161431D01*
X175527Y161385D01*
X175435Y161339D01*
X175324Y161293D01*
X175204Y161246D01*
X175074Y161209D01*
X174936Y161172D01*
X174788Y161145D01*
X174621Y161117D01*
X174455Y161108D01*
X174270Y161098D01*
X174187D01*
X174122Y161108D01*
X174048D01*
X173965Y161126D01*
X173863Y161135D01*
X173752Y161154D01*
X173512Y161209D01*
X173253Y161283D01*
X172985Y161394D01*
X172855Y161468D01*
X172726Y161542D01*
X173123Y162522D01*
X173133Y162513D01*
X173151Y162504D01*
X173188Y162485D01*
X173235Y162448D01*
X173290Y162421D01*
X173364Y162383D01*
X173521Y162300D01*
X173715Y162217D01*
X173928Y162143D01*
X174159Y162088D01*
X174270Y162078D01*
X174390Y162069D01*
X174436D01*
X174483Y162078D01*
X174538D01*
X174612Y162088D01*
X174695Y162106D01*
X174871Y162152D01*
X174963Y162189D01*
X175047Y162236D01*
X175130Y162282D01*
X175204Y162347D01*
X175259Y162430D01*
X175315Y162513D01*
X175343Y162615D01*
X175352Y162735D01*
Y162753D01*
Y162790D01*
X175343Y162846D01*
X175324Y162929D01*
X175296Y163022D01*
X175250Y163123D01*
X175194Y163225D01*
X175121Y163336D01*
X175111Y163345D01*
X175074Y163382D01*
X175010Y163447D01*
X174917Y163521D01*
X174797Y163622D01*
X174723Y163669D01*
X174631Y163724D01*
X174538Y163789D01*
X174427Y163844D01*
X174316Y163909D01*
X174187Y163974D01*
X174177D01*
X174159Y163992D01*
X174122Y164011D01*
X174076Y164029D01*
X174020Y164066D01*
X173956Y164094D01*
X173808Y164177D01*
X173641Y164270D01*
X173493Y164371D01*
X173345Y164464D01*
X173290Y164510D01*
X173235Y164556D01*
X173225Y164566D01*
X173197Y164593D01*
X173151Y164649D01*
X173096Y164713D01*
X173040Y164787D01*
X172976Y164880D01*
X172920Y164991D01*
X172865Y165102D01*
X172855Y165120D01*
X172846Y165157D01*
X172828Y165222D01*
X172800Y165305D01*
X172772Y165407D01*
X172754Y165527D01*
X172745Y165657D01*
X172735Y165795D01*
Y165804D01*
Y165823D01*
Y165860D01*
X172745Y165915D01*
X172754Y165971D01*
X172763Y166045D01*
X172800Y166211D01*
X172865Y166396D01*
X172957Y166600D01*
X173013Y166692D01*
X173086Y166794D01*
X173160Y166886D01*
X173253Y166979D01*
X173262Y166988D01*
X173281Y166997D01*
X173308Y167025D01*
X173345Y167053D01*
X173401Y167090D01*
X173466Y167127D01*
X173540Y167173D01*
X173623Y167219D01*
X173715Y167256D01*
X173808Y167302D01*
X174039Y167376D01*
X174307Y167432D01*
X174446Y167441D01*
X174594Y167450D01*
X174695D01*
X174769Y167441D01*
D02*
G37*
G36*
X232332Y163715D02*
Y161200D01*
X231241D01*
Y163715D01*
X229170Y167348D01*
X230326D01*
X231778Y164723D01*
X233238Y167348D01*
X234394D01*
X232332Y163715D01*
D02*
G37*
G36*
X184477Y161117D02*
X184033D01*
X181047Y165009D01*
Y161200D01*
X179993D01*
Y167348D01*
X180520D01*
X183423Y163641D01*
Y167348D01*
X184477D01*
Y161117D01*
D02*
G37*
G36*
X219222Y161200D02*
X218168D01*
X217521Y164510D01*
X216291Y161117D01*
X215903D01*
X214664Y164510D01*
X213998Y161200D01*
X212944D01*
X214183Y167348D01*
X214766D01*
X216097Y163206D01*
X217391Y167348D01*
X217965D01*
X219222Y161200D01*
D02*
G37*
G36*
X164738Y167450D02*
X164821D01*
X164904Y167441D01*
X165006Y167422D01*
X165117Y167404D01*
X165339Y167358D01*
X165579Y167284D01*
X165810Y167173D01*
X165921Y167108D01*
X166023Y167034D01*
X166032D01*
X166041Y167016D01*
X166069Y166988D01*
X166106Y166960D01*
X166143Y166914D01*
X166189Y166858D01*
X166282Y166729D01*
X166374Y166563D01*
X166458Y166359D01*
X166522Y166128D01*
X166531Y165999D01*
X166541Y165860D01*
Y165851D01*
Y165823D01*
X166531Y165777D01*
Y165712D01*
X166513Y165638D01*
X166504Y165555D01*
X166476Y165453D01*
X166448Y165351D01*
X166402Y165240D01*
X166356Y165130D01*
X166291Y165019D01*
X166217Y164908D01*
X166125Y164797D01*
X166023Y164686D01*
X165903Y164584D01*
X165764Y164492D01*
X165773Y164482D01*
X165810Y164473D01*
X165856Y164445D01*
X165921Y164399D01*
X165995Y164353D01*
X166078Y164288D01*
X166162Y164214D01*
X166254Y164122D01*
X166346Y164020D01*
X166430Y163909D01*
X166513Y163780D01*
X166587Y163641D01*
X166652Y163493D01*
X166698Y163327D01*
X166735Y163151D01*
X166744Y162957D01*
Y162948D01*
Y162920D01*
Y162874D01*
X166735Y162809D01*
X166726Y162735D01*
X166716Y162652D01*
X166698Y162559D01*
X166670Y162458D01*
X166605Y162236D01*
X166559Y162125D01*
X166494Y162014D01*
X166430Y161903D01*
X166356Y161792D01*
X166263Y161690D01*
X166162Y161598D01*
X166152Y161588D01*
X166134Y161579D01*
X166097Y161551D01*
X166051Y161524D01*
X165995Y161487D01*
X165921Y161450D01*
X165838Y161404D01*
X165746Y161357D01*
X165635Y161311D01*
X165514Y161265D01*
X165385Y161228D01*
X165237Y161191D01*
X165080Y161163D01*
X164913Y161135D01*
X164738Y161126D01*
X164553Y161117D01*
X164460D01*
X164396Y161126D01*
X164322Y161135D01*
X164229Y161145D01*
X164118Y161163D01*
X164007Y161191D01*
X163758Y161265D01*
X163628Y161311D01*
X163499Y161367D01*
X163360Y161441D01*
X163231Y161524D01*
X163101Y161616D01*
X162972Y161718D01*
X163517Y162559D01*
X163527Y162550D01*
X163536Y162541D01*
X163564Y162513D01*
X163601Y162476D01*
X163702Y162393D01*
X163832Y162300D01*
X163980Y162208D01*
X164165Y162125D01*
X164359Y162060D01*
X164460Y162051D01*
X164562Y162041D01*
X164608D01*
X164655Y162051D01*
X164729Y162060D01*
X164802Y162069D01*
X164895Y162097D01*
X164987Y162125D01*
X165089Y162162D01*
X165182Y162217D01*
X165274Y162282D01*
X165366Y162356D01*
X165440Y162458D01*
X165514Y162568D01*
X165561Y162698D01*
X165598Y162846D01*
X165607Y163022D01*
Y163031D01*
Y163040D01*
Y163095D01*
X165588Y163179D01*
X165570Y163280D01*
X165533Y163391D01*
X165477Y163512D01*
X165403Y163632D01*
X165302Y163743D01*
X165292Y163752D01*
X165246Y163789D01*
X165182Y163835D01*
X165089Y163891D01*
X164969Y163937D01*
X164830Y163983D01*
X164673Y164020D01*
X164488Y164029D01*
X164303D01*
Y164926D01*
X164497D01*
X164544Y164935D01*
X164608D01*
X164682Y164954D01*
X164756Y164963D01*
X164932Y165028D01*
X165024Y165065D01*
X165108Y165120D01*
X165182Y165176D01*
X165256Y165250D01*
X165320Y165342D01*
X165366Y165444D01*
X165394Y165564D01*
X165403Y165703D01*
Y165712D01*
Y165740D01*
X165394Y165777D01*
Y165832D01*
X165376Y165897D01*
X165357Y165971D01*
X165329Y166045D01*
X165292Y166119D01*
X165246Y166193D01*
X165191Y166276D01*
X165117Y166341D01*
X165034Y166405D01*
X164932Y166461D01*
X164812Y166498D01*
X164682Y166526D01*
X164525Y166535D01*
X164507D01*
X164451Y166526D01*
X164359Y166516D01*
X164248Y166479D01*
X164109Y166433D01*
X163961Y166359D01*
X163804Y166248D01*
X163730Y166183D01*
X163647Y166110D01*
X163138Y166858D01*
X163148Y166868D01*
X163175Y166895D01*
X163221Y166942D01*
X163286Y166997D01*
X163369Y167062D01*
X163480Y167136D01*
X163601Y167210D01*
X163748Y167274D01*
X163758D01*
X163767Y167284D01*
X163822Y167302D01*
X163906Y167330D01*
X164017Y167367D01*
X164137Y167404D01*
X164285Y167432D01*
X164433Y167450D01*
X164590Y167459D01*
X164682D01*
X164738Y167450D01*
D02*
G37*
G36*
X226110Y162171D02*
X228893D01*
Y161200D01*
X225019D01*
Y167348D01*
X226110D01*
Y162171D01*
D02*
G37*
G36*
X221792Y167395D02*
X221876D01*
X221968Y167385D01*
X222070Y167367D01*
X222181Y167348D01*
X222421Y167302D01*
X222671Y167228D01*
X222911Y167127D01*
X223031Y167062D01*
X223133Y166988D01*
X223142D01*
X223161Y166969D01*
X223179Y166942D01*
X223216Y166914D01*
X223309Y166821D01*
X223410Y166692D01*
X223503Y166526D01*
X223595Y166322D01*
X223632Y166211D01*
X223651Y166091D01*
X223669Y165962D01*
X223678Y165823D01*
Y165814D01*
Y165795D01*
X223669Y165749D01*
Y165703D01*
X223651Y165638D01*
X223641Y165573D01*
X223586Y165407D01*
X223540Y165314D01*
X223494Y165222D01*
X223429Y165120D01*
X223355Y165028D01*
X223262Y164935D01*
X223161Y164843D01*
X223041Y164750D01*
X222902Y164667D01*
X222911D01*
X222948Y164649D01*
X223004Y164621D01*
X223078Y164584D01*
X223170Y164538D01*
X223262Y164473D01*
X223364Y164399D01*
X223475Y164316D01*
X223586Y164205D01*
X223688Y164094D01*
X223780Y163955D01*
X223873Y163807D01*
X223947Y163641D01*
X224002Y163447D01*
X224039Y163243D01*
X224048Y163022D01*
Y163012D01*
Y162985D01*
Y162938D01*
X224039Y162883D01*
X224030Y162809D01*
X224011Y162726D01*
X223965Y162541D01*
X223937Y162439D01*
X223891Y162328D01*
X223845Y162217D01*
X223780Y162106D01*
X223706Y161995D01*
X223623Y161884D01*
X223521Y161783D01*
X223410Y161690D01*
X223401Y161681D01*
X223383Y161672D01*
X223346Y161644D01*
X223299Y161616D01*
X223235Y161579D01*
X223161Y161533D01*
X223068Y161487D01*
X222967Y161450D01*
X222856Y161404D01*
X222726Y161357D01*
X222597Y161311D01*
X222449Y161274D01*
X222292Y161246D01*
X222134Y161219D01*
X221959Y161209D01*
X221774Y161200D01*
X219897D01*
Y167339D01*
X219953D01*
X220017Y167348D01*
X220100D01*
X220202Y167358D01*
X220313D01*
X220443Y167367D01*
X220581Y167376D01*
X220868Y167385D01*
X221154Y167395D01*
X221293D01*
X221413Y167404D01*
X221728D01*
X221792Y167395D01*
D02*
G37*
G36*
X212482Y166378D02*
X209690D01*
Y164935D01*
X211678D01*
Y164011D01*
X209690D01*
Y162171D01*
X212482D01*
Y161200D01*
X208599D01*
Y167348D01*
X212482D01*
Y166378D01*
D02*
G37*
G36*
X199159Y161200D02*
X197957D01*
X197504Y162448D01*
X195387D01*
X194962Y161200D01*
X193750D01*
X196210Y167432D01*
X196691D01*
X199159Y161200D01*
D02*
G37*
G36*
X171727D02*
X170637D01*
Y167348D01*
X171727D01*
Y161200D01*
D02*
G37*
G36*
X160799D02*
X159708D01*
Y165629D01*
X158460Y164880D01*
Y165934D01*
X158478Y165943D01*
X158516Y165962D01*
X158580Y165989D01*
X158663Y166036D01*
X158765Y166091D01*
X158876Y166165D01*
X159005Y166239D01*
X159153Y166331D01*
X159301Y166433D01*
X159449Y166544D01*
X159773Y166784D01*
X160078Y167071D01*
X160226Y167219D01*
X160365Y167376D01*
X160799D01*
Y161200D01*
D02*
G37*
G36*
X154558Y167404D02*
X154614D01*
X154771Y167385D01*
X154947Y167358D01*
X155141Y167321D01*
X155353Y167265D01*
X155575Y167191D01*
X155797Y167090D01*
X156010Y166969D01*
X156204Y166821D01*
X156380Y166646D01*
X156537Y166442D01*
X156592Y166322D01*
X156648Y166202D01*
X156694Y166063D01*
X156722Y165925D01*
X156740Y165767D01*
X156750Y165601D01*
Y165592D01*
Y165573D01*
Y165546D01*
X156740Y165509D01*
X156731Y165407D01*
X156713Y165268D01*
X156666Y165120D01*
X156611Y164954D01*
X156537Y164778D01*
X156426Y164603D01*
Y164593D01*
X156407Y164584D01*
X156370Y164529D01*
X156297Y164445D01*
X156204Y164353D01*
X156084Y164251D01*
X155945Y164140D01*
X155788Y164048D01*
X155612Y163965D01*
X157434Y161200D01*
X156176D01*
X154521Y163743D01*
X154346D01*
X154253Y163752D01*
X154133D01*
X153994Y163761D01*
X153837Y163770D01*
Y161200D01*
X152700D01*
Y167348D01*
X152820D01*
X152913Y167358D01*
X153033D01*
X153116Y167367D01*
X153199D01*
X153292Y167376D01*
X153458D01*
X153504Y167385D01*
X153615D01*
X153763Y167395D01*
X153920Y167404D01*
X154087D01*
X154253Y167413D01*
X154503D01*
X154558Y167404D01*
D02*
G37*
G36*
X188212Y167450D02*
X188305D01*
X188416Y167432D01*
X188545Y167413D01*
X188684Y167395D01*
X188841Y167358D01*
X188998Y167311D01*
X189165Y167256D01*
X189331Y167191D01*
X189507Y167108D01*
X189673Y167016D01*
X189830Y166905D01*
X189978Y166784D01*
X190117Y166637D01*
X190126Y166627D01*
X190145Y166600D01*
X190182Y166553D01*
X190228Y166489D01*
X190283Y166396D01*
X190339Y166294D01*
X190404Y166174D01*
X190468Y166036D01*
X190533Y165888D01*
X190598Y165712D01*
X190653Y165518D01*
X190709Y165314D01*
X190755Y165093D01*
X190792Y164852D01*
X190810Y164593D01*
X190820Y164325D01*
Y164307D01*
Y164260D01*
Y164186D01*
X190810Y164076D01*
X190801Y163955D01*
X190783Y163807D01*
X190755Y163650D01*
X190727Y163475D01*
X190690Y163290D01*
X190644Y163095D01*
X190579Y162901D01*
X190505Y162707D01*
X190422Y162504D01*
X190320Y162319D01*
X190209Y162134D01*
X190080Y161968D01*
X190071Y161958D01*
X190043Y161931D01*
X190006Y161884D01*
X189941Y161829D01*
X189867Y161764D01*
X189775Y161690D01*
X189673Y161616D01*
X189544Y161533D01*
X189405Y161450D01*
X189248Y161376D01*
X189081Y161302D01*
X188897Y161237D01*
X188693Y161182D01*
X188480Y161135D01*
X188249Y161108D01*
X188000Y161098D01*
X187944D01*
X187880Y161108D01*
X187796D01*
X187695Y161126D01*
X187574Y161145D01*
X187436Y161172D01*
X187297Y161209D01*
X187149Y161256D01*
X186992Y161311D01*
X186835Y161376D01*
X186678Y161459D01*
X186520Y161561D01*
X186373Y161672D01*
X186224Y161810D01*
X186095Y161958D01*
X186086Y161968D01*
X186067Y161995D01*
X186030Y162051D01*
X185993Y162115D01*
X185947Y162208D01*
X185892Y162310D01*
X185827Y162439D01*
X185772Y162578D01*
X185707Y162735D01*
X185642Y162910D01*
X185587Y163105D01*
X185540Y163317D01*
X185503Y163549D01*
X185466Y163789D01*
X185448Y164048D01*
X185439Y164325D01*
Y164344D01*
Y164381D01*
X185448Y164455D01*
Y164547D01*
X185457Y164658D01*
X185476Y164787D01*
X185494Y164935D01*
X185531Y165093D01*
X185568Y165268D01*
X185614Y165444D01*
X185670Y165629D01*
X185744Y165814D01*
X185818Y165999D01*
X185919Y166193D01*
X186021Y166368D01*
X186151Y166544D01*
X186160Y166553D01*
X186188Y166581D01*
X186224Y166627D01*
X186280Y166692D01*
X186354Y166757D01*
X186446Y166831D01*
X186548Y166914D01*
X186659Y167006D01*
X186798Y167090D01*
X186936Y167173D01*
X187103Y167247D01*
X187269Y167321D01*
X187454Y167376D01*
X187648Y167422D01*
X187861Y167450D01*
X188083Y167459D01*
X188138D01*
X188212Y167450D01*
D02*
G37*
%LPC*%
G36*
X221607Y166489D02*
X221441D01*
X221349Y166479D01*
X221238D01*
X221117Y166470D01*
X220988Y166461D01*
Y164991D01*
X221145D01*
X221228Y164982D01*
X221561D01*
X221617Y164991D01*
X221681D01*
X221765Y165009D01*
X221857Y165028D01*
X221950Y165046D01*
X222051Y165083D01*
X222153Y165120D01*
X222245Y165176D01*
X222338Y165240D01*
X222421Y165314D01*
X222486Y165407D01*
X222541Y165518D01*
X222578Y165638D01*
X222588Y165777D01*
Y165786D01*
Y165804D01*
X222578Y165841D01*
X222569Y165888D01*
X222532Y165999D01*
X222504Y166063D01*
X222467Y166137D01*
X222412Y166202D01*
X222347Y166267D01*
X222273Y166322D01*
X222171Y166378D01*
X222061Y166424D01*
X221931Y166461D01*
X221783Y166479D01*
X221607Y166489D01*
D02*
G37*
G36*
X221672Y164159D02*
X221330D01*
X221238Y164149D01*
X221127D01*
X220988Y164140D01*
Y162115D01*
X221043D01*
X221099Y162106D01*
X221173D01*
X221265Y162097D01*
X221349D01*
X221441Y162088D01*
X221644D01*
X221700Y162097D01*
X221774D01*
X221931Y162115D01*
X222097Y162143D01*
X222273Y162189D01*
X222440Y162245D01*
X222578Y162328D01*
X222597Y162337D01*
X222634Y162374D01*
X222680Y162439D01*
X222745Y162522D01*
X222809Y162642D01*
X222856Y162781D01*
X222893Y162948D01*
X222911Y163151D01*
Y163160D01*
Y163179D01*
Y163197D01*
Y163234D01*
X222893Y163327D01*
X222874Y163447D01*
X222837Y163567D01*
X222782Y163696D01*
X222698Y163817D01*
X222597Y163918D01*
X222578Y163928D01*
X222541Y163955D01*
X222458Y163992D01*
X222347Y164039D01*
X222282Y164057D01*
X222199Y164085D01*
X222116Y164103D01*
X222024Y164122D01*
X221913Y164140D01*
X221802Y164149D01*
X221672Y164159D01*
D02*
G37*
G36*
X196450Y165555D02*
X195701Y163280D01*
X197181D01*
X196450Y165555D01*
D02*
G37*
G36*
X154198Y166424D02*
X154087D01*
X153976Y166415D01*
X153837Y166396D01*
Y164686D01*
X153883D01*
X153939Y164676D01*
X154004D01*
X154152Y164667D01*
X154401D01*
X154457Y164676D01*
X154521D01*
X154669Y164695D01*
X154836Y164713D01*
X155002Y164741D01*
X155159Y164787D01*
X155289Y164852D01*
X155307Y164861D01*
X155344Y164889D01*
X155391Y164945D01*
X155455Y165019D01*
X155511Y165120D01*
X155566Y165250D01*
X155603Y165416D01*
X155612Y165610D01*
Y165620D01*
Y165629D01*
X155603Y165684D01*
X155594Y165767D01*
X155566Y165860D01*
X155529Y165962D01*
X155464Y166063D01*
X155381Y166165D01*
X155270Y166239D01*
X155252Y166248D01*
X155206Y166267D01*
X155122Y166294D01*
X155011Y166331D01*
X154854Y166368D01*
X154669Y166396D01*
X154457Y166415D01*
X154198Y166424D01*
D02*
G37*
G36*
X188083Y166489D02*
X188009D01*
X187963Y166479D01*
X187898Y166470D01*
X187833Y166461D01*
X187667Y166415D01*
X187491Y166341D01*
X187399Y166294D01*
X187306Y166239D01*
X187214Y166174D01*
X187121Y166091D01*
X187038Y165999D01*
X186964Y165897D01*
Y165888D01*
X186946Y165869D01*
X186927Y165841D01*
X186900Y165795D01*
X186872Y165730D01*
X186844Y165657D01*
X186807Y165573D01*
X186770Y165481D01*
X186733Y165379D01*
X186696Y165259D01*
X186668Y165130D01*
X186641Y164991D01*
X186613Y164834D01*
X186594Y164676D01*
X186585Y164510D01*
X186576Y164325D01*
Y164316D01*
Y164279D01*
Y164223D01*
X186585Y164149D01*
Y164057D01*
X186594Y163955D01*
X186604Y163835D01*
X186622Y163715D01*
X186668Y163438D01*
X186724Y163160D01*
X186816Y162892D01*
X186872Y162772D01*
X186936Y162652D01*
Y162642D01*
X186955Y162624D01*
X186973Y162596D01*
X187001Y162559D01*
X187094Y162467D01*
X187205Y162365D01*
X187362Y162254D01*
X187537Y162162D01*
X187648Y162125D01*
X187759Y162097D01*
X187870Y162078D01*
X188000Y162069D01*
X188074D01*
X188138Y162078D01*
X188203Y162088D01*
X188277Y162097D01*
X188462Y162143D01*
X188665Y162208D01*
X188767Y162254D01*
X188869Y162310D01*
X188971Y162374D01*
X189072Y162458D01*
X189165Y162541D01*
X189248Y162642D01*
X189257Y162652D01*
X189266Y162670D01*
X189285Y162707D01*
X189313Y162753D01*
X189350Y162809D01*
X189387Y162883D01*
X189424Y162975D01*
X189470Y163068D01*
X189507Y163188D01*
X189544Y163308D01*
X189581Y163447D01*
X189618Y163595D01*
X189645Y163761D01*
X189664Y163937D01*
X189682Y164122D01*
Y164325D01*
Y164334D01*
Y164353D01*
Y164381D01*
Y164418D01*
X189673Y164464D01*
Y164529D01*
X189655Y164667D01*
X189636Y164824D01*
X189599Y165009D01*
X189553Y165203D01*
X189479Y165407D01*
X189396Y165610D01*
X189294Y165804D01*
X189165Y165989D01*
X189007Y166147D01*
X188823Y166285D01*
X188721Y166350D01*
X188610Y166396D01*
X188490Y166433D01*
X188360Y166461D01*
X188231Y166479D01*
X188083Y166489D01*
D02*
G37*
%LPD*%
D10*
X114450Y-19550D02*
Y-11050D01*
Y70450D01*
Y-19550D02*
X213450D01*
X114450Y70450D02*
X139950D01*
X213450Y-19550D02*
Y-11550D01*
Y70450D01*
X187950D02*
X213450D01*
D12*
X33450Y950D02*
Y39450D01*
Y950D02*
X91450D01*
X33450Y39450D02*
X91450D01*
Y950D02*
Y3450D01*
Y39450D01*
X170200Y115200D02*
Y153700D01*
Y115200D02*
X228200D01*
X170200Y153700D02*
X228200D01*
Y115200D02*
Y117700D01*
Y153700D01*
D13*
X64051Y131801D02*
X64150Y81700D01*
X114150D01*
X64051Y131801D02*
X114251D01*
X114150Y81700D02*
X114251Y131801D01*
X178700Y73450D02*
Y85950D01*
Y73450D02*
X204950D01*
X181200D02*
Y85950D01*
X178700D02*
X204950D01*
X180200Y73450D02*
Y85950D01*
X182700Y73450D02*
Y85950D01*
X204950Y73450D02*
Y85950D01*
X184200Y73450D02*
Y85950D01*
X178650Y83700D02*
Y96200D01*
Y83700D02*
X204900D01*
X181150D02*
Y96200D01*
X178650D02*
X204900D01*
X180150Y83700D02*
Y96200D01*
X182650Y83700D02*
Y96200D01*
X204900Y83700D02*
Y96200D01*
X184150Y83700D02*
Y96200D01*
X178650Y93700D02*
Y106200D01*
Y93700D02*
X204900D01*
X181150D02*
Y106200D01*
X178650D02*
X204900D01*
X180150Y93700D02*
Y106200D01*
X182650Y93700D02*
Y106200D01*
X204900Y93700D02*
Y106200D01*
X184150Y93700D02*
Y106200D01*
X21625Y35975D02*
Y62225D01*
Y35975D02*
X34125D01*
X21625Y37475D02*
X34125D01*
X21625Y62225D02*
X34125D01*
X21625Y38475D02*
X34125D01*
X21625Y41475D02*
X34125D01*
Y35975D02*
Y62225D01*
X21625Y39975D02*
X34125D01*
X134110Y106446D02*
Y127446D01*
Y106446D02*
X154110D01*
X134110Y127446D02*
X154110D01*
Y106446D02*
Y127446D01*
X55449Y39951D02*
X83449D01*
Y68951D01*
X55449D02*
X83449D01*
X55449Y39951D02*
Y68951D01*
X141699Y31448D02*
X139699D01*
X140699D01*
Y26450D01*
X139699Y25450D01*
X138700D01*
X137700Y26450D01*
X143698Y25450D02*
Y31448D01*
X146697D01*
X147697Y30449D01*
Y28449D01*
X146697Y27449D01*
X143698D01*
X153695Y25450D02*
X149696D01*
X153695Y29449D01*
Y30449D01*
X152695Y31448D01*
X150696D01*
X149696Y30449D01*
X35200Y113448D02*
Y112449D01*
X37199Y110449D01*
X39199Y112449D01*
Y113448D01*
X37199Y110449D02*
Y107450D01*
X41198D02*
X43197D01*
X42198D01*
Y113448D01*
X41198Y112449D01*
X150950Y84700D02*
X144952D01*
Y87699D01*
X145952Y88699D01*
X147951D01*
X148951Y87699D01*
Y84700D01*
Y86699D02*
X150950Y88699D01*
X145952Y90698D02*
X144952Y91698D01*
Y93697D01*
X145952Y94697D01*
X146951D01*
X147951Y93697D01*
X148951Y94697D01*
X149950D01*
X150950Y93697D01*
Y91698D01*
X149950Y90698D01*
X148951D01*
X147951Y91698D01*
X146951Y90698D01*
X145952D01*
X147951Y91698D02*
Y93697D01*
X162080Y131871D02*
X161080Y130871D01*
Y128872D01*
X162080Y127872D01*
X163079D01*
X164079Y128872D01*
Y130871D01*
X165079Y131871D01*
X166078D01*
X167078Y130871D01*
Y128872D01*
X166078Y127872D01*
X161080Y133870D02*
X167078D01*
X165079Y135870D01*
X167078Y137869D01*
X161080D01*
X167078Y142867D02*
X161080D01*
X164079Y139868D01*
Y143867D01*
X26950Y62950D02*
Y68948D01*
X29949D01*
X30949Y67948D01*
Y65949D01*
X29949Y64949D01*
X26950D01*
X28949D02*
X30949Y62950D01*
X32948D02*
X34947D01*
X33948D01*
Y68948D01*
X32948Y67948D01*
X41945Y68948D02*
X37946D01*
Y65949D01*
X39946Y66949D01*
X40946D01*
X41945Y65949D01*
Y63950D01*
X40946Y62950D01*
X38946D01*
X37946Y63950D01*
X26400Y73450D02*
Y79448D01*
X29399D01*
X30399Y78449D01*
Y76449D01*
X29399Y75450D01*
X26400D01*
X28399D02*
X30399Y73450D01*
X32398D02*
X34397D01*
X33398D01*
Y79448D01*
X32398Y78449D01*
X40395Y73450D02*
Y79448D01*
X37396Y76449D01*
X41395D01*
X63750Y57198D02*
Y52200D01*
X64750Y51200D01*
X66749D01*
X67749Y52200D01*
Y57198D01*
X73747Y51200D02*
X69748D01*
X73747Y55199D01*
Y56198D01*
X72747Y57198D01*
X70748D01*
X69748Y56198D01*
X43502Y46699D02*
X42502Y45699D01*
Y43700D01*
X43502Y42700D01*
X47500D01*
X48500Y43700D01*
Y45699D01*
X47500Y46699D01*
X48500Y48698D02*
Y50697D01*
Y49698D01*
X42502D01*
X43502Y48698D01*
Y53696D02*
X42502Y54696D01*
Y56695D01*
X43502Y57695D01*
X47500D01*
X48500Y56695D01*
Y54696D01*
X47500Y53696D01*
X43502D01*
X90202Y53449D02*
X89202Y52449D01*
Y50450D01*
X90202Y49450D01*
X94200D01*
X95200Y50450D01*
Y52449D01*
X94200Y53449D01*
X90202Y55448D02*
X89202Y56448D01*
Y58447D01*
X90202Y59447D01*
X91201D01*
X92201Y58447D01*
X93201Y59447D01*
X94200D01*
X95200Y58447D01*
Y56448D01*
X94200Y55448D01*
X93201D01*
X92201Y56448D01*
X91201Y55448D01*
X90202D01*
X92201Y56448D02*
Y58447D01*
X213950Y96700D02*
Y102698D01*
X216949D01*
X217949Y101699D01*
Y99699D01*
X216949Y98700D01*
X213950D01*
X215949D02*
X217949Y96700D01*
X219948Y102698D02*
X223947D01*
Y101699D01*
X219948Y97700D01*
Y96700D01*
X213646Y86700D02*
Y92698D01*
X216645D01*
X217645Y91698D01*
Y89699D01*
X216645Y88699D01*
X213646D01*
X215645D02*
X217645Y86700D01*
X223643Y92698D02*
X219644D01*
Y89699D01*
X221643Y90699D01*
X222643D01*
X223643Y89699D01*
Y87700D01*
X222643Y86700D01*
X220644D01*
X219644Y87700D01*
X187450Y101948D02*
Y95950D01*
X190449D01*
X191449Y96950D01*
Y100948D01*
X190449Y101948D01*
X187450D01*
X193448Y100948D02*
X194448Y101948D01*
X196447D01*
X197447Y100948D01*
Y99949D01*
X196447Y98949D01*
X195447D01*
X196447D01*
X197447Y97949D01*
Y96950D01*
X196447Y95950D01*
X194448D01*
X193448Y96950D01*
X187950Y92948D02*
Y86950D01*
X190949D01*
X191949Y87950D01*
Y91948D01*
X190949Y92948D01*
X187950D01*
X197947Y86950D02*
X193948D01*
X197947Y90949D01*
Y91948D01*
X196947Y92948D01*
X194948D01*
X193948Y91948D01*
X124750Y130700D02*
Y136698D01*
X127749D01*
X128749Y135698D01*
Y133699D01*
X127749Y132699D01*
X124750D01*
X126749D02*
X128749Y130700D01*
X133747D02*
Y136698D01*
X130748Y133699D01*
X134747D01*
X124950Y142950D02*
Y148948D01*
X127949D01*
X128949Y147949D01*
Y145949D01*
X127949Y144950D01*
X124950D01*
X126949D02*
X128949Y142950D01*
X130948Y147949D02*
X131948Y148948D01*
X133947D01*
X134947Y147949D01*
Y146949D01*
X133947Y145949D01*
X132947D01*
X133947D01*
X134947Y144950D01*
Y143950D01*
X133947Y142950D01*
X131948D01*
X130948Y143950D01*
X84200Y111448D02*
Y106450D01*
X85200Y105450D01*
X87199D01*
X88199Y106450D01*
Y111448D01*
X90198Y105450D02*
X92197D01*
X91198D01*
Y111448D01*
X90198Y110449D01*
X166250Y107950D02*
X160252D01*
Y110949D01*
X161252Y111949D01*
X163251D01*
X164251Y110949D01*
Y107950D01*
Y109949D02*
X166250Y111949D01*
Y113948D02*
Y115947D01*
Y114948D01*
X160252D01*
X161252Y113948D01*
Y118946D02*
X160252Y119946D01*
Y121945D01*
X161252Y122945D01*
X165250D01*
X166250Y121945D01*
Y119946D01*
X165250Y118946D01*
X161252D01*
X162950Y84700D02*
X156952D01*
Y87699D01*
X157952Y88699D01*
X159951D01*
X160951Y87699D01*
Y84700D01*
Y86699D02*
X162950Y88699D01*
X156952Y94697D02*
X157952Y92697D01*
X159951Y90698D01*
X161950D01*
X162950Y91698D01*
Y93697D01*
X161950Y94697D01*
X160951D01*
X159951Y93697D01*
Y90698D01*
X213596Y76950D02*
Y82948D01*
X216595D01*
X217595Y81948D01*
Y79949D01*
X216595Y78949D01*
X213596D01*
X215595D02*
X217595Y76950D01*
X223593D02*
X219594D01*
X223593Y80949D01*
Y81948D01*
X222593Y82948D01*
X220593D01*
X219594Y81948D01*
X57896Y142700D02*
Y148698D01*
X60895D01*
X61895Y147698D01*
Y145699D01*
X60895Y144699D01*
X57896D01*
X59895D02*
X61895Y142700D01*
X63894D02*
X65893D01*
X64894D01*
Y148698D01*
X63894Y147698D01*
X145499Y116450D02*
Y120448D01*
X144499Y121448D01*
X142500D01*
X141500Y120448D01*
Y116450D01*
X142500Y115450D01*
X144499D01*
X143499Y117449D02*
X145499Y115450D01*
X144499D02*
X145499Y116450D01*
X147498Y115450D02*
X149497D01*
X148498D01*
Y121448D01*
X147498Y120448D01*
X189450Y82198D02*
Y76200D01*
X192449D01*
X193449Y77200D01*
Y81199D01*
X192449Y82198D01*
X189450D01*
X195448Y76200D02*
X197447D01*
X196448D01*
Y82198D01*
X195448Y81199D01*
X32948Y89198D02*
X31949Y90198D01*
X29949D01*
X28950Y89198D01*
Y85200D01*
X29949Y84200D01*
X31949D01*
X32948Y85200D01*
X34948Y90198D02*
X38946D01*
Y89198D01*
X34948Y85200D01*
Y84200D01*
X34449Y134448D02*
X33449Y135448D01*
X31450D01*
X30450Y134448D01*
Y130450D01*
X31450Y129450D01*
X33449D01*
X34449Y130450D01*
X40447Y135448D02*
X38447Y134448D01*
X36448Y132449D01*
Y130450D01*
X37448Y129450D01*
X39447D01*
X40447Y130450D01*
Y131449D01*
X39447Y132449D01*
X36448D01*
X55949Y77199D02*
X54949Y78198D01*
X52950D01*
X51950Y77199D01*
Y73200D01*
X52950Y72200D01*
X54949D01*
X55949Y73200D01*
X61947Y78198D02*
X57948D01*
Y75199D01*
X59947Y76199D01*
X60947D01*
X61947Y75199D01*
Y73200D01*
X60947Y72200D01*
X58948D01*
X57948Y73200D01*
X87199Y146948D02*
X86199Y147948D01*
X84200D01*
X83200Y146948D01*
Y142950D01*
X84200Y141950D01*
X86199D01*
X87199Y142950D01*
X92197Y141950D02*
Y147948D01*
X89198Y144949D01*
X93197D01*
X169252Y88699D02*
X168252Y87699D01*
Y85700D01*
X169252Y84700D01*
X173250D01*
X174250Y85700D01*
Y87699D01*
X173250Y88699D01*
X169252Y90698D02*
X168252Y91698D01*
Y93697D01*
X169252Y94697D01*
X170251D01*
X171251Y93697D01*
Y92697D01*
Y93697D01*
X172251Y94697D01*
X173250D01*
X174250Y93697D01*
Y91698D01*
X173250Y90698D01*
X135002Y89449D02*
X134002Y88449D01*
Y86450D01*
X135002Y85450D01*
X139000D01*
X140000Y86450D01*
Y88449D01*
X139000Y89449D01*
X140000Y95447D02*
Y91448D01*
X136001Y95447D01*
X135002D01*
X134002Y94447D01*
Y92448D01*
X135002Y91448D01*
X37253Y147598D02*
X36253Y148598D01*
X34254D01*
X33254Y147598D01*
Y143600D01*
X34254Y142600D01*
X36253D01*
X37253Y143600D01*
X39252Y142600D02*
X41251D01*
X40252D01*
Y148598D01*
X39252Y147598D01*
X180500Y108200D02*
Y114198D01*
X183499D01*
X184499Y113198D01*
Y111199D01*
X183499Y110199D01*
X180500D01*
X182499D02*
X184499Y108200D01*
X186498D02*
X188497D01*
X187498D01*
Y114198D01*
X186498Y113198D01*
X195495Y108200D02*
X191496D01*
X195495Y112199D01*
Y113198D01*
X194495Y114198D01*
X192496D01*
X191496Y113198D01*
X212000Y107700D02*
Y113698D01*
X214999D01*
X215999Y112698D01*
Y110699D01*
X214999Y109699D01*
X212000D01*
X213999D02*
X215999Y107700D01*
X217998D02*
X219997D01*
X218998D01*
Y113698D01*
X217998Y112698D01*
X222996D02*
X223996Y113698D01*
X225996D01*
X226995Y112698D01*
Y111699D01*
X225996Y110699D01*
X224996D01*
X225996D01*
X226995Y109699D01*
Y108700D01*
X225996Y107700D01*
X223996D01*
X222996Y108700D01*
X156700Y132950D02*
X150702D01*
Y135949D01*
X151702Y136949D01*
X153701D01*
X154701Y135949D01*
Y132950D01*
Y134950D02*
X156700Y136949D01*
X155700Y138948D02*
X156700Y139948D01*
Y141947D01*
X155700Y142947D01*
X151702D01*
X150702Y141947D01*
Y139948D01*
X151702Y138948D01*
X152701D01*
X153701Y139948D01*
Y142947D01*
X24702Y45200D02*
X30700D01*
Y48199D01*
X29700Y49199D01*
X25702D01*
X24702Y48199D01*
Y45200D01*
Y55197D02*
Y51198D01*
X27701D01*
X26701Y53197D01*
Y54197D01*
X27701Y55197D01*
X29700D01*
X30700Y54197D01*
Y52198D01*
X29700Y51198D01*
D40*
X41264Y59954D02*
X50264D01*
Y40704D02*
Y59954D01*
X41264Y40704D02*
Y59954D01*
Y40704D02*
X50264D01*
X87836Y44946D02*
X96836D01*
X87836D02*
Y64196D01*
X96836Y44946D02*
Y64196D01*
X87836D02*
X96836D01*
X43204Y82636D02*
Y91636D01*
X23954Y82636D02*
X43204D01*
X23954Y91636D02*
X43204D01*
X23954Y82636D02*
Y91636D01*
X26946Y128764D02*
Y137764D01*
X46196D01*
X26946Y128764D02*
X46196D01*
Y137764D01*
X48196Y70264D02*
Y79264D01*
X67446D01*
X48196Y70264D02*
X67446D01*
Y79264D01*
X96954Y140886D02*
Y149886D01*
X77704Y140886D02*
X96954D01*
X77704Y149886D02*
X96954D01*
X77704Y140886D02*
Y149886D01*
X167014Y99704D02*
X176014D01*
Y80454D02*
Y99704D01*
X167014Y80454D02*
Y99704D01*
Y80454D02*
X176014D01*
X132764Y99704D02*
X141764D01*
Y80454D02*
Y99704D01*
X132764Y80454D02*
Y99704D01*
Y80454D02*
X141764D01*
X46008Y140786D02*
Y149786D01*
X26758Y140786D02*
X46008D01*
X26758Y149786D02*
X46008D01*
X26758Y140786D02*
Y149786D01*
X43204Y61386D02*
Y70386D01*
X23954Y61386D02*
X43204D01*
X23954Y70386D02*
X43204D01*
X23954Y61386D02*
Y70386D01*
X23896Y72014D02*
Y81014D01*
X43146D01*
X23896Y72014D02*
X43146D01*
Y81014D01*
X208196Y106014D02*
Y115014D01*
X227446D01*
X208196Y106014D02*
X227446D01*
Y115014D01*
X196954Y105886D02*
Y114886D01*
X177704Y105886D02*
X196954D01*
X177704Y114886D02*
X196954D01*
X177704Y105886D02*
Y114886D01*
X158514Y124454D02*
X167514D01*
Y105204D02*
Y124454D01*
X158514Y105204D02*
Y124454D01*
Y105204D02*
X167514D01*
X148886Y128196D02*
X157886D01*
X148886D02*
Y147446D01*
X157886Y128196D02*
Y147446D01*
X148886D02*
X157886D01*
X143836Y80446D02*
X152836D01*
X143836D02*
Y99696D01*
X152836Y80446D02*
Y99696D01*
X143836D02*
X152836D01*
X208146Y95764D02*
Y104764D01*
X227396D01*
X208146Y95764D02*
X227396D01*
Y104764D01*
X155386Y80446D02*
X164386D01*
X155386D02*
Y99696D01*
X164386Y80446D02*
Y99696D01*
X155386D02*
X164386D01*
X208196Y85764D02*
Y94764D01*
X227446D01*
X208196Y85764D02*
X227446D01*
Y94764D01*
X137454Y129386D02*
Y138386D01*
X118204Y129386D02*
X137454D01*
X118204Y138386D02*
X137454D01*
X118204Y129386D02*
Y138386D01*
X137404Y141136D02*
Y150136D01*
X118154Y141136D02*
X137404D01*
X118154Y150136D02*
X137404D01*
X118154Y141136D02*
Y150136D01*
X208196Y75514D02*
Y84514D01*
X227446D01*
X208196Y75514D02*
X227446D01*
Y84514D01*
X52446Y141014D02*
Y150014D01*
X71696D01*
X52446Y141014D02*
X71696D01*
Y150014D01*
M02*
