G04*
G04 #@! TF.GenerationSoftware,Altium Limited,Altium Designer,20.0.10 (225)*
G04*
G04 Layer_Color=8421504*
%FSLAX44Y44*%
%MOMM*%
G71*
G01*
G75*
%ADD15R,0.9000X1.0000*%
G04:AMPARAMS|DCode=16|XSize=1mm|YSize=0.9mm|CornerRadius=0.225mm|HoleSize=0mm|Usage=FLASHONLY|Rotation=90.000|XOffset=0mm|YOffset=0mm|HoleType=Round|Shape=RoundedRectangle|*
%AMROUNDEDRECTD16*
21,1,1.0000,0.4500,0,0,90.0*
21,1,0.5500,0.9000,0,0,90.0*
1,1,0.4500,0.2250,0.2750*
1,1,0.4500,0.2250,-0.2750*
1,1,0.4500,-0.2250,-0.2750*
1,1,0.4500,-0.2250,0.2750*
%
%ADD16ROUNDEDRECTD16*%
%ADD17R,0.8000X0.7000*%
%ADD18R,0.8000X1.3500*%
%ADD19R,3.0000X2.0000*%
G04:AMPARAMS|DCode=20|XSize=0.5mm|YSize=1.7mm|CornerRadius=0mm|HoleSize=0mm|Usage=FLASHONLY|Rotation=180.000|XOffset=0mm|YOffset=0mm|HoleType=Round|Shape=Octagon|*
%AMOCTAGOND20*
4,1,8,0.1250,-0.8500,-0.1250,-0.8500,-0.2500,-0.7250,-0.2500,0.7250,-0.1250,0.8500,0.1250,0.8500,0.2500,0.7250,0.2500,-0.7250,0.1250,-0.8500,0.0*
%
%ADD20OCTAGOND20*%

%ADD21R,0.5000X1.7000*%
%ADD22R,1.0000X1.0000*%
G04:AMPARAMS|DCode=23|XSize=1mm|YSize=1mm|CornerRadius=0mm|HoleSize=0mm|Usage=FLASHONLY|Rotation=90.000|XOffset=0mm|YOffset=0mm|HoleType=Round|Shape=Octagon|*
%AMOCTAGOND23*
4,1,8,0.2500,0.5000,-0.2500,0.5000,-0.5000,0.2500,-0.5000,-0.2500,-0.2500,-0.5000,0.2500,-0.5000,0.5000,-0.2500,0.5000,0.2500,0.2500,0.5000,0.0*
%
%ADD23OCTAGOND23*%

%ADD24R,1.0000X0.6000*%
%ADD25R,0.6000X0.8000*%
%ADD26R,3.4000X3.4000*%
G04:AMPARAMS|DCode=27|XSize=0.3mm|YSize=0.9mm|CornerRadius=0.075mm|HoleSize=0mm|Usage=FLASHONLY|Rotation=0.000|XOffset=0mm|YOffset=0mm|HoleType=Round|Shape=RoundedRectangle|*
%AMROUNDEDRECTD27*
21,1,0.3000,0.7500,0,0,0.0*
21,1,0.1500,0.9000,0,0,0.0*
1,1,0.1500,0.0750,-0.3750*
1,1,0.1500,-0.0750,-0.3750*
1,1,0.1500,-0.0750,0.3750*
1,1,0.1500,0.0750,0.3750*
%
%ADD27ROUNDEDRECTD27*%
G04:AMPARAMS|DCode=28|XSize=0.3mm|YSize=0.9mm|CornerRadius=0.075mm|HoleSize=0mm|Usage=FLASHONLY|Rotation=270.000|XOffset=0mm|YOffset=0mm|HoleType=Round|Shape=RoundedRectangle|*
%AMROUNDEDRECTD28*
21,1,0.3000,0.7500,0,0,270.0*
21,1,0.1500,0.9000,0,0,270.0*
1,1,0.1500,-0.3750,-0.0750*
1,1,0.1500,-0.3750,0.0750*
1,1,0.1500,0.3750,0.0750*
1,1,0.1500,0.3750,-0.0750*
%
%ADD28ROUNDEDRECTD28*%
%ADD29R,0.5000X0.5000*%
%ADD30R,0.8000X0.6000*%
D15*
X18250Y87750D02*
D03*
Y106250D02*
D03*
X33750D02*
D03*
D16*
Y87750D02*
D03*
D17*
X15000Y28125D02*
D03*
D18*
Y39875D02*
D03*
D19*
X103900Y500D02*
D03*
X198600D02*
D03*
Y48000D02*
D03*
X103900D02*
D03*
D20*
X135250Y52000D02*
D03*
D21*
X143250D02*
D03*
X151250D02*
D03*
X159250D02*
D03*
X167250D02*
D03*
D22*
X213000Y112250D02*
D03*
Y129250D02*
D03*
X161000D02*
D03*
X24250Y15000D02*
D03*
X76250D02*
D03*
Y-2000D02*
D03*
D23*
X161000Y112250D02*
D03*
X24250Y-2000D02*
D03*
D24*
X44750Y50250D02*
D03*
X68750D02*
D03*
Y40750D02*
D03*
Y31250D02*
D03*
X44750D02*
D03*
D25*
X186803Y86499D02*
D03*
X173341D02*
D03*
Y76499D02*
D03*
X186803D02*
D03*
X173391Y66249D02*
D03*
X186853D02*
D03*
X16946Y131650D02*
D03*
X30408D02*
D03*
X81354Y131750D02*
D03*
X67892D02*
D03*
X51858Y61000D02*
D03*
X38396D02*
D03*
X17146Y119500D02*
D03*
X30608D02*
D03*
X14142Y73500D02*
D03*
X27604D02*
D03*
X198396Y96750D02*
D03*
X211858D02*
D03*
X167892D02*
D03*
X181354D02*
D03*
X42646Y131750D02*
D03*
X56108D02*
D03*
X211858Y66250D02*
D03*
X198396D02*
D03*
X121804Y132000D02*
D03*
X108342D02*
D03*
X108392Y120250D02*
D03*
X121854D02*
D03*
X198396Y76500D02*
D03*
X211858D02*
D03*
X211808Y86500D02*
D03*
X198346D02*
D03*
X14096Y62750D02*
D03*
X27558D02*
D03*
X14142Y52250D02*
D03*
X27604D02*
D03*
D26*
X76450Y93000D02*
D03*
D27*
X58950Y117500D02*
D03*
X63950D02*
D03*
X68950D02*
D03*
X73950D02*
D03*
X78950D02*
D03*
X83950D02*
D03*
X88950D02*
D03*
X93950D02*
D03*
Y68500D02*
D03*
X88950D02*
D03*
X83950D02*
D03*
X78950D02*
D03*
X73950D02*
D03*
X68950D02*
D03*
X63950D02*
D03*
X58950D02*
D03*
D28*
X100950Y110500D02*
D03*
Y105500D02*
D03*
Y100500D02*
D03*
Y95500D02*
D03*
Y90500D02*
D03*
Y85500D02*
D03*
Y80500D02*
D03*
Y75500D02*
D03*
X51950D02*
D03*
Y80500D02*
D03*
Y85500D02*
D03*
Y90500D02*
D03*
Y95500D02*
D03*
Y100500D02*
D03*
Y105500D02*
D03*
Y110500D02*
D03*
D29*
X137854Y92578D02*
D03*
X124900D02*
D03*
X131250Y113660D02*
D03*
D30*
X124500Y83104D02*
D03*
Y69642D02*
D03*
X158750D02*
D03*
Y83104D02*
D03*
X79700Y34146D02*
D03*
Y47608D02*
D03*
X33000Y29892D02*
D03*
Y43354D02*
D03*
X140750Y130858D02*
D03*
Y117396D02*
D03*
X147250Y69646D02*
D03*
Y83108D02*
D03*
X150250Y94392D02*
D03*
Y107854D02*
D03*
X135700Y69646D02*
D03*
Y83108D02*
D03*
M02*
