G04*
G04 #@! TF.GenerationSoftware,Altium Limited,Altium Designer,20.0.10 (225)*
G04*
G04 Layer_Color=32896*
%FSLAX44Y44*%
%MOMM*%
G71*
G01*
G75*
G36*
X180075Y104691D02*
X83862D01*
Y138281D01*
X180075D01*
Y104691D01*
D02*
G37*
%LPC*%
G36*
X173594Y126134D02*
X172890D01*
X172557Y126060D01*
X172223Y125874D01*
X172186D01*
X172149Y125800D01*
X172001Y125615D01*
X171816Y125282D01*
X171668Y124911D01*
X171594Y124949D01*
X171446Y125097D01*
X171112Y125282D01*
X170705Y125541D01*
X170409Y125652D01*
X170113Y125763D01*
X169742Y125837D01*
X169372Y125948D01*
X168927Y126023D01*
X168483Y126097D01*
X167965Y126134D01*
X167187D01*
X166928Y126097D01*
X166594Y126060D01*
X166187Y125948D01*
X165743Y125837D01*
X165298Y125652D01*
X164780Y125430D01*
X164298Y125134D01*
X163854Y124726D01*
X163410Y124282D01*
X163002Y123726D01*
X162669Y123060D01*
X162410Y122319D01*
X162262Y121430D01*
X162188Y120430D01*
Y111580D01*
X162225Y111431D01*
X162262Y111283D01*
X162373Y110876D01*
X162521Y110654D01*
X162669Y110469D01*
X162706Y110431D01*
X162780Y110394D01*
X162891Y110320D01*
X163039Y110209D01*
X163447Y110024D01*
X163669Y109987D01*
X163928Y109950D01*
X164039D01*
X164187Y109987D01*
X164372Y110024D01*
X164780Y110172D01*
X164965Y110283D01*
X165187Y110469D01*
X165224Y110506D01*
X165261Y110580D01*
X165335Y110654D01*
X165409Y110802D01*
X165595Y111209D01*
X165632Y111431D01*
X165669Y111691D01*
Y120060D01*
Y120097D01*
Y120171D01*
Y120319D01*
X165706Y120505D01*
X165817Y120986D01*
X166002Y121504D01*
X166150Y121764D01*
X166298Y122023D01*
X166520Y122282D01*
X166780Y122504D01*
X167076Y122690D01*
X167446Y122838D01*
X167817Y122912D01*
X168298Y122949D01*
X168520D01*
X168668Y122912D01*
X169039Y122875D01*
X169520Y122727D01*
X170039Y122541D01*
X170594Y122245D01*
X171112Y121838D01*
X171335Y121579D01*
X171557Y121282D01*
Y111691D01*
Y111654D01*
Y111580D01*
X171594Y111431D01*
X171631Y111283D01*
X171742Y110876D01*
X171890Y110654D01*
X172038Y110469D01*
X172075Y110431D01*
X172149Y110394D01*
X172260Y110320D01*
X172409Y110209D01*
X172816Y110024D01*
X173075Y109987D01*
X173335Y109950D01*
X173446D01*
X173594Y109987D01*
X173742Y110024D01*
X174149Y110172D01*
X174371Y110283D01*
X174557Y110469D01*
X174594Y110506D01*
X174631Y110580D01*
X174705Y110654D01*
X174816Y110802D01*
X175001Y111209D01*
X175038Y111431D01*
X175075Y111691D01*
Y124393D01*
X175038Y124615D01*
X174964Y124911D01*
X174853Y125245D01*
X174631Y125578D01*
X174297Y125874D01*
X174112Y125985D01*
X173853Y126060D01*
X173594Y126134D01*
D02*
G37*
G36*
X156336Y120838D02*
X147781D01*
X147633Y120801D01*
X147485Y120764D01*
X147078Y120653D01*
X146893Y120505D01*
X146708Y120356D01*
X146671Y120319D01*
X146634Y120282D01*
X146559Y120171D01*
X146485Y120023D01*
X146337Y119653D01*
X146263Y119468D01*
Y119097D01*
X146300Y118986D01*
Y118801D01*
X146448Y118431D01*
X146559Y118245D01*
X146708Y118060D01*
X146745Y118023D01*
X146782Y117986D01*
X146893Y117912D01*
X147041Y117838D01*
X147411Y117653D01*
X147633Y117616D01*
X147893Y117579D01*
X156447D01*
X156558Y117616D01*
X156744Y117653D01*
X157114Y117801D01*
X157299Y117912D01*
X157484Y118060D01*
X157521Y118097D01*
X157558Y118134D01*
X157632Y118245D01*
X157706Y118394D01*
X157892Y118764D01*
X157929Y118986D01*
X157966Y119208D01*
Y119319D01*
X157929Y119431D01*
X157892Y119616D01*
X157744Y119986D01*
X157632Y120171D01*
X157484Y120356D01*
X157447Y120393D01*
X157410Y120430D01*
X157299Y120505D01*
X157151Y120616D01*
X156781Y120764D01*
X156558Y120801D01*
X156336Y120838D01*
D02*
G37*
G36*
X140745Y133281D02*
X137042D01*
X136894Y133244D01*
X136709Y133207D01*
X136449Y133170D01*
X136190Y133133D01*
X135857Y133059D01*
X135524Y132985D01*
X134746Y132762D01*
X133857Y132429D01*
X132931Y131985D01*
X131968Y131466D01*
X131005Y130800D01*
X130524Y130392D01*
X130080Y129985D01*
X129635Y129504D01*
X129228Y129022D01*
X128820Y128467D01*
X128450Y127874D01*
X128117Y127208D01*
X127821Y126541D01*
X127561Y125800D01*
X127339Y124986D01*
X127191Y124171D01*
X127080Y123245D01*
X127006Y122282D01*
Y120838D01*
X127043Y120579D01*
Y120282D01*
X127080Y119949D01*
X127117Y119616D01*
X127265Y118801D01*
X127450Y117875D01*
X127747Y116875D01*
X128154Y115875D01*
X128672Y114838D01*
X128969Y114320D01*
X129339Y113839D01*
X129709Y113320D01*
X130117Y112876D01*
X130598Y112431D01*
X131080Y111987D01*
X131635Y111617D01*
X132265Y111246D01*
X132894Y110913D01*
X133598Y110654D01*
X134375Y110394D01*
X135153Y110209D01*
X136042Y110061D01*
X136968Y109987D01*
X140745Y109950D01*
X140856D01*
X141004Y109987D01*
X141190Y110024D01*
X141375Y110098D01*
X141597Y110172D01*
X141782Y110320D01*
X142004Y110506D01*
X142041Y110543D01*
X142078Y110617D01*
X142190Y110728D01*
X142264Y110876D01*
X142486Y111283D01*
X142523Y111505D01*
X142560Y111802D01*
Y131578D01*
X142523Y131689D01*
X142486Y131874D01*
X142412Y132096D01*
X142338Y132318D01*
X142190Y132540D01*
X142004Y132725D01*
X141967Y132762D01*
X141893Y132800D01*
X141782Y132911D01*
X141634Y133022D01*
X141264Y133207D01*
X141004Y133244D01*
X140745Y133281D01*
D02*
G37*
G36*
X115489Y133207D02*
X115414D01*
X115155Y133170D01*
X114896Y133133D01*
X114415Y132874D01*
X114044Y132577D01*
X113711Y132207D01*
X113452Y131800D01*
X113304Y131503D01*
X113193Y131244D01*
X113155Y131207D01*
Y131170D01*
X112415Y129244D01*
X111711Y127393D01*
X111045Y125578D01*
X110378Y123837D01*
X109748Y122208D01*
X109119Y120616D01*
X108563Y119171D01*
X108045Y117801D01*
X107563Y116542D01*
X107156Y115431D01*
X106934Y114950D01*
X106786Y114468D01*
X106601Y114061D01*
X106453Y113653D01*
X106304Y113320D01*
X106193Y113024D01*
X106082Y112765D01*
X106008Y112542D01*
X105934Y112357D01*
X105897Y112246D01*
X105860Y112172D01*
Y112135D01*
X105823Y111802D01*
Y111468D01*
X105860Y111209D01*
X105971Y110950D01*
X106045Y110765D01*
X106156Y110617D01*
X106193Y110543D01*
X106230Y110506D01*
X106453Y110320D01*
X106675Y110172D01*
X106897Y110061D01*
X107119Y109987D01*
X107304Y109950D01*
X107415Y109913D01*
X107563D01*
X108045Y109987D01*
X108452Y110172D01*
X108749Y110394D01*
X109008Y110691D01*
X109230Y110987D01*
X109341Y111209D01*
X109415Y111394D01*
X109452Y111468D01*
X109637Y112061D01*
X109860Y112654D01*
X110119Y113246D01*
X110341Y113802D01*
X110526Y114283D01*
X110711Y114653D01*
X110785Y114801D01*
X110822Y114913D01*
X110859Y114950D01*
Y114987D01*
X120007D01*
X120303Y114246D01*
X120562Y113579D01*
X120821Y112950D01*
X121044Y112431D01*
X121192Y112024D01*
X121340Y111691D01*
X121414Y111505D01*
X121451Y111431D01*
X121673Y110913D01*
X121969Y110543D01*
X122266Y110283D01*
X122562Y110098D01*
X122858Y109987D01*
X123080Y109950D01*
X123229Y109913D01*
X123303D01*
X123599Y109950D01*
X123858Y110024D01*
X124080Y110098D01*
X124265Y110209D01*
X124414Y110320D01*
X124525Y110431D01*
X124599Y110469D01*
X124636Y110506D01*
X124821Y110765D01*
X124932Y111061D01*
X125006Y111320D01*
X125043Y111580D01*
Y111987D01*
X125006Y112098D01*
Y112135D01*
X123673Y115468D01*
X122377Y118801D01*
X121747Y120430D01*
X121155Y121986D01*
X120562Y123504D01*
X120007Y124949D01*
X119525Y126245D01*
X119044Y127467D01*
X118822Y127985D01*
X118636Y128504D01*
X118451Y128985D01*
X118303Y129430D01*
X118155Y129800D01*
X118007Y130170D01*
X117896Y130466D01*
X117822Y130726D01*
X117748Y130911D01*
X117674Y131059D01*
X117636Y131133D01*
Y131170D01*
X117488Y131540D01*
X117340Y131837D01*
X117155Y132133D01*
X116970Y132355D01*
X116600Y132725D01*
X116229Y132948D01*
X115933Y133096D01*
X115674Y133170D01*
X115489Y133207D01*
D02*
G37*
G36*
X101934Y133022D02*
X95417D01*
X95157Y132985D01*
X94861D01*
X94194Y132874D01*
X93417Y132725D01*
X92602Y132466D01*
X91750Y132096D01*
X90936Y131615D01*
X90899Y131578D01*
X90862Y131540D01*
X90750Y131429D01*
X90602Y131281D01*
X90454Y131059D01*
X90269Y130837D01*
X90084Y130578D01*
X89899Y130244D01*
X89677Y129911D01*
X89491Y129504D01*
X89343Y129096D01*
X89158Y128615D01*
X89047Y128133D01*
X88936Y127615D01*
X88862Y127022D01*
Y125911D01*
X88899Y125689D01*
X88936Y125430D01*
X88973Y125134D01*
X89121Y124430D01*
X89343Y123615D01*
X89713Y122764D01*
X89936Y122319D01*
X90195Y121912D01*
X90491Y121504D01*
X90862Y121097D01*
X90899D01*
X90936Y121023D01*
X91047Y120986D01*
X91195Y120875D01*
X91380Y120801D01*
X91602Y120690D01*
X92158Y120430D01*
X92861Y120208D01*
X93676Y120023D01*
X94602Y119912D01*
X95639Y119875D01*
X100120D01*
Y111468D01*
Y111431D01*
Y111357D01*
X100157Y111209D01*
X100194Y111024D01*
X100342Y110580D01*
X100453Y110394D01*
X100638Y110172D01*
X100675Y110135D01*
X100712Y110098D01*
X100861Y110024D01*
X101009Y109950D01*
X101416Y109765D01*
X101638Y109728D01*
X101934Y109691D01*
X102045D01*
X102194Y109728D01*
X102342Y109765D01*
X102749Y109913D01*
X102971Y110024D01*
X103194Y110172D01*
X103231Y110209D01*
X103268Y110283D01*
X103342Y110394D01*
X103453Y110543D01*
X103638Y110950D01*
X103675Y111172D01*
X103712Y111468D01*
Y131318D01*
X103675Y131466D01*
X103638Y131652D01*
X103490Y132059D01*
X103379Y132281D01*
X103194Y132466D01*
X103156Y132503D01*
X103083Y132540D01*
X102971Y132651D01*
X102823Y132762D01*
X102416Y132948D01*
X102194Y132985D01*
X101934Y133022D01*
D02*
G37*
%LPD*%
G36*
X138856Y113691D02*
X136449D01*
X136264Y113728D01*
X135931Y113764D01*
X135524Y113839D01*
X135079Y113987D01*
X134524Y114172D01*
X133968Y114431D01*
X133413Y114764D01*
X132820Y115172D01*
X132302Y115690D01*
X131783Y116283D01*
X131339Y117023D01*
X131005Y117875D01*
X130746Y118838D01*
X130635Y119394D01*
X130598Y119986D01*
X130561Y120579D01*
X130598Y121245D01*
Y121282D01*
Y121319D01*
Y121430D01*
Y121579D01*
X130635Y121949D01*
X130672Y122467D01*
X130783Y123060D01*
X130894Y123726D01*
X131080Y124430D01*
X131339Y125171D01*
X131635Y125911D01*
X132042Y126652D01*
X132524Y127356D01*
X133079Y127948D01*
X133746Y128504D01*
X134561Y128948D01*
X135005Y129096D01*
X135486Y129244D01*
X135968Y129355D01*
X136524Y129392D01*
X138856D01*
Y113691D01*
D02*
G37*
G36*
X118933Y118245D02*
X112044D01*
X115489Y127467D01*
X118933Y118245D01*
D02*
G37*
G36*
X100120Y123800D02*
X95306D01*
X94824Y123875D01*
X94232Y124060D01*
X93935Y124171D01*
X93676Y124319D01*
X93380Y124541D01*
X93158Y124800D01*
X92935Y125097D01*
X92750Y125430D01*
X92639Y125837D01*
X92565Y126319D01*
Y126541D01*
Y126578D01*
Y126652D01*
X92602Y126800D01*
Y126948D01*
X92750Y127393D01*
X92861Y127615D01*
X93009Y127874D01*
X93195Y128133D01*
X93454Y128393D01*
X93713Y128615D01*
X94083Y128837D01*
X94491Y129022D01*
X94972Y129170D01*
X95528Y129281D01*
X96157Y129355D01*
X100120D01*
Y123800D01*
D02*
G37*
M02*
