G04 Layer_Physical_Order=4*
G04 Layer_Color=16711680*
%FSLAX44Y44*%
%MOMM*%
G71*
G01*
G75*
%ADD21C,0.2000*%
%ADD22C,0.1500*%
%ADD23R,1.4000X1.4000*%
%ADD24C,0.5000*%
%ADD25C,1.0000*%
D21*
X86998Y65573D02*
X87417D01*
X43076Y72750D02*
X51750D01*
X77254Y66503D02*
X86288Y75538D01*
X105554Y75500D02*
X113648D01*
X105516Y75538D02*
X105554Y75500D01*
X86288Y75538D02*
X105516D01*
X25526Y40527D02*
X44058Y59059D01*
X34626Y81200D02*
X43076Y72750D01*
X0Y81200D02*
X34626D01*
X44058Y59059D02*
Y63828D01*
X85716Y64291D02*
X93257Y56750D01*
X22764Y106600D02*
X26914Y110750D01*
X0Y106600D02*
X22764D01*
X13770Y127000D02*
X25750D01*
X8770Y132000D02*
X13770Y127000D01*
X0Y132000D02*
X8770D01*
X170000Y127000D02*
X194300D01*
X199300Y132000D01*
X228600D01*
X190283Y56500D02*
X197286Y63503D01*
X220897D01*
X228600Y55800D01*
X25526Y27622D02*
Y40527D01*
X85716Y64291D02*
X86998Y65573D01*
X113648Y75500D02*
X119902Y81754D01*
X132507D01*
X101557Y56500D02*
X190283D01*
X212825Y107425D02*
X213500Y106750D01*
X170000Y117250D02*
X204500D01*
X213575Y108175D01*
X152250Y135000D02*
X170000Y117250D01*
X82560Y130248D02*
X82691D01*
X87189Y125750D01*
X38500Y114250D02*
X43771D01*
X25750Y127000D02*
X38500Y114250D01*
X45221Y110750D02*
X56860Y122389D01*
X57386D01*
X63503Y128506D01*
X43771Y114250D02*
X52021Y122500D01*
Y124771D01*
X55450Y128200D01*
Y128500D01*
X65324Y133756D02*
X76830Y122250D01*
X46681Y133756D02*
X65324D01*
X41752Y128827D02*
X46681Y133756D01*
X41752Y128506D02*
Y128827D01*
X26914Y110750D02*
X45221D01*
X87189Y125750D02*
X97213D01*
X76830Y122250D02*
X100000D01*
X97213Y125750D02*
X110463Y139000D01*
X101307Y56750D02*
X101557Y56500D01*
X93257Y56750D02*
X101307D01*
X158000Y139000D02*
X170000Y127000D01*
X110463Y139000D02*
X158000D01*
X112750Y135000D02*
X152250D01*
X100000Y122250D02*
X112750Y135000D01*
D22*
X62253Y50970D02*
Y61253D01*
X67753Y66253D02*
Y73253D01*
Y62786D02*
Y66253D01*
X103445Y69852D02*
Y70538D01*
X109700Y80500D02*
Y83649D01*
X62253Y61253D02*
X63003Y62003D01*
Y77503D01*
X67753Y62786D02*
X98990Y31549D01*
X62253Y50970D02*
X67250Y45973D01*
X75181D01*
X111590Y61707D02*
X133278D01*
X103445Y69852D02*
X111590Y61707D01*
X133278D02*
X147793Y76222D01*
X95904Y25250D02*
X208350D01*
X75181Y45973D02*
X95904Y25250D01*
X98990Y31549D02*
X211238D01*
X217856Y95856D02*
X228600Y106600D01*
X200445Y95856D02*
X217856D01*
X194701Y101600D02*
X200445Y95856D01*
X173431Y101600D02*
X194701D01*
X147793Y76222D02*
X187949D01*
X192927Y81200D01*
X228600D01*
X211238Y31549D02*
X212387Y30400D01*
X228600D01*
X208350Y25250D02*
X228600Y5000D01*
X169100Y105932D02*
X173431Y101600D01*
X131982Y105932D02*
X169100D01*
X109700Y83649D02*
X131982Y105932D01*
X94982Y79515D02*
X128756Y113289D01*
X74015Y79515D02*
X94982D01*
X128756Y113289D02*
Y126660D01*
X124006Y128628D02*
X126789Y131410D01*
X124006Y122711D02*
Y128628D01*
Y122711D02*
X125500Y121217D01*
X126789Y131410D02*
X133603D01*
X135257Y129756D01*
X51255Y105255D02*
X62750Y116750D01*
X120750D01*
X97532Y112000D02*
X122718D01*
X87282Y101750D02*
X97532Y112000D01*
X125500Y114782D02*
Y121217D01*
X122718Y112000D02*
X125500Y114782D01*
X44502Y105255D02*
X51255D01*
X69040Y83507D02*
X74016Y88484D01*
Y94516D01*
X81250Y101750D01*
X87282D01*
X69007Y83507D02*
X69040D01*
X67753Y73253D02*
X74015Y79515D01*
X63003Y77503D02*
X69007Y83507D01*
D23*
X228600Y132000D02*
D03*
Y106600D02*
D03*
Y81200D02*
D03*
Y55800D02*
D03*
Y30400D02*
D03*
Y5000D02*
D03*
X0D02*
D03*
Y30400D02*
D03*
Y55800D02*
D03*
Y81200D02*
D03*
Y106600D02*
D03*
Y132000D02*
D03*
D24*
X170812Y44558D02*
D03*
X87417Y65573D02*
D03*
X62253Y61253D02*
D03*
X56700Y55500D02*
D03*
X67753Y66253D02*
D03*
X44343Y42304D02*
D03*
X58253Y66753D02*
D03*
X51750Y72750D02*
D03*
X43250Y79750D02*
D03*
X77254Y66503D02*
D03*
X103445Y70538D02*
D03*
X109700Y80500D02*
D03*
X77254Y60003D02*
D03*
X57753Y48752D02*
D03*
X59000Y31750D02*
D03*
X37752Y71003D02*
D03*
X113515Y66500D02*
D03*
X119335Y74116D02*
D03*
X44058Y63828D02*
D03*
X145962Y97357D02*
D03*
X25526Y27622D02*
D03*
X80555Y26805D02*
D03*
X205729Y71472D02*
D03*
X213575Y108175D02*
D03*
X198250Y110587D02*
D03*
X174573Y107176D02*
D03*
X128756Y126660D02*
D03*
X11450Y137250D02*
D03*
X69003Y137207D02*
D03*
X82560Y130248D02*
D03*
X120750Y116750D02*
D03*
X48752Y128756D02*
D03*
X41700Y119250D02*
D03*
X41752Y128506D02*
D03*
X55450Y128500D02*
D03*
X63503Y128506D02*
D03*
X89000Y133000D02*
D03*
X96505Y133006D02*
D03*
X44502Y105255D02*
D03*
X132507Y81754D02*
D03*
X66200Y108750D02*
D03*
X85200Y108500D02*
D03*
X66200Y90500D02*
D03*
X61950Y-500D02*
D03*
X26200Y119000D02*
D03*
X43200Y90500D02*
D03*
X133950Y101182D02*
D03*
X83754Y91504D02*
D03*
X20501Y67503D02*
D03*
X135257Y129756D02*
D03*
X112562Y106954D02*
D03*
X60000Y16500D02*
D03*
X166258Y96755D02*
D03*
Y86504D02*
D03*
X177500Y61750D02*
D03*
X173750Y134750D02*
D03*
X10908Y91658D02*
D03*
X41000Y3500D02*
D03*
D25*
X193955Y15790D02*
D03*
X206397Y52186D02*
D03*
X110410Y39540D02*
D03*
X193056Y40074D02*
D03*
X109331Y14690D02*
D03*
X206796Y3622D02*
D03*
X96699Y3070D02*
D03*
X96500Y48250D02*
D03*
M02*
