G04*
G04 #@! TF.GenerationSoftware,Altium Limited,Altium Designer,20.0.10 (225)*
G04*
G04 Layer_Physical_Order=4*
G04 Layer_Color=16711680*
%FSLAX44Y44*%
%MOMM*%
G71*
G01*
G75*
%ADD10C,0.2500*%
%ADD11C,0.1500*%
%ADD12C,0.2000*%
G04:AMPARAMS|DCode=30|XSize=1.6002mm|YSize=1.6002mm|CornerRadius=0mm|HoleSize=0mm|Usage=FLASHONLY|Rotation=270.000|XOffset=0mm|YOffset=0mm|HoleType=Round|Shape=Octagon|*
%AMOCTAGOND30*
4,1,8,-0.4001,-0.8001,0.4001,-0.8001,0.8001,-0.4001,0.8001,0.4001,0.4001,0.8001,-0.4001,0.8001,-0.8001,0.4001,-0.8001,-0.4001,-0.4001,-0.8001,0.0*
%
%ADD30OCTAGOND30*%

%ADD31C,0.5000*%
%ADD32C,0.4000*%
%ADD34C,0.3000*%
D10*
X121049Y172250D02*
X205104D01*
X114100Y165300D02*
X121049Y172250D01*
X205104D02*
X215912Y161441D01*
Y97088D02*
Y161441D01*
Y97088D02*
X227000Y86000D01*
D11*
X186211Y157506D02*
X201750Y141967D01*
X177107Y157506D02*
X186211D01*
X209988Y65452D02*
X287713D01*
X238944Y122290D02*
Y123237D01*
X166554Y115998D02*
X201303Y81250D01*
X210072Y189448D02*
X210623Y188897D01*
X196552Y189448D02*
X210072D01*
X196000Y188897D02*
X196552Y189448D01*
X248839Y139849D02*
X314249D01*
X234194Y125205D02*
X248839Y139849D01*
X233967Y81250D02*
X238749Y86032D01*
X201303Y81250D02*
X233967D01*
X238749Y86032D02*
Y103341D01*
X234194Y107896D02*
X238749Y103341D01*
X234194Y107896D02*
Y125205D01*
X314249Y139849D02*
X317500Y143100D01*
X314560Y92300D02*
X317500D01*
X287713Y65452D02*
X314560Y92300D01*
X161614Y120749D02*
X184466D01*
X116770Y94663D02*
X120183Y91250D01*
X201750Y138033D02*
Y141967D01*
X184466Y120749D02*
X201750Y138033D01*
X132116Y91250D02*
X161614Y120749D01*
X120183Y91250D02*
X132116D01*
X272110Y75250D02*
X314560Y117700D01*
X183789Y75250D02*
X272110D01*
X159188Y99851D02*
X183789Y75250D01*
X314560Y117700D02*
X317500D01*
X159188Y99851D02*
Y107362D01*
X161156Y112113D02*
X173094Y100174D01*
Y90188D02*
Y100174D01*
X109658Y41247D02*
X136354Y67942D01*
X157221Y112113D02*
X161156D01*
X136354Y91246D02*
X157221Y112113D01*
X235210Y78250D02*
X241749Y84789D01*
X185032Y78250D02*
X235210D01*
X173094Y90188D02*
X185032Y78250D01*
X136354Y67942D02*
Y91246D01*
X241749Y84789D02*
Y119485D01*
X238944Y122290D02*
X241749Y119485D01*
D12*
X90337Y123251D02*
X130100Y163013D01*
X41000Y103000D02*
X41429Y103429D01*
X130100Y163013D02*
Y165300D01*
X41429Y103429D02*
Y106500D01*
X134000Y133000D02*
X134100Y133099D01*
Y165300D01*
X42100Y131900D02*
X45000Y129000D01*
X42100Y131900D02*
Y144700D01*
X45000Y129000D02*
X46100Y130100D01*
Y144700D01*
Y165300D01*
X58180Y123251D02*
X90337D01*
X41429Y106500D02*
X58180Y123251D01*
D30*
X12700Y168500D02*
D03*
Y143100D02*
D03*
Y117700D02*
D03*
Y92300D02*
D03*
Y66900D02*
D03*
Y41500D02*
D03*
X317500D02*
D03*
Y66900D02*
D03*
Y92300D02*
D03*
Y117700D02*
D03*
Y143100D02*
D03*
Y168500D02*
D03*
D31*
X125000Y167000D02*
D03*
X177107Y157506D02*
D03*
X248850Y154353D02*
D03*
X101022Y141006D02*
D03*
X166554Y115998D02*
D03*
X174428Y126920D02*
D03*
X178746Y148257D02*
D03*
X209988Y65452D02*
D03*
X267646Y112697D02*
D03*
X116770Y94663D02*
D03*
X107118Y88820D02*
D03*
X159188Y107362D02*
D03*
X163760Y165902D02*
D03*
X176870Y138322D02*
D03*
X253930Y113967D02*
D03*
X226752Y132001D02*
D03*
X94418Y173657D02*
D03*
X109658Y41247D02*
D03*
X238944Y123237D02*
D03*
X210623Y188897D02*
D03*
X210242Y159686D02*
D03*
X101022Y116007D02*
D03*
X159000Y84000D02*
D03*
X183000Y87000D02*
D03*
X269000Y45000D02*
D03*
X112000Y198365D02*
D03*
X258000Y171896D02*
D03*
X157800Y57244D02*
D03*
X156800Y19000D02*
D03*
X307800Y19244D02*
D03*
X134000Y133000D02*
D03*
X45000Y129000D02*
D03*
X116304Y19543D02*
D03*
X124000Y96000D02*
D03*
X131604Y72257D02*
D03*
X152000D02*
D03*
X41000Y103000D02*
D03*
X197000Y140000D02*
D03*
X293000Y81000D02*
D03*
X81000Y83000D02*
D03*
X105000Y180000D02*
D03*
X233999Y88000D02*
D03*
X227000Y86000D02*
D03*
X56000Y110357D02*
D03*
Y155000D02*
D03*
X57000Y128251D02*
D03*
D32*
X40944Y102943D02*
X41000Y103000D01*
X23344Y102943D02*
X40944D01*
X12700Y92300D02*
X23344Y102943D01*
D34*
X117000Y103000D02*
X124000Y96000D01*
X41000Y103000D02*
X117000D01*
M02*
