G04*
G04 #@! TF.GenerationSoftware,Altium Limited,Altium Designer,20.0.10 (225)*
G04*
G04 Layer_Physical_Order=4*
G04 Layer_Color=16711680*
%FSLAX44Y44*%
%MOMM*%
G71*
G01*
G75*
%ADD12C,0.1500*%
%ADD13C,0.2000*%
G04:AMPARAMS|DCode=31|XSize=1.5mm|YSize=1.5mm|CornerRadius=0mm|HoleSize=0mm|Usage=FLASHONLY|Rotation=180.000|XOffset=0mm|YOffset=0mm|HoleType=Round|Shape=Octagon|*
%AMOCTAGOND31*
4,1,8,-0.7500,0.3750,-0.7500,-0.3750,-0.3750,-0.7500,0.3750,-0.7500,0.7500,-0.3750,0.7500,0.3750,0.3750,0.7500,-0.3750,0.7500,-0.7500,0.3750,0.0*
%
%ADD31OCTAGOND31*%

%ADD32R,1.5000X1.5000*%
%ADD33C,0.5000*%
%ADD34C,1.2000*%
D12*
X132051Y101000D02*
X169032D01*
X117301Y86250D02*
X132051Y101000D01*
X169032D02*
X173431Y96600D01*
X59750Y69218D02*
X74016Y83484D01*
X59858Y58614D02*
Y60000D01*
X59750Y58506D02*
X59858Y58614D01*
Y60000D02*
Y69110D01*
X59750Y69218D02*
X59858Y69110D01*
X59750Y58506D02*
X98006Y20250D01*
X132744Y126756D02*
X133090Y126410D01*
X131506Y126756D02*
X132744D01*
X126789Y126410D02*
X133090D01*
X193250Y59500D02*
X219900D01*
X228600Y50800D01*
X110925Y86250D02*
X117301D01*
X108142Y83468D02*
X110925Y86250D01*
X106283Y95750D02*
X115710D01*
X98006Y20250D02*
X208350D01*
X108142Y77058D02*
X109700Y75500D01*
X179000Y45250D02*
X193250Y59500D01*
X103445Y64852D02*
Y65538D01*
Y64852D02*
X111547Y56750D01*
X133968D01*
X108142Y77058D02*
Y83468D01*
X68003Y56286D02*
Y60003D01*
X75533Y65000D02*
X106283Y95750D01*
X68003Y60003D02*
X73000Y65000D01*
X75533D01*
X68003Y56286D02*
X97740Y26549D01*
X211238D01*
X130148Y110188D02*
Y120160D01*
X115710Y95750D02*
X130148Y110188D01*
X194731Y78004D02*
X207227D01*
X187949Y71222D02*
X194731Y78004D01*
X209031Y76200D02*
X228600D01*
X207227Y78004D02*
X209031Y76200D01*
X44502Y100255D02*
X51255D01*
X62750Y111750D01*
X124006Y123628D02*
X126789Y126410D01*
X124006Y117711D02*
Y123628D01*
Y117711D02*
X125500Y116217D01*
Y109782D02*
Y116217D01*
X122718Y107000D02*
X125500Y109782D01*
X133968Y56750D02*
X148440Y71222D01*
X187949D01*
X81250Y96750D02*
X87282D01*
X74016Y89516D02*
X81250Y96750D01*
X74016Y83484D02*
Y89516D01*
X87282Y96750D02*
X97532Y107000D01*
X122718D01*
X208350Y20250D02*
X228600Y0D01*
X212387Y25400D02*
X228600D01*
X211238Y26549D02*
X212387Y25400D01*
X173431Y96600D02*
X194701D01*
X200445Y90856D01*
X217856D01*
X228600Y101600D01*
X62750Y111750D02*
X120750D01*
D13*
X210745Y102255D02*
X217011D01*
X174835Y112250D02*
X200750D01*
X210745Y102255D01*
X55450Y123200D02*
Y123500D01*
X45221Y105750D02*
X63221Y123750D01*
X63983D01*
X43771Y109250D02*
X52021Y117500D01*
X38500Y109250D02*
X43771D01*
X25750Y122000D02*
X38500Y109250D01*
X26914Y105750D02*
X45221D01*
X42502Y120756D02*
Y121081D01*
X46681Y128756D02*
X66047D01*
X43500Y125575D02*
X46681Y128756D01*
X52021Y119771D02*
X55450Y123200D01*
X52021Y117500D02*
Y119771D01*
X43500Y122079D02*
Y125575D01*
X42502Y121081D02*
X43500Y122079D01*
X51753Y72503D02*
Y78242D01*
X51750Y78245D02*
X51753Y78242D01*
X51750Y78245D02*
X51753Y78247D01*
X49750Y80250D02*
X51753Y78247D01*
X19750Y80250D02*
X49750D01*
X15750Y76250D02*
X19750Y80250D01*
X25000Y26000D02*
Y35751D01*
X0Y76200D02*
X15750D01*
X35500Y46251D02*
Y50500D01*
X25000Y35751D02*
X35500Y46251D01*
X104750Y122000D02*
X114506Y131756D01*
X155329D01*
X119902Y76754D02*
X132507D01*
X113648Y70500D02*
X119902Y76754D01*
X105554Y70500D02*
X113648D01*
X105516Y70538D02*
X105554Y70500D01*
X87789Y70538D02*
X105516D01*
X66047Y128756D02*
X72804Y122000D01*
X104750D01*
X78754Y61503D02*
X87789Y70538D01*
X22764Y101600D02*
X26914Y105750D01*
X13770Y122000D02*
X25750D01*
X8770Y127000D02*
X13770Y122000D01*
X0Y127000D02*
X8770D01*
X0Y101600D02*
X22764D01*
X155329Y131756D02*
X174835Y112250D01*
D31*
X0Y127000D02*
D03*
D32*
Y101600D02*
D03*
Y76200D02*
D03*
Y50800D02*
D03*
Y25400D02*
D03*
Y0D02*
D03*
X228600D02*
D03*
Y25400D02*
D03*
Y50800D02*
D03*
Y76200D02*
D03*
Y101600D02*
D03*
Y127000D02*
D03*
D33*
X4500Y114500D02*
D03*
X95000Y127250D02*
D03*
X55450Y123500D02*
D03*
X63983Y123750D02*
D03*
X41700Y114250D02*
D03*
X48752Y123756D02*
D03*
X42502Y120756D02*
D03*
X133950Y96182D02*
D03*
X44250Y43000D02*
D03*
X51753Y72503D02*
D03*
X46089Y67968D02*
D03*
X43450Y74947D02*
D03*
X35252Y69003D02*
D03*
X77754Y55003D02*
D03*
X59858Y60000D02*
D03*
X87500Y22500D02*
D03*
X25000Y26000D02*
D03*
X217011Y102255D02*
D03*
X35500Y50500D02*
D03*
X205750Y72000D02*
D03*
X73750Y131500D02*
D03*
X146250Y77250D02*
D03*
X131506Y126756D02*
D03*
X132507Y76754D02*
D03*
X121006Y70753D02*
D03*
X112892Y81500D02*
D03*
X109750Y91000D02*
D03*
X113256Y65253D02*
D03*
X109700Y75500D02*
D03*
X103445Y65538D02*
D03*
X68003Y60003D02*
D03*
X53753Y49252D02*
D03*
X78754Y61503D02*
D03*
X130148Y120160D02*
D03*
X158500Y96250D02*
D03*
X24250Y131500D02*
D03*
X44502Y100255D02*
D03*
X142250Y123500D02*
D03*
X166750Y76500D02*
D03*
X112255Y101505D02*
D03*
X179000Y45250D02*
D03*
X41000Y-1500D02*
D03*
X173750Y129750D02*
D03*
X177500Y56750D02*
D03*
X60000Y11500D02*
D03*
X20501Y62503D02*
D03*
X83754Y86504D02*
D03*
X43200Y85500D02*
D03*
X26200Y114000D02*
D03*
X61950Y-5500D02*
D03*
X66200Y85500D02*
D03*
X85200Y103500D02*
D03*
X66200Y103750D02*
D03*
X198250Y105587D02*
D03*
X59000Y26750D02*
D03*
X57753Y43752D02*
D03*
X170812Y39558D02*
D03*
X120750Y111750D02*
D03*
X10000Y89000D02*
D03*
X182000Y107000D02*
D03*
X174250Y104750D02*
D03*
D34*
X207000Y49500D02*
D03*
X95250Y50750D02*
D03*
X206796Y-1378D02*
D03*
X96699Y-1930D02*
D03*
M02*
