M48
;Layer_Color=0
;FILE_FORMAT=4:2
METRIC
;TYPE=PLATED
T1F00S00C0.20
T2F00S00C0.25
T3F00S00C0.80
T4F00S00C1.00
%
T01
X000950Y001273
T02
X000410Y-000015
X000620Y-000055
X000600Y000115
X000590Y000267
X000578Y000438
X000538Y000493
X000443Y000430
X000355Y000505
X000353Y000690
X000461Y000680
X000434Y000749
X000518Y000725
X000599Y000600
X000680Y000600
X000788Y000615
X000778Y000550
X001034Y000655
X001133Y000653
X001210Y000708
X001097Y000755
X001129Y000815
X001098Y000910
X001123Y001015
X001207Y001118
X001301Y001202
X001315Y001268
X001423Y001235
X001340Y000962
X001325Y000768
X001462Y000772
X001667Y000765
X001585Y000962
X001742Y001048
X001820Y001070
X001983Y001056
X001738Y001298
X001775Y000568
X001790Y000453
X001708Y000396
X000875Y000225
X000250Y000260
X000205Y000625
X000100Y000890
X000045Y001145
X000262Y001140
X000417Y001143
X000425Y001208
X000488Y001238
X000555Y001235
X000640Y001238
X000738Y001315
X000662Y001038
Y000855
X000838Y000865
X000852Y001035
X000445Y001003
X000432Y000855
X000242Y001315
X002170Y001023
X002058Y000720
T03
X000967Y-000019
X000952Y000507
X002070Y000495
X002068Y-000014
T04
X000000Y000000
Y000254
Y000508
Y000762
Y001016
Y001270
X002286
Y001016
Y000762
Y000508
Y000254
Y000000
M30
