G04*
G04 #@! TF.GenerationSoftware,Altium Limited,Altium Designer,20.0.10 (225)*
G04*
G04 Layer_Color=15790320*
%FSLAX44Y44*%
%MOMM*%
G71*
G01*
G75*
%ADD10C,0.2540*%
%ADD11C,0.2500*%
%ADD12C,0.1500*%
%ADD13C,0.2000*%
%ADD14R,0.8000X0.2750*%
G36*
X55876Y120950D02*
Y113574D01*
X48773D01*
X48774Y120677D01*
X55876Y120950D01*
D02*
G37*
G36*
X122250Y44500D02*
Y59500D01*
X130250Y51500D01*
Y51500D01*
X122250Y44500D01*
D02*
G37*
G36*
X168000Y62000D02*
X165250D01*
Y70500D01*
X168000D01*
Y62000D01*
D02*
G37*
G36*
X167950Y72250D02*
X165200D01*
Y80750D01*
X167950D01*
Y72250D01*
D02*
G37*
G36*
Y82250D02*
X165200D01*
Y90750D01*
X167950D01*
Y82250D01*
D02*
G37*
G36*
X119250Y66500D02*
X106653D01*
Y108914D01*
X119250D01*
Y66500D01*
D02*
G37*
%LPC*%
G36*
X111260Y107414D02*
X111107D01*
X110705Y107386D01*
X110330Y107331D01*
X110025Y107234D01*
X109748Y107137D01*
X109637Y107081D01*
X109540Y107026D01*
X109457Y106984D01*
X109374Y106929D01*
X109318Y106901D01*
X109276Y106873D01*
X109263Y106845D01*
X109249D01*
X108999Y106623D01*
X108791Y106402D01*
X108625Y106166D01*
X108500Y105958D01*
X108417Y105764D01*
X108347Y105611D01*
X108333Y105556D01*
X108320Y105514D01*
X108306Y105486D01*
Y105472D01*
X108278Y105361D01*
X108250Y105223D01*
X108236Y105056D01*
X108222Y104890D01*
X108195Y104502D01*
X108167Y104113D01*
Y103753D01*
X108153Y103600D01*
Y107414D01*
D01*
Y100064D01*
X117750D01*
Y102005D01*
X114130D01*
Y103725D01*
X114116Y103933D01*
Y104127D01*
X114103Y104307D01*
X114089Y104474D01*
X114075Y104626D01*
X114061Y104751D01*
Y104876D01*
X114047Y104973D01*
X114033Y105070D01*
X114019Y105140D01*
Y105195D01*
X114005Y105237D01*
Y105264D01*
X113950Y105458D01*
X113881Y105639D01*
X113811Y105805D01*
X113728Y105958D01*
X113659Y106083D01*
X113603Y106180D01*
X113562Y106235D01*
X113548Y106263D01*
X113409Y106443D01*
X113257Y106596D01*
X113090Y106748D01*
X112951Y106859D01*
X112813Y106956D01*
X112702Y107026D01*
X112633Y107067D01*
X112605Y107081D01*
X112369Y107192D01*
X112119Y107275D01*
X111856Y107331D01*
X111620Y107372D01*
X111426Y107400D01*
X111329D01*
X111260Y107414D01*
D02*
G37*
G36*
X117750Y99024D02*
X108153Y95168D01*
Y89399D01*
Y93116D01*
X117750Y89399D01*
Y91452D01*
X115573Y92242D01*
Y96097D01*
X117750Y96930D01*
Y99024D01*
D02*
G37*
G36*
Y88733D02*
X108153D01*
Y80703D01*
X117750D01*
Y84337D01*
X117736Y84711D01*
X117722Y85058D01*
X117695Y85349D01*
X117653Y85585D01*
X117611Y85779D01*
X117584Y85932D01*
X117570Y85973D01*
Y86015D01*
X117556Y86029D01*
Y86043D01*
X117445Y86348D01*
X117320Y86625D01*
X117195Y86847D01*
X117071Y87041D01*
X116959Y87194D01*
X116876Y87305D01*
X116821Y87374D01*
X116793Y87402D01*
X116530Y87638D01*
X116252Y87846D01*
X115961Y88026D01*
X115697Y88165D01*
X115448Y88276D01*
X115351Y88331D01*
X115268Y88359D01*
X115184Y88386D01*
X115129Y88414D01*
X115101Y88428D01*
X115087D01*
X114754Y88525D01*
X114408Y88608D01*
X114075Y88664D01*
X113756Y88692D01*
X113603Y88706D01*
X113465Y88719D01*
X113354D01*
X113243Y88733D01*
X117750D01*
D02*
G37*
G36*
X115184Y79622D02*
X113340D01*
Y76002D01*
X115184D01*
Y79622D01*
D02*
G37*
G36*
X117750Y74352D02*
X113146D01*
X112910Y74338D01*
X112688Y74324D01*
X112522Y74296D01*
X112383Y74282D01*
X112286Y74255D01*
X112217Y74241D01*
X112203D01*
X112036Y74199D01*
X111897Y74144D01*
X111759Y74088D01*
X111648Y74019D01*
X111551Y73963D01*
X111482Y73922D01*
X111440Y73894D01*
X111426Y73880D01*
X111301Y73769D01*
X111190Y73644D01*
X111093Y73520D01*
X111010Y73395D01*
X110941Y73284D01*
X110899Y73187D01*
X110871Y73131D01*
X110857Y73104D01*
X110788Y72909D01*
X110733Y72715D01*
X110691Y72535D01*
X110663Y72368D01*
X110649Y72216D01*
X110635Y72091D01*
Y74352D01*
D01*
Y68000D01*
D01*
Y71994D01*
X110649Y71744D01*
X110691Y71495D01*
X110746Y71273D01*
X110816Y71051D01*
X110913Y70843D01*
X111010Y70663D01*
X111121Y70482D01*
X111218Y70330D01*
X111329Y70191D01*
X111440Y70066D01*
X111537Y69955D01*
X111634Y69872D01*
X111703Y69803D01*
X111759Y69747D01*
X111800Y69720D01*
X111814Y69706D01*
X110788D01*
Y68000D01*
X110635D01*
X117750D01*
Y69844D01*
X114616D01*
X114408D01*
X114214D01*
X114033Y69858D01*
X113881Y69872D01*
X113728D01*
X113603Y69886D01*
X113478Y69900D01*
X113382Y69914D01*
X113215Y69942D01*
X113104Y69955D01*
X113035Y69983D01*
X113021D01*
X112868Y70039D01*
X112716Y70122D01*
X112605Y70205D01*
X112494Y70288D01*
X112424Y70371D01*
X112355Y70441D01*
X112327Y70482D01*
X112314Y70496D01*
X112230Y70649D01*
X112161Y70801D01*
X112119Y70940D01*
X112078Y71079D01*
X112064Y71190D01*
X112050Y71273D01*
Y71356D01*
X112064Y71495D01*
X112078Y71620D01*
X112106Y71717D01*
X112147Y71814D01*
X112189Y71897D01*
X112217Y71953D01*
X112230Y71980D01*
X112244Y71994D01*
X112314Y72091D01*
X112397Y72161D01*
X112563Y72285D01*
X112646Y72327D01*
X112702Y72355D01*
X112744Y72382D01*
X112757D01*
X112827Y72410D01*
X112910Y72424D01*
X113118Y72452D01*
X113368Y72480D01*
X113603Y72493D01*
X113839Y72507D01*
X113936D01*
X114033D01*
X114103D01*
X114158D01*
X114200D01*
X114214D01*
X117750D01*
Y74352D01*
D02*
G37*
%LPD*%
G36*
X111301Y105403D02*
X111440Y105389D01*
X111565Y105348D01*
X111676Y105306D01*
X111773Y105264D01*
X111842Y105237D01*
X111884Y105209D01*
X111897Y105195D01*
X112008Y105112D01*
X112106Y105001D01*
X112189Y104904D01*
X112258Y104807D01*
X112300Y104724D01*
X112341Y104654D01*
X112355Y104599D01*
X112369Y104585D01*
X112397Y104502D01*
X112411Y104404D01*
X112452Y104183D01*
X112480Y103933D01*
X112494Y103683D01*
Y103434D01*
X112508Y103337D01*
Y102005D01*
X109776D01*
Y103448D01*
X109789Y103586D01*
Y103711D01*
X109803Y103836D01*
Y104016D01*
X109817Y104155D01*
X109831Y104252D01*
X109845Y104307D01*
Y104321D01*
X109887Y104488D01*
X109942Y104640D01*
X110011Y104779D01*
X110095Y104890D01*
X110164Y104973D01*
X110219Y105042D01*
X110261Y105084D01*
X110275Y105098D01*
X110414Y105209D01*
X110552Y105278D01*
X110705Y105334D01*
X110843Y105375D01*
X110968Y105403D01*
X111065Y105417D01*
X111121D01*
X111149D01*
X111301Y105403D01*
D02*
G37*
G36*
X113950Y92824D02*
X110386Y94128D01*
X113950Y95473D01*
Y92824D01*
D02*
G37*
G36*
X112563Y88719D02*
X112133Y88678D01*
X111925Y88664D01*
X111745Y88636D01*
X111565Y88608D01*
X111412Y88581D01*
X111273Y88539D01*
X111149Y88511D01*
X111038Y88484D01*
X110955Y88470D01*
X110885Y88442D01*
X110830Y88428D01*
X110802Y88414D01*
X110788D01*
X110455Y88289D01*
X110150Y88137D01*
X109887Y87984D01*
X109665Y87832D01*
X109484Y87707D01*
X109346Y87596D01*
X109263Y87527D01*
X109235Y87513D01*
Y87499D01*
X109013Y87263D01*
X108833Y87027D01*
X108680Y86778D01*
X108555Y86556D01*
X108458Y86362D01*
X108389Y86195D01*
X108375Y86140D01*
X108361Y86098D01*
X108347Y86070D01*
Y86057D01*
X108278Y85793D01*
X108236Y85502D01*
X108195Y85197D01*
X108181Y84906D01*
X108167Y84642D01*
X108153Y84531D01*
Y88733D01*
X113049D01*
X112563Y88719D01*
D02*
G37*
G36*
X113354Y86722D02*
X113714Y86708D01*
X114005Y86667D01*
X114255Y86639D01*
X114463Y86597D01*
X114546Y86584D01*
X114602Y86556D01*
X114657Y86542D01*
X114699D01*
X114713Y86528D01*
X114727D01*
X114949Y86445D01*
X115143Y86376D01*
X115295Y86278D01*
X115420Y86209D01*
X115517Y86140D01*
X115587Y86084D01*
X115628Y86043D01*
X115642Y86029D01*
X115739Y85904D01*
X115822Y85779D01*
X115892Y85654D01*
X115947Y85530D01*
X115989Y85419D01*
X116017Y85336D01*
X116044Y85280D01*
Y85252D01*
X116072Y85100D01*
X116086Y84919D01*
X116114Y84725D01*
Y84531D01*
X116127Y84351D01*
Y82645D01*
X109776D01*
Y83907D01*
X109789Y84087D01*
Y84254D01*
X109803Y84392D01*
Y84517D01*
X109817Y84642D01*
Y84739D01*
X109845Y84892D01*
X109859Y85003D01*
X109873Y85072D01*
Y85086D01*
X109928Y85280D01*
X109998Y85446D01*
X110067Y85599D01*
X110150Y85738D01*
X110219Y85835D01*
X110275Y85918D01*
X110316Y85960D01*
X110330Y85973D01*
X110469Y86098D01*
X110622Y86209D01*
X110774Y86306D01*
X110913Y86390D01*
X111052Y86445D01*
X111163Y86487D01*
X111232Y86514D01*
X111246Y86528D01*
X111260D01*
X111509Y86597D01*
X111773Y86653D01*
X112064Y86681D01*
X112341Y86708D01*
X112577Y86722D01*
X112688Y86736D01*
X112785D01*
X112854D01*
X112910D01*
X112951D01*
X112965D01*
X113354Y86722D01*
D02*
G37*
D10*
X176509Y112250D02*
G03*
X176509Y112250I-3509J0D01*
G01*
X39759Y-2000D02*
G03*
X39759Y-2000I-3509J0D01*
G01*
D11*
X60032Y31372D02*
G03*
X60032Y31372I-1250J0D01*
G01*
X201500Y-32250D02*
Y-13000D01*
X102500Y-32250D02*
X201500D01*
X102500D02*
Y-13250D01*
X216500Y140000D02*
X241300D01*
Y-12450D02*
Y140000D01*
X-12700D02*
X7750D01*
X-12700Y-12450D02*
Y140000D01*
D12*
X26500Y83750D02*
Y95750D01*
X37250D01*
D13*
X-12700Y-12700D02*
X241300D01*
D14*
X15000Y21625D02*
D03*
M02*
