G04 Layer_Color=65535*
%FSLAX44Y44*%
%MOMM*%
G71*
G01*
G75*
%ADD22C,0.2000*%
%ADD30C,0.2500*%
G36*
X171750Y62750D02*
X169000D01*
Y71250D01*
X171750D01*
Y62750D01*
D02*
G37*
G36*
X54186Y124500D02*
X22900D01*
Y135908D01*
X54186D01*
Y124500D01*
D02*
G37*
G36*
X167950Y72250D02*
X165200D01*
Y80750D01*
X167950D01*
Y72250D01*
D02*
G37*
G36*
X55876Y113574D02*
X48773D01*
X48774Y120677D01*
X55876Y120950D01*
Y113574D01*
D02*
G37*
G36*
X167950Y82250D02*
X165200D01*
Y90750D01*
X167950D01*
Y82250D01*
D02*
G37*
%LPC*%
G36*
X43522Y133408D02*
X42157D01*
X39669Y127000D01*
X41035D01*
X41562Y128453D01*
X44146D01*
X44693Y127000D01*
X46097D01*
X43522Y133408D01*
D02*
G37*
G36*
X49238D02*
X46780D01*
Y127000D01*
X48077D01*
Y129419D01*
X49228D01*
X49365Y129429D01*
X49491D01*
X49618Y129438D01*
X49725Y129448D01*
X49823Y129458D01*
X49911Y129468D01*
X49989D01*
X50057Y129477D01*
X50116Y129487D01*
X50164Y129497D01*
X50203D01*
X50233Y129507D01*
X50252D01*
X50379Y129546D01*
X50506Y129585D01*
X50613Y129634D01*
X50720Y129692D01*
X50798Y129731D01*
X50867Y129770D01*
X50915Y129799D01*
X50925Y129809D01*
X51042Y129907D01*
X51150Y130004D01*
X51247Y130111D01*
X51325Y130219D01*
X51384Y130307D01*
X51432Y130375D01*
X51462Y130423D01*
X51471Y130443D01*
X51540Y130599D01*
X51598Y130765D01*
X51637Y130931D01*
X51657Y131087D01*
X51676Y131223D01*
X51686Y131331D01*
Y131370D01*
Y131399D01*
Y131418D01*
Y131428D01*
X51666Y131701D01*
X51627Y131945D01*
X51569Y132160D01*
X51501Y132345D01*
X51423Y132481D01*
X51393Y132540D01*
X51364Y132589D01*
X51345Y132628D01*
X51325Y132657D01*
X51306Y132667D01*
Y132677D01*
X51159Y132842D01*
X51003Y132979D01*
X50857Y133096D01*
X50711Y133174D01*
X50584Y133242D01*
X50476Y133281D01*
X50437Y133291D01*
X50418Y133301D01*
X50399Y133311D01*
X50389D01*
X50311Y133330D01*
X50223Y133340D01*
X50116Y133359D01*
X49999Y133369D01*
X49745Y133389D01*
X49482Y133398D01*
X49355D01*
X49238Y133408D01*
D02*
G37*
G36*
X33144Y129936D02*
X30745D01*
Y128707D01*
X33144D01*
Y129936D01*
D02*
G37*
G36*
X28131Y131740D02*
X28063D01*
X27897Y131730D01*
X27731Y131711D01*
X27585Y131672D01*
X27438Y131623D01*
X27302Y131555D01*
X27175Y131496D01*
X27068Y131418D01*
X26961Y131350D01*
X26863Y131282D01*
X26785Y131204D01*
X26707Y131145D01*
X26648Y131087D01*
X26600Y131028D01*
X26570Y130989D01*
X26551Y130970D01*
X26541Y130960D01*
Y131643D01*
X25400D01*
Y127000D01*
X26629D01*
Y129097D01*
Y129234D01*
Y129370D01*
X26639Y129487D01*
Y129594D01*
X26648Y129692D01*
X26658Y129780D01*
X26668Y129858D01*
X26678Y129926D01*
X26688Y130033D01*
X26707Y130102D01*
X26717Y130150D01*
Y130160D01*
X26756Y130267D01*
X26814Y130355D01*
X26873Y130433D01*
X26922Y130501D01*
X26980Y130560D01*
X27019Y130599D01*
X27048Y130619D01*
X27058Y130628D01*
X27156Y130687D01*
X27253Y130726D01*
X27351Y130765D01*
X27438Y130784D01*
X27517Y130794D01*
X27575Y130804D01*
X27634D01*
X27721Y130794D01*
X27799Y130784D01*
X27877Y130765D01*
X27936Y130745D01*
X27985Y130716D01*
X28024Y130697D01*
X28043Y130687D01*
X28053Y130677D01*
X28170Y130570D01*
X28248Y130453D01*
X28277Y130404D01*
X28297Y130365D01*
X28307Y130336D01*
Y130326D01*
X28326Y130277D01*
X28336Y130219D01*
X28355Y130082D01*
X28375Y129926D01*
X28385Y129760D01*
X28394Y129614D01*
Y129546D01*
Y129477D01*
Y129429D01*
Y129390D01*
Y129370D01*
Y129360D01*
Y127000D01*
X29623D01*
Y129877D01*
Y130063D01*
X29614Y130228D01*
X29604Y130375D01*
X29594Y130492D01*
X29574Y130580D01*
X29565Y130648D01*
X29555Y130687D01*
Y130697D01*
X29526Y130804D01*
X29487Y130901D01*
X29448Y130989D01*
X29409Y131067D01*
X29370Y131126D01*
X29341Y131174D01*
X29321Y131204D01*
X29311Y131214D01*
X29243Y131301D01*
X29155Y131370D01*
X29077Y131438D01*
X28989Y131496D01*
X28921Y131535D01*
X28863Y131565D01*
X28823Y131584D01*
X28804Y131594D01*
X28677Y131643D01*
X28550Y131682D01*
X28424Y131701D01*
X28307Y131721D01*
X28209Y131730D01*
X28131Y131740D01*
D02*
G37*
G36*
X36412Y133408D02*
X33866D01*
Y127000D01*
X36285D01*
X36539Y127010D01*
X36773Y127020D01*
X36968Y127039D01*
X37124Y127068D01*
X37260Y127088D01*
X37348Y127107D01*
X37407Y127117D01*
X37426Y127127D01*
X37631Y127205D01*
X37807Y127283D01*
X37963Y127371D01*
X38099Y127458D01*
X38197Y127527D01*
X38275Y127585D01*
X38314Y127634D01*
X38333Y127644D01*
X38489Y127819D01*
X38626Y128005D01*
X38743Y128190D01*
X38840Y128375D01*
X38918Y128531D01*
X38948Y128600D01*
X38977Y128658D01*
X38997Y128707D01*
X39006Y128746D01*
X39016Y128765D01*
Y128775D01*
X39084Y129000D01*
X39133Y129234D01*
X39172Y129458D01*
X39192Y129672D01*
X39211Y129858D01*
Y129936D01*
X39221Y130004D01*
Y130063D01*
Y130102D01*
Y130131D01*
Y130141D01*
X39211Y130463D01*
X39192Y130755D01*
X39153Y131018D01*
X39133Y131126D01*
X39114Y131233D01*
X39094Y131331D01*
X39074Y131409D01*
X39055Y131487D01*
X39035Y131545D01*
X39026Y131594D01*
X39016Y131623D01*
X39006Y131643D01*
Y131652D01*
X38918Y131877D01*
X38821Y132072D01*
X38723Y132247D01*
X38626Y132403D01*
X38528Y132521D01*
X38460Y132608D01*
X38411Y132667D01*
X38402Y132686D01*
X38392D01*
X38236Y132833D01*
X38070Y132959D01*
X37914Y133067D01*
X37768Y133145D01*
X37631Y133203D01*
X37534Y133252D01*
X37494Y133262D01*
X37465Y133272D01*
X37446Y133281D01*
X37436D01*
X37260Y133320D01*
X37065Y133359D01*
X36870Y133379D01*
X36665Y133389D01*
X36490Y133398D01*
X36412Y133408D01*
D02*
G37*
%LPD*%
G36*
X43727Y129536D02*
X41962D01*
X42830Y131916D01*
X43727Y129536D01*
D02*
G37*
G36*
X49131Y132316D02*
X49296Y132306D01*
X49423D01*
X49511Y132296D01*
X49569Y132287D01*
X49608Y132277D01*
X49618D01*
X49735Y132247D01*
X49833Y132208D01*
X49930Y132160D01*
X49999Y132111D01*
X50067Y132062D01*
X50106Y132023D01*
X50135Y131994D01*
X50145Y131984D01*
X50213Y131896D01*
X50262Y131799D01*
X50301Y131701D01*
X50320Y131614D01*
X50340Y131535D01*
X50350Y131467D01*
Y131428D01*
Y131409D01*
X50340Y131311D01*
X50330Y131214D01*
X50301Y131126D01*
X50281Y131058D01*
X50252Y130999D01*
X50223Y130950D01*
X50213Y130921D01*
X50203Y130911D01*
X50145Y130833D01*
X50077Y130775D01*
X50008Y130716D01*
X49940Y130677D01*
X49882Y130638D01*
X49833Y130619D01*
X49804Y130609D01*
X49794Y130599D01*
X49745Y130580D01*
X49677Y130570D01*
X49530Y130541D01*
X49365Y130521D01*
X49189Y130511D01*
X49033D01*
X48965Y130501D01*
X48077D01*
Y132325D01*
X49043D01*
X49131Y132316D01*
D02*
G37*
G36*
X36129D02*
X36236D01*
X36334Y132306D01*
X36412D01*
X36490Y132296D01*
X36558D01*
X36665Y132277D01*
X36734Y132267D01*
X36783Y132257D01*
X36792D01*
X36919Y132218D01*
X37036Y132179D01*
X37143Y132130D01*
X37221Y132082D01*
X37290Y132033D01*
X37348Y131994D01*
X37377Y131965D01*
X37387Y131955D01*
X37475Y131867D01*
X37543Y131760D01*
X37602Y131662D01*
X37660Y131555D01*
X37699Y131467D01*
X37729Y131399D01*
X37738Y131350D01*
X37748Y131331D01*
X37797Y131174D01*
X37826Y130989D01*
X37855Y130804D01*
X37865Y130619D01*
X37875Y130453D01*
X37885Y130385D01*
Y130326D01*
Y130267D01*
Y130228D01*
Y130209D01*
Y130199D01*
X37875Y129936D01*
X37865Y129702D01*
X37846Y129497D01*
X37816Y129331D01*
X37787Y129195D01*
X37768Y129097D01*
X37758Y129068D01*
Y129038D01*
X37748Y129029D01*
Y129019D01*
X37699Y128873D01*
X37641Y128746D01*
X37592Y128639D01*
X37534Y128551D01*
X37485Y128483D01*
X37455Y128443D01*
X37426Y128414D01*
X37416Y128405D01*
X37338Y128336D01*
X37251Y128287D01*
X37075Y128200D01*
X37007Y128180D01*
X36948Y128161D01*
X36899Y128141D01*
X36890D01*
X36792Y128122D01*
X36675Y128112D01*
X36539Y128092D01*
X36422D01*
X36305Y128083D01*
X35163D01*
Y132325D01*
X36012D01*
X36129Y132316D01*
D02*
G37*
D22*
X9000Y33750D02*
X21500D01*
Y20500D02*
Y33750D01*
X9000Y20500D02*
X21500D01*
X9000D02*
Y33750D01*
X-12700Y-12700D02*
Y139750D01*
Y-12700D02*
X241300D01*
Y139750D01*
X-12700D02*
X241300D01*
D30*
X59982Y29622D02*
G03*
X59982Y29622I-1250J0D01*
G01*
X19490Y-12583D02*
Y22417D01*
X74491D01*
Y-12583D02*
Y22417D01*
X19490Y-12583D02*
X74491D01*
X102500Y-32500D02*
X201500D01*
Y57500D01*
X102500D02*
X201500D01*
X102500Y-32500D02*
Y57500D01*
M02*
